<svg width="60" height="10" viewBox="0 0 582 305" fill="none" xmlns="http://www.w3.org/2000/svg">
<g clip-path="url(#clip0_49_255)">
<path d="M558.957 78.7076C559.736 79.4027 562.56 78.6944 568.178 77.2497C572.449 76.1515 573.107 75.7519 573.513 75.4654C574.941 74.458 575.315 73.3988 576.73 68.7193C579.269 60.3203 579.347 59.4862 580.651 57.7039C581.1 57.0901 582.234 55.6261 581.957 55.4447C581.673 55.2582 580.446 56.7834 578.178 57.3596C575.967 57.9213 574.972 57.0216 573.085 57.2507C570.645 57.5469 569.194 59.4283 566.919 62.4734C564.904 65.1702 564.651 66.2551 561.826 71.6133C561.025 73.1311 560.381 74.306 559.886 75.2344C554.34 79.437 548.839 83.695 543.388 87.99C543.493 87.8595 543.592 87.7365 543.678 87.6296C546.092 84.6199 546.42 83.0065 546.385 81.7975C546.329 79.8387 545.176 78.3469 542.874 75.4429C540.618 72.5973 538.48 70.7196 535.905 68.479C532.529 65.542 530.841 64.0734 530.169 64.1701C525.367 64.8599 524.083 91.4016 530.124 96.1484C529.276 96.6402 528.574 97.1553 528.066 97.662C522.895 93.0007 514.036 87.7929 504.223 87.1517C498.173 86.7564 494.834 88.2977 493.795 88.8272C488.997 91.274 486.143 96.1716 487.576 97.5535C488.912 98.8422 492.772 95.9126 500.336 96.074C505.613 96.1866 509.736 97.741 512.184 98.6639C517.318 100.6 519.196 102.503 522.981 103.807C521.207 104.994 519.801 106.476 518.918 107.858C518.612 108.114 518.308 108.371 518.002 108.627C514.096 106.84 509.697 105.529 505.087 105.228C499.037 104.833 495.698 106.374 494.659 106.903C491.425 108.553 489.081 111.312 488.331 113.361C487.841 113.441 487.387 113.532 486.972 113.631C485.506 110.941 481.143 108.104 477.086 106.674C470.103 104.214 461.031 104.866 460.061 107.206C460.03 107.281 460.022 107.354 460.008 107.428C460.774 102.414 461.813 97.4344 463.112 92.4914C463.156 92.6323 463.211 92.7752 463.285 92.9254C465.009 96.4405 469.667 99.8143 476.017 101.565C481 102.938 483.088 102.226 483.618 102.027C484.124 101.837 486.312 101.075 486.848 99.5591C487.842 96.7486 481.756 88.4423 477.917 91.2284C465.582 100.18 463.89 92.9315 463.323 91.7114C464.372 87.8035 465.579 83.918 466.933 80.0546C466.956 80.0782 466.976 80.1014 467.001 80.1253C469.695 82.7785 474.881 84.6478 480.976 84.7304C485.759 84.7952 487.322 83.7082 487.713 83.4164C488.086 83.1377 489.719 81.9844 489.664 80.5515C489.562 77.8949 483.741 75.7313 479.083 75.3562C474.791 75.0105 470.169 76.0773 467.877 77.4282C468.943 74.5351 470.089 71.6545 471.312 68.7864C474.445 69.8251 478.882 69.6854 483.241 68.1036C486.835 66.7991 487.534 65.5466 487.701 65.2185C487.859 64.9051 488.582 63.5834 487.926 62.5304C486.71 60.5782 481.441 60.6112 477.807 61.6488C476.31 62.0761 474.888 62.7335 473.668 63.4767C475.836 58.7758 478.199 54.1083 480.74 49.4753L478.193 48.9585C474.947 54.8769 472.117 60.8724 469.685 66.9344C469.382 65.1565 468.624 63.2626 467.627 61.7238C464.692 57.1995 458.425 53.8051 456.306 54.9064C455.882 55.1267 455.703 55.4855 455.542 55.9126C454.243 59.3497 455.221 64.0998 458.643 68.464C461.328 71.8893 463.396 72.3701 463.935 72.4789C464.39 72.5707 466.146 72.9644 467.59 72.4573C466.619 75.1579 465.721 77.8702 464.903 80.5946C463.918 78.6093 461.977 76.4939 459.924 75.0311C455.19 71.6582 447.842 70.3085 446.348 71.9524C446.049 72.2812 446.041 72.6681 446.078 73.1139C446.38 76.7008 449.386 80.8524 454.504 83.9343C458.521 86.3531 460.665 86.2014 461.216 86.1465C461.54 86.1142 462.52 86.035 463.465 85.6881C462.588 88.9984 461.821 92.3247 461.158 95.665C459.833 91.9283 455.33 87.2665 451.081 88.7496C443.54 91.3814 434.676 87.3388 433.7 89.1066C433.447 89.5666 433.657 90.0408 433.9 90.5554C435.853 94.6967 441.249 98.7092 448.657 100.84C454.472 102.512 456.932 101.704 457.557 101.478C457.972 101.327 459.339 100.864 460.357 100.003C459.625 104.295 459.064 108.609 458.669 112.942C457.097 110.155 452.668 107.219 448.522 105.705C441.251 103.05 431.739 103.632 430.683 106.072C430.472 106.56 430.639 107.031 430.888 107.559C432.893 111.809 438.431 115.928 446.035 118.115C452.003 119.831 454.528 119.002 455.17 118.769C455.639 118.599 457.295 118.038 458.35 116.971C458.215 118.974 458.111 120.981 458.045 122.991C458.026 123.563 458.015 124.136 458.001 124.708C457.915 124.821 457.841 124.936 457.791 125.056C457.587 125.547 457.726 126.02 457.965 126.536C457.96 126.9 457.957 127.263 457.954 127.627C456.624 126.648 455.036 125.175 453.127 123.078C451.405 121.185 449.769 122.574 448.718 124.185C447.071 123.887 445.5 124.072 444.264 125.009C435.978 131.293 426.684 127.959 426.552 129.833C426.514 130.374 426.871 130.804 427.321 131.27C430.939 135.022 438.042 137.76 446.48 138.048C453.103 138.275 455.315 136.813 455.869 136.42C456.063 136.282 456.499 135.984 456.972 135.565C457.351 135.811 457.72 136.034 458.09 136.238C458.236 139.835 458.497 143.428 458.883 147.015C458.569 147.038 458.268 147.08 458.045 147.098C454.837 147.364 453.756 143.85 448.91 142.566C447.3 142.14 444.2 141.675 442.566 142.566C442.331 142.695 441.528 143.177 440.282 143.596C439.546 143.844 438.984 143.958 438.76 144.008C436.772 144.45 434.93 145.661 433.685 146.48C431.345 148.02 430.175 148.79 429.625 150.188C429.452 150.628 428.966 151.866 429.625 153.072C429.937 153.642 430.66 154.489 433.431 155.338C435.079 155.843 439.884 157.314 445.611 155.75C446.915 155.394 445.92 155.522 450.94 153.484C454.889 151.881 457.199 151.115 457.537 149.57C457.656 149.027 457.536 148.365 458.045 148.128C458.327 147.997 458.669 148.061 459.01 148.16C459.342 151.044 459.757 153.922 460.26 156.795H455.741C449.74 156.795 444.356 159.507 441.692 163.872L424.787 191.559C423.72 193.306 423.156 195.261 423.156 197.212V268.404C423.156 275.424 430.19 281.134 438.837 281.134H478.294C486.94 281.134 493.974 275.424 493.974 268.404V202.85C493.974 201.252 493.61 199.687 492.89 198.199L476.78 164.875C474.826 160.833 470.593 157.974 465.535 157.089C467.157 155.527 468.782 153.967 470.42 152.412C472.483 153.219 474.751 153.883 477.19 154.348C483.643 155.58 486.154 154.482 486.789 154.18C487.395 153.892 490.024 152.721 490.47 150.767C490.517 150.558 490.536 150.346 490.533 150.133C497.142 154.495 500.59 156.645 503.11 155.928C505.275 155.312 506.512 153.292 507.22 151.48C507.959 151.563 508.743 151.649 509.579 151.739C518.632 152.72 523.194 153.176 524.939 151.435C527.354 149.026 525.061 144.38 524.43 143.1C523.056 140.317 520.944 138.624 519.632 137.594C517.928 136.257 513.071 132.444 505.425 131.936C503.763 131.825 502.269 131.91 500.748 132.169C500.218 131.775 499.659 131.389 499.043 131.023C497.869 130.325 496.71 129.808 495.463 129.404C497.376 127.702 499.295 126.005 501.223 124.315C501.528 124.428 501.818 124.537 502.084 124.637C508.401 127.019 509.788 129.351 515.862 130.579C518.618 131.135 521.738 131.766 522.51 130.818C523.882 129.134 518.058 122.204 509.058 117.516C509.665 116.994 510.274 116.474 510.882 115.954C511.705 116.234 512.43 116.507 513.048 116.74C519.364 119.122 520.751 121.454 526.826 122.681C529.581 123.238 532.701 123.869 533.473 122.921C534.698 121.418 530.193 115.738 522.816 111.2C524.842 110.678 527.529 110.099 531.009 110.173C536.287 110.286 540.409 111.84 542.857 112.763C549.173 115.145 550.561 117.477 556.635 118.704C559.39 119.261 562.51 119.892 563.282 118.944C565.322 116.44 551.468 102.334 534.896 101.251C533.609 101.167 532.453 101.174 531.408 101.237C531.263 101.042 531.107 100.843 530.941 100.64C536.548 100.786 547.499 99.4848 556.82 104.797C559.507 106.329 564.728 109.933 573.466 112.893C576.258 113.839 577.662 114.305 578.049 113.916C579.434 112.525 567.922 101.079 551.727 95.4396C545.306 93.2039 541.338 92.9924 538.516 93.331C538.951 92.9285 539.375 92.5131 539.783 92.0958C546.089 87.0746 552.475 82.1058 558.918 77.2039C558.607 77.9869 558.617 78.4036 558.957 78.7076ZM478.029 141.203C470.906 139.331 462.281 140.337 460.032 142.467C459.715 140.579 459.439 138.688 459.212 136.794C462.457 138.266 465.843 138.66 472.266 139.356C475.002 139.652 477.321 139.899 479.283 140.054C479.546 140.633 479.827 141.155 480.153 141.654C480.191 141.712 480.232 141.767 480.27 141.825L480.213 141.877C479.482 141.62 478.749 141.392 478.029 141.203ZM459.104 115.841C459.307 115.294 459.311 114.711 459.156 114.111C459.378 111.935 459.655 109.765 459.982 107.602C459.974 107.933 460.103 108.264 460.279 108.624C462.259 112.661 467.61 116.536 474.903 118.547C476.264 118.922 477.431 119.158 478.436 119.303C477.994 119.929 477.655 120.538 477.43 121.102C474.944 119.481 471.743 118.301 468.112 119.553C467.124 119.893 466.537 121.138 466.028 122.628C462.673 122.675 459.869 123.243 458.534 124.204C458.541 123.803 458.539 123.403 458.552 123.002C458.627 120.713 458.766 118.431 458.962 116.156C459.016 116.054 459.064 115.95 459.104 115.841ZM458.544 127.615C458.688 127.856 458.847 128.095 459.011 128.333C458.862 128.244 458.709 128.148 458.552 128.044C458.548 127.901 458.547 127.758 458.544 127.615ZM464.272 156.913C463.881 156.871 463.487 156.841 463.089 156.823C462.171 153.122 461.323 149.423 460.613 145.717C462.479 148.122 465.526 150.324 469.406 151.993C467.684 153.629 465.977 155.27 464.272 156.913ZM494.335 129.076C491.906 128.443 489.056 128.14 485.111 127.768C484.111 126.64 483.08 125.809 482.319 125.211C481.906 124.887 481.273 124.245 480.452 123.493C482.578 122.939 485.752 121.952 490.236 122.047C494.312 122.134 497.695 123.081 500.153 123.932C498.206 125.64 496.268 127.356 494.335 129.076ZM508.102 117.031C505.715 115.86 503.126 114.857 500.401 114.153C500.666 114.151 500.925 114.144 501.2 114.15C504.579 114.222 507.482 114.886 509.777 115.596C509.219 116.074 508.659 116.551 508.102 117.031Z" fill="#2F2E41"/>
<path d="M239.519 100.668L284.833 89.9011L296.329 100.668C296.329 100.668 337.884 104.706 350.041 127.138C362.199 149.569 408.066 263.521 408.066 263.521L347.555 271.372L263.558 216.191C263.558 216.191 237.033 206.31 239.519 182.538C240.94 168.957 236.86 152.153 233.1 140.241C230.015 130.466 233.175 120.085 241.453 112.557L239.519 100.668Z" fill="#E6E6E6"/>
<path d="M2.46895 298.923C-0.45789 295.177 -0.803543 290.55 1.54451 286.544L36.437 227.025C39.0411 222.583 44.6392 219.713 50.6988 219.713H491.418C497.309 219.713 502.668 222.344 505.404 226.579L542.804 284.458C545.389 288.458 545.219 293.157 542.349 297.028C539.479 300.898 534.444 303.219 528.88 303.237L15.8684 304.877H15.8042C10.3658 304.877 5.38392 302.654 2.46895 298.923Z" fill="white"/>
<path d="M2.46895 298.923C-0.45789 295.177 -0.803543 290.55 1.54451 286.544L36.437 227.025C39.0411 222.583 44.6392 219.713 50.6988 219.713H491.418C497.309 219.713 502.668 222.344 505.404 226.579L542.804 284.458C545.389 288.458 545.219 293.157 542.349 297.028C539.479 300.898 534.444 303.219 528.88 303.237L15.8684 304.877H15.8042C10.3658 304.877 5.38392 302.654 2.46895 298.923ZM50.6988 221.059C45.2752 221.059 40.2648 223.628 37.934 227.604L3.04153 287.122C0.939828 290.707 1.24905 294.849 3.86883 298.202C6.47808 301.541 10.9365 303.531 15.8045 303.531H15.8619L528.873 301.891C533.853 301.876 538.36 299.798 540.929 296.334C543.498 292.869 543.65 288.663 541.336 285.083L503.936 227.204C501.487 223.414 496.69 221.059 491.418 221.059H50.6988Z" fill="#3F3D56"/>
<path d="M101.649 122.523C95.5351 115.905 86.3738 113.102 81.1869 116.261C76 119.42 76.7522 127.345 82.8689 133.964C85.2677 136.635 88.4195 138.801 92.0608 140.281L118.4 168.054L134.19 157.742L106.548 131.457C105.817 128.204 104.137 125.14 101.649 122.523Z" fill="#FFB6B6"/>
<path d="M245.578 103.418C245.578 103.418 278.081 114.896 277.95 127.1C277.819 139.303 217.993 220.287 217.993 220.287C217.993 220.287 192.294 233.53 183.56 225.914C174.825 218.299 102.183 157.322 102.183 157.322L121.974 138.133L193.835 188.938L245.578 103.418Z" fill="#E6E6E6"/>
<path d="M325.933 256.393L335.327 280.619L225.357 286.003L234.752 258.636L325.933 256.393Z" fill="#FFBB0E"/>
<path d="M204.97 253.809L214.365 278.035L104.395 283.419L113.79 256.052L204.97 253.809Z" fill="#E6E6E6"/>
<path d="M476.18 237.27L485.575 261.496L375.605 266.879L385 239.513L476.18 237.27Z" fill="#F24E1E"/>
<path d="M259.199 238.007L230.699 226.628C230.503 226.55 230.288 226.511 230.07 226.515L164.291 227.668L144.274 166.638C144.225 166.486 144.079 166.368 143.892 166.329L119.681 161.201C119.28 161.116 118.917 161.418 119.03 161.741L143.028 230.373C143.067 230.484 143.159 230.579 143.284 230.635L167.96 241.717C168.15 241.802 168.354 241.78 168.508 241.698L168.64 241.821C168.907 242.068 169.296 242.206 169.701 242.196L258.639 240.097C260.055 240.064 260.469 238.514 259.199 238.007Z" fill="#3F3D56"/>
<path d="M231.125 220.997C220.939 221.191 212.805 225.615 212.958 230.878C213.111 236.141 221.492 240.249 231.682 240.054C235.754 240.021 239.757 239.197 243.356 237.651L286.503 236.388L285.341 219.962L242.929 222.952C239.243 221.545 235.196 220.874 231.125 220.997Z" fill="#FFB6B6"/>
<path d="M295.609 114.8C295.609 114.8 326.003 99.9954 338.16 107.173C350.318 114.352 396.737 200.937 396.737 200.937C396.737 200.937 395.079 225.612 382.369 226.958C369.659 228.304 266.321 240.866 266.321 240.866L258.584 216.64L332.634 199.143L295.609 114.8Z" fill="#CCCCCC"/>
<path d="M110.643 276.286C149.435 276.286 180.882 268.814 180.882 259.596C180.882 250.379 149.435 242.907 110.643 242.907C71.8509 242.907 40.4038 250.379 40.4038 259.596C40.4038 268.814 71.8509 276.286 110.643 276.286Z" fill="#3F3D56"/>
<path d="M180.61 258.202C180.61 265.115 150.291 268.637 111.499 268.637C72.7075 268.637 40.5481 265.115 40.5481 258.202C40.5481 251.289 72.7075 243.602 111.499 243.602C150.291 243.602 180.61 251.289 180.61 258.202Z" fill="#2F2E41"/>
<path d="M57.1069 245.341L45.9714 250.208C45.9714 250.208 46.828 265.507 66.5292 264.812C86.2304 264.117 94.7625 261.335 94.351 259.596C93.9396 257.858 94.7962 248.818 87.087 250.208C79.3778 251.599 68.2424 252.99 68.2424 252.99L57.1069 245.341Z" fill="#F24E1E"/>
<path d="M94.1462 257.43C92.7179 259.147 84.0371 261.412 66.5292 262.03C51.9591 262.545 47.6996 254.315 46.4671 249.992L45.9714 250.209C45.9714 250.209 46.828 265.507 66.5292 264.812C86.2304 264.117 94.7623 261.335 94.3512 259.596C94.2558 259.194 94.2278 258.397 94.1462 257.43Z" fill="#3F3D56"/>
<path d="M93.9397 247.427L82.8042 252.295C82.8042 252.295 83.6608 267.594 103.362 266.898C123.063 266.203 131.595 263.421 131.184 261.683C130.772 259.944 131.629 250.904 123.92 252.295C116.211 253.685 105.075 255.076 105.075 255.076L93.9397 247.427Z" fill="#F24E1E"/>
<path d="M130.979 259.517C129.551 261.233 120.87 263.499 103.362 264.117C88.7919 264.631 84.5324 256.402 83.2998 252.078L82.8042 252.295C82.8042 252.295 83.6608 267.594 103.362 266.898C123.063 266.203 131.595 263.421 131.184 261.683C131.089 261.28 131.061 260.483 130.979 259.517Z" fill="#3F3D56"/>
<path d="M102.505 232.823L91.3699 237.691C91.3699 237.691 92.2264 252.99 111.928 252.295C131.629 251.599 140.161 248.818 139.749 247.079C139.338 245.341 140.195 236.3 132.485 237.691C124.776 239.082 113.641 240.473 113.641 240.473L102.505 232.823Z" fill="#F24E1E"/>
<path d="M139.545 244.913C138.116 246.63 129.436 248.895 111.928 249.513C97.3575 250.027 93.0981 241.798 91.8655 237.475L91.3699 237.691C91.3699 237.691 92.2264 252.99 111.928 252.295C131.629 251.599 140.161 248.818 139.75 247.079C139.654 246.676 139.626 245.879 139.545 244.913Z" fill="#3F3D56"/>
<path d="M140.195 242.559L129.059 247.427C129.059 247.427 129.916 262.726 149.617 262.03C169.318 261.335 177.85 258.553 177.439 256.815C177.027 255.076 177.884 246.036 170.175 247.427C162.466 248.818 151.33 250.208 151.33 250.208L140.195 242.559Z" fill="#F24E1E"/>
<path d="M177.234 254.649C175.806 256.366 167.125 258.631 149.617 259.249C135.047 259.763 130.788 251.534 129.555 247.21L129.059 247.427C129.059 247.427 129.916 262.726 149.617 262.03C169.318 261.335 177.85 258.553 177.439 256.815C177.344 256.412 177.316 255.615 177.234 254.649Z" fill="#3F3D56"/>
<path d="M64.4027 99.6262L48.3618 106.638C48.3618 106.638 49.5957 128.677 77.9757 127.675C106.356 126.673 118.646 122.666 118.054 120.162C117.461 117.658 118.695 104.635 107.59 106.638C96.4845 108.642 80.4436 110.645 80.4436 110.645L64.4027 99.6262Z" fill="#FFBB0E"/>
<path d="M117.759 117.042C115.701 119.515 103.196 122.778 77.9757 123.668C56.9872 124.409 50.8513 112.555 49.0758 106.326L48.3618 106.638C48.3618 106.638 49.5957 128.677 77.9757 127.675C106.356 126.673 118.646 122.666 118.054 120.162C117.916 119.582 117.876 118.434 117.759 117.042Z" fill="#3F3D56"/>
<path d="M247.085 89.7521C269.419 89.7521 287.524 75.0533 287.524 56.9214C287.524 38.7894 269.419 24.0906 247.085 24.0906C224.75 24.0906 206.645 38.7894 206.645 56.9214C206.645 75.0533 224.75 89.7521 247.085 89.7521Z" fill="#FFB6B6"/>
<path d="M256.614 66.4089L245.604 55.2765L239.084 39.3403C239.084 39.3403 197.942 51.7125 206.905 33.8749C215.868 16.0374 244.184 9.12171 265.603 19.8491L275.018 25.7594C275.018 25.7594 254.197 13.2765 264.838 7.17615C275.479 1.07583 272.934 -2.08311 279.729 1.5251C286.524 5.13331 283.906 8.77864 290.775 5.58257C297.644 2.38649 312.655 -2.42618 311.189 1.96025C309.723 6.34668 326.86 15.778 321.855 21.3475C316.849 26.9169 323.45 36.4911 312.764 34.9487C302.078 33.4064 309.039 45.4956 299.025 41.3409C299.025 41.3409 307.782 48.5146 302.425 54.9669C297.067 61.4191 287.847 64.6017 290.078 72.8882C292.309 81.1747 267.759 85.2318 267.759 85.2318L266.191 60.5775C266.191 60.5775 259.465 57.0684 256.614 66.4089Z" fill="#2F2E41"/>
</g>
<defs>
<clipPath id="clip0_49_255">
<rect width="582" height="304.877" fill="white"/>
</clipPath>
</defs>
</svg>
