<svg width="24" height="24" viewBox="0 0 24 24" fill="none" xmlns="http://www.w3.org/2000/svg">
<path d="M23.2 22H22.4V7C22.4 6.73478 22.3157 6.48043 22.1657 6.29289C22.0157 6.10536 21.8122 6 21.6 6H15.2C14.9878 6 14.7843 6.10536 14.6343 6.29289C14.4843 6.48043 14.4 6.73478 14.4 7V12H9.6V1C9.6 0.734784 9.51571 0.48043 9.36569 0.292893C9.21566 0.105357 9.01217 0 8.8 0H2.4C2.18783 0 1.98434 0.105357 1.83431 0.292893C1.68429 0.48043 1.6 0.734784 1.6 1V22H0.8C0.587827 22 0.384344 22.1054 0.234315 22.2929C0.0842854 22.4804 0 22.7348 0 23C0 23.2652 0.0842854 23.5196 0.234315 23.7071C0.384344 23.8946 0.587827 24 0.8 24H23.2C23.4122 24 23.6157 23.8946 23.7657 23.7071C23.9157 23.5196 24 23.2652 24 23C24 22.7348 23.9157 22.4804 23.7657 22.2929C23.6157 22.1054 23.4122 22 23.2 22ZM16 8H20.8V22H16V8ZM14.4 14V22H9.6V14H14.4ZM3.2 2H8V22H3.2V2ZM6.4 5V7C6.4 7.26522 6.31571 7.51957 6.16569 7.70711C6.01566 7.89464 5.81217 8 5.6 8C5.38783 8 5.18434 7.89464 5.03431 7.70711C4.88429 7.51957 4.8 7.26522 4.8 7V5C4.8 4.73478 4.88429 4.48043 5.03431 4.29289C5.18434 4.10536 5.38783 4 5.6 4C5.81217 4 6.01566 4.10536 6.16569 4.29289C6.31571 4.48043 6.4 4.73478 6.4 5ZM6.4 11V13C6.4 13.2652 6.31571 13.5196 6.16569 13.7071C6.01566 13.8946 5.81217 14 5.6 14C5.38783 14 5.18434 13.8946 5.03431 13.7071C4.88429 13.5196 4.8 13.2652 4.8 13V11C4.8 10.7348 4.88429 10.4804 5.03431 10.2929C5.18434 10.1054 5.38783 10 5.6 10C5.81217 10 6.01566 10.1054 6.16569 10.2929C6.31571 10.4804 6.4 10.7348 6.4 11ZM6.4 17V19C6.4 19.2652 6.31571 19.5196 6.16569 19.7071C6.01566 19.8946 5.81217 20 5.6 20C5.38783 20 5.18434 19.8946 5.03431 19.7071C4.88429 19.5196 4.8 19.2652 4.8 19V17C4.8 16.7348 4.88429 16.4804 5.03431 16.2929C5.18434 16.1054 5.38783 16 5.6 16C5.81217 16 6.01566 16.1054 6.16569 16.2929C6.31571 16.4804 6.4 16.7348 6.4 17ZM11.2 19V17C11.2 16.7348 11.2843 16.4804 11.4343 16.2929C11.5843 16.1054 11.7878 16 12 16C12.2122 16 12.4157 16.1054 12.5657 16.2929C12.7157 16.4804 12.8 16.7348 12.8 17V19C12.8 19.2652 12.7157 19.5196 12.5657 19.7071C12.4157 19.8946 12.2122 20 12 20C11.7878 20 11.5843 19.8946 11.4343 19.7071C11.2843 19.5196 11.2 19.2652 11.2 19ZM17.6 19V17C17.6 16.7348 17.6843 16.4804 17.8343 16.2929C17.9843 16.1054 18.1878 16 18.4 16C18.6122 16 18.8157 16.1054 18.9657 16.2929C19.1157 16.4804 19.2 16.7348 19.2 17V19C19.2 19.2652 19.1157 19.5196 18.9657 19.7071C18.8157 19.8946 18.6122 20 18.4 20C18.1878 20 17.9843 19.8946 17.8343 19.7071C17.6843 19.5196 17.6 19.2652 17.6 19ZM17.6 13V11C17.6 10.7348 17.6843 10.4804 17.8343 10.2929C17.9843 10.1054 18.1878 10 18.4 10C18.6122 10 18.8157 10.1054 18.9657 10.2929C19.1157 10.4804 19.2 10.7348 19.2 11V13C19.2 13.2652 19.1157 13.5196 18.9657 13.7071C18.8157 13.8946 18.6122 14 18.4 14C18.1878 14 17.9843 13.8946 17.8343 13.7071C17.6843 13.5196 17.6 13.2652 17.6 13Z" fill="#F24E1E"/>
</svg>
