<svg width="60" height="60" viewBox="0 0 60 60" fill="none" xmlns="http://www.w3.org/2000/svg">
<path d="M48.25 42.25C49.25 40.5 50 38.5 50 36.25C50 30 45 25 38.75 25C32.5 25 27.5 30 27.5 36.25C27.5 42.5 32.5 47.5 38.75 47.5C41 47.5 43 46.75 44.75 45.75L52.75 53.75L56.25 50.25L48.25 42.25ZM38.75 42.5C35.25 42.5 32.5 39.75 32.5 36.25C32.5 32.75 35.25 30 38.75 30C42.25 30 45 32.75 45 36.25C45 39.75 42.25 42.5 38.75 42.5ZM30 50V55C16.2 55 5 43.8 5 30C5 16.2 16.2 5 30 5C42.1 5 52.175 13.6 54.5 25H49.325C48.5453 21.9796 47.0698 19.1835 45.0166 16.835C42.9633 14.4866 40.3892 12.651 37.5 11.475V12.5C37.5 15.25 35.25 17.5 32.5 17.5H27.5V22.5C27.5 23.875 26.375 25 25 25H20V30H25V37.5H22.5L10.525 25.525C10.2 26.975 10 28.45 10 30C10 41.025 18.975 50 30 50Z" fill="#F24E1E"/>
</svg>
