<svg width="60" height="60" viewBox="0 0 60 60" fill="none" xmlns="http://www.w3.org/2000/svg">
<path d="M57.8785 20.553C61.4674 16.9642 59.8309 12.7726 57.8785 10.7343L49.2652 2.12137C45.6476 -1.46734 41.4845 0.16911 39.446 2.12137L34.5651 7.03071H27.1289C21.6738 7.03071 18.5155 9.90168 16.9077 13.2033L4.15997 25.9504V37.4342L2.12148 39.4439C-1.46742 43.0613 0.169119 47.2242 2.12148 49.2626L10.7348 57.8755C12.2852 59.4258 13.9505 60 15.5296 60C17.5681 60 19.4343 58.9952 20.554 57.8755L28.306 50.0952H38.6133C43.4942 50.0952 45.9634 47.0519 46.8534 44.0661C50.0978 43.2049 51.8779 40.7358 52.5957 38.3242C57.0459 37.1758 58.7112 32.9555 58.7112 29.9984V21.3855H57.0172L57.8785 20.553ZM52.9689 29.9984C52.9689 31.2904 52.4234 32.8694 50.0978 32.8694H47.2267V35.7404C47.2267 37.0323 46.6812 38.6113 44.3556 38.6113H41.4845V41.4823C41.4845 42.7742 40.9389 44.3532 38.6133 44.3532H25.9517L16.5345 53.77C15.6444 54.6026 15.1276 54.1145 14.8118 53.7987L6.22717 45.2432C5.39455 44.3532 5.88264 43.8365 6.19846 43.5207L9.9022 39.7884V28.3046L15.6444 22.5626V27.1275C15.6444 30.6013 17.9413 35.7404 24.2578 35.7404C30.5742 35.7404 32.8711 30.6013 32.8711 27.1275H52.9689V29.9984ZM53.8015 16.4762L48.9207 21.3855H27.1289V27.1275C27.1289 28.4194 26.5834 29.9984 24.2578 29.9984C21.9322 29.9984 21.3867 28.4194 21.3867 27.1275V18.5146C21.3867 17.1939 21.8747 12.7726 27.1289 12.7726H36.9194L43.4655 6.22684C44.3556 5.39426 44.8724 5.88233 45.1882 6.19813L53.7728 14.7536C54.6055 15.6436 54.1174 16.1604 53.8015 16.4762Z" fill="#F24E1E"/>
</svg>
