<svg width="1440" height="584" viewBox="0 0 1440 584" fill="none" xmlns="http://www.w3.org/2000/svg">
<rect width="1440" height="584" fill="#F24E1E" fill-opacity="0.11"/>
<g clip-path="url(#clip0_49_391)">
<path d="M1138.99 500.636C1139.13 506.793 1140.04 512.896 1141.67 518.765C1141.7 518.902 1141.74 519.036 1141.78 519.172H1151.78C1151.77 519.05 1151.75 518.914 1151.74 518.765C1151.08 510.002 1154.88 457.298 1159.48 448.177C1159.07 448.917 1138.22 472.79 1138.99 500.636Z" fill="#E6E6E6"/>
<path d="M1139.74 518.765C1139.82 518.902 1139.91 519.038 1140 519.172H1147.5C1147.44 519.056 1147.37 518.92 1147.3 518.765C1146.06 516.208 1142.39 508.562 1138.99 500.636C1135.34 492.118 1131.98 483.278 1132.26 480.078C1132.18 480.799 1129.65 502.799 1139.74 518.765Z" fill="#E6E6E6"/>
<path d="M1261.25 509.755C1261.32 512.883 1261.78 515.983 1262.61 518.965C1262.63 519.035 1262.65 519.103 1262.67 519.172H1267.74C1267.74 519.11 1267.73 519.041 1267.73 518.965C1267.39 514.513 1269.32 487.736 1271.65 483.102C1271.45 483.478 1260.85 495.607 1261.25 509.755Z" fill="#E6E6E6"/>
<path d="M1261.63 518.965C1261.67 519.035 1261.71 519.104 1261.76 519.172H1265.57C1265.54 519.113 1265.51 519.044 1265.47 518.965C1264.84 517.666 1262.98 513.782 1261.25 509.755C1259.39 505.427 1257.68 500.935 1257.83 499.31C1257.78 499.676 1256.5 510.854 1261.63 518.965Z" fill="#E6E6E6"/>
<path d="M1231.19 331.422L1218.27 341.939L1226.31 342.924L1237.51 332.08L1231.19 331.422Z" fill="#3F3D56"/>
<path d="M1180.64 510.99L1188.41 510.99L1192.11 476.688L1180.63 476.689L1180.64 510.99Z" fill="#9F616A"/>
<path d="M1178.65 508.087L1193.96 508.086H1193.96C1196.55 508.087 1199.03 509.262 1200.86 511.356C1202.69 513.449 1203.71 516.287 1203.71 519.247V519.61L1178.65 519.611L1178.65 508.087Z" fill="#2F2E41"/>
<path d="M1175.75 388.473C1175.75 388.473 1172.38 392.83 1177.96 409.813L1176.98 502.933L1195.05 502.53L1199.02 457.106L1206.26 390.82L1175.75 388.473Z" fill="#2F2E41"/>
<path d="M1157.7 373.773C1156.63 373.77 1155.61 373.29 1154.85 372.437C1154.08 371.583 1153.64 370.422 1153.61 369.201L1152.76 332.625L1167.28 301.118C1167.61 300.409 1168.09 299.807 1168.68 299.37C1169.27 298.934 1169.94 298.676 1170.64 298.622L1181.7 297.809L1180.75 371.537L1158.06 373.755C1157.94 373.767 1157.82 373.773 1157.7 373.773Z" fill="#F24E1E"/>
<path d="M1212.46 401.348L1212.26 401.313C1189.14 397.278 1171.69 393.41 1171.51 393.371L1171.3 393.323L1177.36 376.454C1177.31 374.691 1176 325.191 1178.51 310.969C1180.94 297.201 1192.4 294.945 1193.71 294.733L1195.02 289.761L1211.59 299.626L1214.48 311.006L1215.07 342.195L1212.46 401.348Z" fill="#3F3D56"/>
<path d="M1189.69 354.13C1179.01 354.13 1170.33 340.849 1170.33 324.525C1170.33 308.201 1179.01 294.921 1189.69 294.921C1200.36 294.921 1209.05 308.201 1209.05 324.525C1209.05 340.849 1200.36 354.13 1189.69 354.13ZM1189.69 297.819C1180.41 297.819 1172.86 309.799 1172.86 324.525C1172.86 339.251 1180.41 351.231 1189.69 351.231C1198.97 351.231 1206.51 339.251 1206.51 324.525C1206.51 309.799 1198.97 297.819 1189.69 297.819Z" fill="#F24E1E"/>
<path d="M1222.44 337.154C1221.69 337.154 1220.95 337.33 1220.27 337.672C1219.58 338.014 1218.97 338.515 1218.46 339.142H1190.61L1180.41 341.626L1182.09 356.407L1218.38 347.477C1218.98 348.254 1219.74 348.846 1220.59 349.199C1221.44 349.552 1222.36 349.655 1223.25 349.499C1224.15 349.343 1225 348.933 1225.72 348.306C1226.44 347.679 1227.01 346.855 1227.39 345.909C1227.76 344.964 1227.92 343.926 1227.85 342.892C1227.78 341.858 1227.49 340.86 1226.99 339.99C1226.5 339.119 1225.83 338.403 1225.03 337.908C1224.23 337.413 1223.34 337.153 1222.44 337.154Z" fill="#9F616A"/>
<path d="M1220.39 287.666C1225.63 281.669 1225.63 271.945 1220.39 265.947C1215.15 259.95 1206.65 259.95 1201.41 265.947C1196.17 271.945 1196.17 281.669 1201.41 287.666C1206.65 293.664 1215.15 293.664 1220.39 287.666Z" fill="#9F616A"/>
<path d="M1198.28 264.529L1197.63 263.031L1200.9 261.17C1200.9 261.17 1204.51 254.445 1211.05 256.335C1217.58 258.225 1220.52 259.356 1220.52 259.356L1223.79 261.236L1222.15 263.102L1225.09 264.233L1223.13 265.35L1225.41 266.853L1224.18 274.559C1224.18 274.559 1222.14 268.714 1218.21 270.948C1214.28 273.181 1207.09 269.793 1207.09 269.793L1200.85 283.619C1200.85 283.619 1199.56 278.772 1197.27 280.064C1197.27 280.064 1191.4 269.374 1198.28 264.529Z" fill="#2F2E41"/>
<path d="M1314.9 359.077L1314.33 346.766L1308.54 341.383L1305.18 352.783L1286.42 381.412C1285.54 381.575 1284.71 382.025 1284.04 382.709C1283.37 383.393 1282.88 384.282 1282.64 385.272C1282.4 386.261 1282.41 387.31 1282.67 388.293C1282.93 389.276 1283.43 390.153 1284.12 390.819C1284.8 391.486 1285.64 391.914 1286.53 392.054C1287.42 392.194 1288.32 392.039 1289.14 391.608C1289.95 391.177 1290.65 390.488 1291.13 389.622C1291.61 388.756 1291.87 387.749 1291.87 386.722C1291.87 386.649 1291.86 386.579 1291.86 386.507L1314.9 359.077Z" fill="#FFB7B7"/>
<path d="M1326.05 514.237L1321.61 514.237L1319.5 494.657L1326.05 494.658L1326.05 514.237Z" fill="#FFB7B7"/>
<path d="M1327.18 519.158L1312.88 519.157V518.95C1312.88 517.261 1313.46 515.64 1314.51 514.446C1315.55 513.251 1316.97 512.58 1318.44 512.58L1327.18 512.58L1327.18 519.158Z" fill="#2F2E41"/>
<path d="M1346.68 514.237L1342.24 514.237L1340.13 494.657L1346.68 494.658L1346.68 514.237Z" fill="#FFB7B7"/>
<path d="M1347.81 519.158L1333.5 519.157V518.95C1333.5 517.261 1334.09 515.64 1335.13 514.446C1336.18 513.251 1337.59 512.58 1339.07 512.58L1347.81 512.58L1347.81 519.158Z" fill="#2F2E41"/>
<path d="M1341.99 307.647C1343.87 298.773 1345.46 288.765 1341.91 280.592C1339.46 274.921 1330.36 273.012 1325.15 275.055C1319.94 277.098 1316.17 282.64 1314.52 288.683C1312.86 294.727 1313.05 301.238 1313.77 307.521C1323.36 307.31 1332.94 307.099 1341.99 307.647Z" fill="#2F2E41"/>
<path d="M1331.17 306.077C1336.59 302.689 1338.58 294.918 1335.62 288.72C1332.66 282.522 1325.87 280.244 1320.45 283.632C1315.03 287.02 1313.04 294.791 1316 300.989C1318.96 307.187 1325.76 309.465 1331.17 306.077Z" fill="#FFB8B8"/>
<path d="M1339.48 292.22C1339.51 290.067 1339.17 287.929 1338.47 285.931C1337.77 283.933 1336.72 282.116 1335.39 280.59C1334.07 279.063 1332.49 277.857 1330.74 277.043C1329 276.23 1327.14 275.825 1325.25 275.853C1323.37 275.882 1321.52 276.343 1319.79 277.208C1318.07 278.074 1316.52 279.328 1315.23 280.894C1313.93 282.46 1312.93 284.307 1312.28 286.326C1311.62 288.344 1311.33 290.492 1311.41 292.643C1320.98 292.666 1330.55 292.69 1339.48 292.22Z" fill="#2F2E41"/>
<path d="M1307.86 371.911C1307.86 371.911 1306.04 402.141 1307.03 411.363C1308.02 420.585 1318.76 501.205 1318.76 501.205L1326.87 501.188L1329.28 406.183L1338.87 502.112L1347.25 501.114L1352.01 407.278C1352.01 407.278 1351.26 372.147 1345.2 368.625L1307.86 371.911Z" fill="#2F2E41"/>
<path d="M1320.58 401.878C1314.62 401.875 1308.75 400.249 1303.46 397.134L1303.34 397.066L1307.82 363.043L1307.53 322.494C1307.53 321.381 1307.71 320.277 1308.08 319.247C1308.45 318.217 1308.99 317.282 1309.68 316.495C1310.37 315.708 1311.19 315.086 1312.09 314.665C1312.99 314.245 1313.95 314.033 1314.93 314.043L1338.97 314.296C1340.04 314.307 1341.09 314.569 1342.06 315.065C1343.03 315.561 1343.91 316.28 1344.62 317.179C1345.34 318.077 1345.89 319.136 1346.24 320.288C1346.59 321.44 1346.72 322.661 1346.64 323.875L1344.39 356.383L1351.83 382.767L1350.53 384.735C1347.05 390.057 1342.52 394.377 1337.33 397.353C1332.13 400.328 1326.39 401.878 1320.58 401.878Z" fill="#3F3D56"/>
<path d="M1305.12 349.026L1307.64 319.607L1308.45 318.288C1309 317.385 1309.71 316.616 1310.52 316.026C1311.34 315.435 1312.25 315.035 1313.2 314.848C1314.15 314.66 1315.12 314.69 1316.06 314.934C1317 315.178 1317.89 315.633 1318.68 316.271L1319.37 316.835L1318.69 346.648L1305.12 349.026Z" fill="#3F3D56"/>
<path d="M1408.37 492.756C1414.88 490.697 1417.66 502.016 1411.16 504.14C1404.65 506.199 1401.87 494.881 1408.37 492.756Z" fill="#3F3D56"/>
<path d="M1372.25 507.324C1378.76 505.265 1381.54 516.583 1375.05 518.708C1368.53 520.767 1365.75 509.448 1372.25 507.324Z" fill="#3F3D56"/>
<path d="M1357.63 387.95L1357.73 387.918L1374.51 440.039L1376.72 439.328L1359.82 386.832C1359.79 386.023 1359.51 385.253 1359.04 384.649C1358.57 384.045 1357.93 383.644 1357.23 383.513C1348.84 381.994 1345.44 390.517 1345.44 390.517L1345.47 390.574L1362.63 443.862L1364.84 443.15L1348.19 391.43C1353.26 385.694 1357.63 387.95 1357.63 387.95Z" fill="#3F3D56"/>
<path d="M1376.86 510.256C1374.47 510.232 1372.14 509.334 1370.23 507.693C1368.31 506.052 1366.9 503.754 1366.2 501.133C1363 489.14 1355.45 460.405 1354.45 452.607C1353.14 442.453 1360.49 439.566 1360.65 439.504C1360.85 439.428 1363.8 438.482 1367.89 437.173C1374.84 434.948 1385.33 431.586 1385.72 431.388C1387.35 430.741 1389.07 430.485 1390.79 430.637C1392.51 430.788 1394.18 431.344 1395.7 432.27C1397.27 433.213 1398.65 434.511 1399.77 436.085C1400.88 437.659 1401.7 439.476 1402.19 441.426L1412.99 485.42C1413.66 488.117 1413.47 490.997 1412.47 493.551C1411.46 496.106 1409.69 498.171 1407.48 499.383C1399.15 503.967 1386.92 510.082 1377.03 510.254C1376.97 510.255 1376.92 510.256 1376.86 510.256Z" fill="#F24E1E"/>
<path d="M1355.85 386.147L1350.42 349.836L1349.81 337.581L1341.03 340.873L1348.43 388.42C1348.13 389.346 1348.06 390.347 1348.23 391.315C1348.39 392.284 1348.79 393.182 1349.37 393.911C1349.95 394.64 1350.69 395.172 1351.52 395.449C1352.35 395.727 1353.23 395.738 1354.06 395.483C1354.89 395.228 1355.65 394.715 1356.24 394.002C1356.84 393.288 1357.25 392.401 1357.44 391.437C1357.62 390.474 1357.57 389.47 1357.29 388.537C1357.01 387.604 1356.51 386.778 1355.85 386.147Z" fill="#FFB7B7"/>
<path d="M1351.9 347.558L1338.19 346.705L1334.97 317.11L1335.29 316.798C1336.06 316.032 1336.95 315.448 1337.92 315.08C1338.89 314.711 1339.92 314.565 1340.94 314.65C1341.96 314.736 1342.95 315.05 1343.86 315.577C1344.77 316.103 1345.59 316.83 1346.25 317.717L1346.89 318.56L1346.9 318.614L1351.9 347.558Z" fill="#3F3D56"/>
<path d="M1407.73 492.126L1393.71 437.863L1360.77 448.517L1360.57 447.721L1394.21 436.844L1394.31 437.237L1408.42 491.891L1407.73 492.126Z" fill="#3F3D56"/>
<path d="M1158.75 369.883L1157.26 332.659L1172.54 298.478L1173.18 298.855L1157.99 332.841L1159.47 369.845L1158.75 369.883Z" fill="#3F3D56"/>
<path d="M1439.64 520H1106.36C1106.27 520 1106.17 519.956 1106.11 519.879C1106.04 519.801 1106 519.696 1106 519.586C1106 519.476 1106.04 519.371 1106.11 519.293C1106.17 519.216 1106.27 519.172 1106.36 519.172H1439.64C1439.73 519.172 1439.83 519.216 1439.89 519.293C1439.96 519.371 1440 519.476 1440 519.586C1440 519.696 1439.96 519.801 1439.89 519.879C1439.83 519.956 1439.73 520 1439.64 520Z" fill="#CCCCCC"/>
<path d="M1182.27 359.178L1179.08 348.338L1178.31 312.205L1179.67 307.078C1180.16 305.233 1180.97 303.519 1182.05 302.04C1183.13 300.562 1184.46 299.348 1185.96 298.471C1187.46 297.595 1189.1 297.075 1190.78 296.941C1192.46 296.807 1194.15 297.063 1195.74 297.694C1197.33 298.324 1198.8 299.316 1200.05 300.609C1201.3 301.903 1202.31 303.472 1203.01 305.222C1203.72 306.972 1204.11 308.868 1204.16 310.795C1204.21 312.722 1203.92 314.641 1203.31 316.437L1196.04 337.763L1196.41 338.584L1212.16 338.438L1217.76 349.966L1182.27 359.178Z" fill="#3F3D56"/>
<path d="M1282.65 436.315L1282.64 436.318L1265.17 440.319L1250.15 447.242C1249.95 447.331 1249.75 447.376 1249.54 447.374C1249.33 447.371 1249.12 447.322 1248.93 447.228C1248.74 447.134 1248.56 446.998 1248.41 446.827C1248.27 446.656 1248.15 446.453 1248.07 446.231C1248.06 446.179 1248.04 446.125 1248.03 446.071L1237.05 404.02C1236.93 403.584 1236.97 403.115 1237.14 402.704C1237.31 402.294 1237.61 401.973 1237.98 401.805L1253.28 394.755L1253.29 394.753L1270.76 390.752L1285.78 383.829C1286.17 383.648 1286.61 383.653 1287 383.843C1287.39 384.033 1287.7 384.391 1287.86 384.84C1287.87 384.892 1287.89 384.945 1287.91 385L1298.88 427.051C1299 427.487 1298.96 427.956 1298.79 428.366C1298.62 428.776 1298.32 429.097 1297.95 429.266L1282.65 436.315Z" fill="#E5E5E5"/>
<path d="M1263.91 408.069C1259.9 406.452 1255.76 405.035 1251.61 403.858L1251.4 403.799L1253.51 411.888L1264.26 408.212L1263.91 408.069ZM1253.67 411.538L1251.75 404.19C1255.71 405.317 1259.65 406.662 1263.47 408.19L1253.67 411.538ZM1284.89 419.003C1283.03 417.797 1281.14 416.642 1279.22 415.538C1278.69 415.233 1278.16 414.932 1277.63 414.636C1274.38 412.829 1271.09 411.181 1267.74 409.692L1267.7 409.675L1254.14 414.308L1257.84 428.495L1285.15 419.165L1284.89 419.003ZM1258.01 428.146L1254.44 414.497L1267.69 409.971C1270.92 411.407 1274.11 412.998 1277.26 414.744C1277.81 415.047 1278.35 415.354 1278.9 415.666C1280.8 416.754 1282.67 417.894 1284.52 419.085L1258.01 428.146ZM1284.89 419.003C1283.03 417.797 1281.14 416.642 1279.22 415.538C1278.69 415.233 1278.16 414.932 1277.63 414.636C1274.38 412.829 1271.09 411.181 1267.74 409.692L1267.7 409.675L1254.14 414.308L1257.84 428.495L1285.15 419.165L1284.89 419.003ZM1258.01 428.146L1254.44 414.497L1267.69 409.971C1270.92 411.407 1274.11 412.998 1277.26 414.744C1277.81 415.047 1278.35 415.354 1278.9 415.666C1280.8 416.754 1282.67 417.894 1284.52 419.085L1258.01 428.146ZM1263.91 408.069C1259.9 406.452 1255.76 405.035 1251.61 403.858L1251.4 403.799L1253.51 411.888L1264.26 408.212L1263.91 408.069ZM1253.67 411.538L1251.75 404.19C1255.71 405.317 1259.65 406.662 1263.47 408.19L1253.67 411.538ZM1263.91 408.069C1259.9 406.452 1255.76 405.035 1251.61 403.858L1251.4 403.799L1253.51 411.888L1264.26 408.212L1263.91 408.069ZM1253.67 411.538L1251.75 404.19C1255.71 405.317 1259.65 406.662 1263.47 408.19L1253.67 411.538ZM1284.89 419.003C1283.03 417.797 1281.14 416.642 1279.22 415.538C1278.69 415.233 1278.16 414.932 1277.63 414.636C1274.38 412.829 1271.09 411.181 1267.74 409.692L1267.7 409.675L1254.14 414.308L1257.84 428.495L1285.15 419.165L1284.89 419.003ZM1258.01 428.146L1254.44 414.497L1267.69 409.971C1270.92 411.407 1274.11 412.998 1277.26 414.744C1277.81 415.047 1278.35 415.354 1278.9 415.666C1280.8 416.754 1282.67 417.894 1284.52 419.085L1258.01 428.146ZM1246.84 434.891L1246.91 435.16L1256.19 431.988L1257.21 435.888L1247.93 439.06L1248 439.329L1257.52 436.076L1256.36 431.639L1246.84 434.891ZM1260.26 437.774L1260.98 440.499L1261.2 440.394L1260.57 437.963L1296.77 425.593L1296.7 425.324L1260.26 437.774ZM1294.98 418.735L1294.91 418.466L1258.47 430.916L1259.63 435.354L1296.07 422.904L1296 422.635L1259.8 435.004L1258.78 431.104L1294.98 418.735ZM1267.92 406.67C1262.37 404.231 1256.67 402.268 1250.87 400.797L1250.16 398.074L1249.93 398.179L1250.65 400.924L1250.89 401.089C1256.67 402.558 1262.34 404.517 1267.87 406.949L1267.91 406.966L1289.94 399.438L1289.87 399.169L1267.92 406.67ZM1251.09 412.422L1241.8 415.594L1241.87 415.863L1251.39 412.611L1247.87 399.127L1247.64 399.232L1251.09 412.422ZM1290.57 401.859L1271.2 408.477L1271.52 408.628C1274.49 410.059 1277.45 411.64 1280.41 413.371C1280.83 413.617 1281.25 413.867 1281.67 414.12C1283.75 415.373 1285.82 416.696 1287.88 418.089L1288.11 418.154L1294.28 416.046L1294.21 415.777L1288.05 417.88C1286.02 416.5 1283.97 415.187 1281.9 413.941C1281.48 413.691 1281.07 413.444 1280.65 413.2C1277.76 411.5 1274.85 409.941 1271.93 408.522L1290.64 402.128L1290.57 401.859ZM1248.63 441.749L1248.7 442.018L1257.98 438.846L1258.69 441.552L1258.92 441.447L1258.15 438.497L1248.63 441.749ZM1242.51 418.284L1242.58 418.553L1251.86 415.38L1255.42 429.03L1246.14 432.202L1246.21 432.471L1255.73 429.218L1252.02 415.031L1242.51 418.284ZM1263.91 408.069C1259.9 406.452 1255.76 405.035 1251.61 403.858L1251.4 403.799L1253.51 411.888L1264.26 408.212L1263.91 408.069ZM1253.67 411.538L1251.75 404.19C1255.71 405.317 1259.65 406.662 1263.47 408.19L1253.67 411.538ZM1284.89 419.003C1283.03 417.797 1281.14 416.642 1279.22 415.538C1278.69 415.233 1278.16 414.932 1277.63 414.636C1274.38 412.829 1271.09 411.181 1267.74 409.692L1267.7 409.675L1254.14 414.308L1257.84 428.495L1285.15 419.165L1284.89 419.003ZM1258.01 428.146L1254.44 414.497L1267.69 409.971C1270.92 411.407 1274.11 412.998 1277.26 414.744C1277.81 415.047 1278.35 415.354 1278.9 415.666C1280.8 416.754 1282.67 417.894 1284.52 419.085L1258.01 428.146ZM1263.91 408.069C1259.9 406.452 1255.76 405.035 1251.61 403.858L1251.4 403.799L1253.51 411.888L1264.26 408.212L1263.91 408.069ZM1253.67 411.538L1251.75 404.19C1255.71 405.317 1259.65 406.662 1263.47 408.19L1253.67 411.538ZM1284.89 419.003C1283.03 417.797 1281.14 416.642 1279.22 415.538C1278.69 415.233 1278.16 414.932 1277.63 414.636C1274.38 412.829 1271.09 411.181 1267.74 409.692L1267.7 409.675L1254.14 414.308L1257.84 428.495L1285.15 419.165L1284.89 419.003ZM1258.01 428.146L1254.44 414.497L1267.69 409.971C1270.92 411.407 1274.11 412.998 1277.26 414.744C1277.81 415.047 1278.35 415.354 1278.9 415.666C1280.8 416.754 1282.67 417.894 1284.52 419.085L1258.01 428.146Z" fill="white"/>
<path d="M1267.03 409.335C1267.92 412.741 1264.51 422.17 1264.51 422.17C1264.51 422.17 1257.14 416.424 1256.25 413.019C1255.82 411.383 1255.98 409.621 1256.69 408.119C1257.4 406.617 1258.6 405.499 1260.03 405.01C1261.46 404.522 1263 404.703 1264.31 405.514C1265.62 406.325 1266.6 407.7 1267.03 409.335Z" fill="#F24E1E"/>
<path d="M1264.03 410.067C1264.18 410.625 1264.17 411.219 1264.02 411.775C1263.87 412.331 1263.58 412.824 1263.19 413.191C1262.8 413.558 1262.31 413.783 1261.81 413.838C1261.3 413.893 1260.79 413.774 1260.35 413.498C1259.9 413.221 1259.53 412.799 1259.29 412.285C1259.06 411.77 1258.96 411.187 1259.01 410.608C1259.06 410.029 1259.26 409.481 1259.59 409.033C1259.91 408.585 1260.34 408.256 1260.83 408.09C1261.16 407.979 1261.49 407.942 1261.83 407.982C1262.17 408.021 1262.49 408.136 1262.79 408.32C1263.09 408.503 1263.35 408.752 1263.56 409.052C1263.78 409.352 1263.93 409.697 1264.03 410.067Z" fill="white"/>
<path d="M1265.23 426.693C1266.07 426.693 1266.75 425.916 1266.75 424.958C1266.75 424 1266.07 423.223 1265.23 423.223C1264.4 423.223 1263.72 424 1263.72 424.958C1263.72 425.916 1264.4 426.693 1265.23 426.693Z" fill="#F24E1E"/>
<path d="M1281.78 402.148L1271.24 405.749C1271.23 405.753 1271.21 405.757 1271.2 405.759L1273.61 394.178C1273.62 394.107 1273.65 394.04 1273.7 393.986C1273.74 393.933 1273.8 393.893 1273.86 393.872C1273.92 393.851 1273.98 393.849 1274.05 393.866C1274.11 393.884 1274.17 393.92 1274.21 393.971L1279.29 399.456L1279.53 399.719L1281.78 402.148Z" fill="white"/>
<path opacity="0.2" d="M1281.78 402.148L1278.18 403.377L1279.18 399.839L1279.25 399.584L1279.29 399.456L1279.53 399.719L1281.78 402.148Z" fill="black"/>
<path d="M1287.65 400.143L1278.53 403.257L1279.53 399.719L1279.6 399.464L1280.91 394.852C1280.93 394.78 1280.97 394.715 1281.02 394.66C1281.07 394.606 1281.13 394.564 1281.19 394.538C1281.25 394.511 1281.32 394.5 1281.39 394.505C1281.46 394.511 1281.52 394.532 1281.59 394.569C1281.6 394.58 1281.62 394.592 1281.63 394.605L1287.65 400.143Z" fill="white"/>
</g>
<g clip-path="url(#clip1_49_391)">
<path d="M811.548 204.311C811.548 204.782 812.111 205.161 812.812 205.161H1029.77C1030.48 205.161 1031.04 204.782 1031.04 204.311C1031.04 203.84 1030.48 203.462 1029.77 203.462H812.812C812.111 203.462 811.548 203.84 811.548 204.311Z" fill="#3F3D56" fill-opacity="0.1"/>
<path d="M635.095 325.631L637.242 379.039H632.016V385.085H646.624V379.039H642.363L642.667 325.631H635.095Z" fill="#3F3D56"/>
<path d="M629.458 370.474C631.682 370.474 633.485 372.166 633.485 374.253V389.872C633.485 391.959 631.682 393.651 629.458 393.651C627.235 393.651 625.432 391.959 625.432 389.872V374.253C625.432 372.166 627.235 370.474 629.458 370.474Z" fill="#3F3D56"/>
<path d="M649.857 370.474C652.081 370.474 653.883 372.166 653.883 374.253V389.872C653.883 391.959 652.081 393.651 649.857 393.651C647.634 393.651 645.831 391.959 645.831 389.872V374.253C645.831 372.166 647.634 370.474 649.857 370.474Z" fill="#3F3D56"/>
<path d="M682.603 292.355L599.934 288.828L612.817 283.286L685.287 284.293L682.603 292.355Z" fill="#F24E1E"/>
<path d="M353 300.187L362.984 296.66L672.94 304.217L685.824 298.675L680.456 332.937L434.244 308.312L353 300.187Z" fill="#F24E1E"/>
<path d="M432.717 320.089L434.244 308.312L680.456 332.937L679.114 350.32L432.717 320.089Z" fill="#3F3D56"/>
<path d="M598.323 354.854C612.406 354.854 623.822 343.463 623.822 329.41C623.822 315.357 612.406 303.966 598.323 303.966C584.241 303.966 572.825 315.357 572.825 329.41C572.825 343.463 584.241 354.854 598.323 354.854Z" fill="#3F3D56"/>
<path d="M598.323 342.51C608.7 342.51 617.112 334.615 617.112 324.875C617.112 315.136 608.7 307.241 598.323 307.241C587.947 307.241 579.535 315.136 579.535 324.875C579.535 334.615 587.947 342.51 598.323 342.51Z" fill="#F24E1E"/>
<path d="M807.949 325.631L805.801 379.039H811.028V385.085H796.42V379.039H800.68L800.376 325.631H807.949Z" fill="#3F3D56"/>
<path d="M813.585 370.474H813.585C811.362 370.474 809.559 372.166 809.559 374.253V389.872C809.559 391.959 811.362 393.651 813.585 393.651H813.585C815.809 393.651 817.611 391.959 817.611 389.872V374.253C817.611 372.166 815.809 370.474 813.585 370.474Z" fill="#3F3D56"/>
<path d="M793.186 370.474H793.186C790.963 370.474 789.16 372.166 789.16 374.253V389.872C789.16 391.959 790.963 393.651 793.186 393.651H793.186C795.41 393.651 797.212 391.959 797.212 389.872V374.253C797.212 372.166 795.41 370.474 793.186 370.474Z" fill="#3F3D56"/>
<path d="M760.441 292.355L843.11 288.828L830.226 283.286L757.757 284.293L760.441 292.355Z" fill="#F24E1E"/>
<path d="M730.852 281.5L727.094 203.907L721.189 215.999L722.263 284.019L730.852 281.5Z" fill="#F24E1E"/>
<path d="M1090.04 300.187L1080.06 296.66L770.103 304.217L757.22 298.675L762.588 332.937L1008.8 308.312L1090.04 300.187Z" fill="#F24E1E"/>
<path d="M1010.33 320.089L1008.8 308.312L762.588 332.937L763.93 350.32L1010.33 320.089Z" fill="#3F3D56"/>
<path d="M844.72 354.854C858.803 354.854 870.219 343.463 870.219 329.41C870.219 315.357 858.803 303.966 844.72 303.966C830.638 303.966 819.222 315.357 819.222 329.41C819.222 343.463 830.638 354.854 844.72 354.854Z" fill="#3F3D56"/>
<path d="M844.72 342.51C855.097 342.51 863.509 334.615 863.509 324.875C863.509 315.136 855.097 307.241 844.72 307.241C834.344 307.241 825.932 315.136 825.932 324.875C825.932 334.615 834.344 342.51 844.72 342.51Z" fill="#F24E1E"/>
<path d="M768.359 282.69L767.14 291.117L766.507 336.484C766.458 339.86 766.024 343.195 765.208 346.43C762.856 355.852 757.365 364.423 749.254 370.635C741.894 376.278 731.855 380.551 718.569 379.795C683.14 377.78 680.01 349.478 680.01 349.478L681.347 298.156L681.529 291.117L683.14 278.417C683.14 278.417 687.434 242.644 727.158 243.651C766.883 244.659 768.359 282.69 768.359 282.69Z" fill="#F24E1E"/>
<path d="M691.729 270.859L699.781 258.767L709.98 255.744H744.873L753.462 258.767L761.257 270.859L747.02 264.813H707.085L691.729 270.859Z" fill="#E6E6E6"/>
<path d="M721.258 357.796L722.635 392.058H719.282V395.936H728.653V392.058H725.92L726.115 357.796H721.258Z" fill="#3F3D56"/>
<path d="M717.642 386.563C719.068 386.563 720.225 387.648 720.225 388.987V399.007C720.225 400.346 719.068 401.431 717.642 401.431C716.215 401.431 715.059 400.346 715.059 399.007V388.987C715.059 387.648 716.215 386.563 717.642 386.563Z" fill="#3F3D56"/>
<path d="M730.728 386.563C732.154 386.563 733.311 387.648 733.311 388.987V399.007C733.311 400.346 732.154 401.431 730.728 401.431C729.301 401.431 728.145 400.346 728.145 399.007V388.987C728.145 387.648 729.301 386.563 730.728 386.563Z" fill="#3F3D56"/>
<path d="M711.265 248.317L703.849 273.379L705.278 273.751L712.694 248.69L711.265 248.317Z" fill="#F24E1E"/>
<path d="M744.897 252.315L743.44 252.584L748.783 278.107L750.24 277.838L744.897 252.315Z" fill="#F24E1E"/>
<path d="M897.712 212.278C903.037 212.278 907.354 208.226 907.354 203.228C907.354 198.23 903.037 194.178 897.712 194.178C892.387 194.178 888.07 198.23 888.07 203.228C888.07 208.226 892.387 212.278 897.712 212.278Z" fill="#F24E1E"/>
<path d="M412.516 402.714C412.516 403.185 413.079 403.564 413.78 403.564H630.743C631.444 403.564 632.007 403.185 632.007 402.714C632.007 402.243 631.444 401.865 630.743 401.865H413.78C413.079 401.865 412.516 402.243 412.516 402.714Z" fill="#3F3D56" fill-opacity="0.1"/>
<path d="M498.681 410.681C504.006 410.681 508.323 406.629 508.323 401.631C508.323 396.633 504.006 392.581 498.681 392.581C493.356 392.581 489.039 396.633 489.039 401.631C489.039 406.629 493.356 410.681 498.681 410.681Z" fill="#F24E1E"/>
</g>
<g clip-path="url(#clip2_49_391)">
<path d="M200.181 385.845C207.697 385.845 213.789 379.128 213.789 370.841C213.789 362.554 207.697 355.837 200.181 355.837C192.666 355.837 186.573 362.554 186.573 370.841C186.573 379.128 192.666 385.845 200.181 385.845Z" fill="#E6E6E6"/>
<path d="M233.533 390.122L219.312 374.443C220.402 372.573 221.14 370.481 221.484 368.291C221.827 366.101 221.769 363.858 221.311 361.693C220.854 359.529 220.007 357.487 218.821 355.69C217.636 353.893 216.135 352.377 214.407 351.231C211.155 349.089 207.292 348.371 203.583 349.221C199.873 350.071 196.589 352.425 194.379 355.818C192.346 358.961 191.37 362.787 191.618 366.638C191.866 370.488 193.323 374.124 195.739 376.918C198.154 379.713 201.377 381.493 204.854 381.951C208.33 382.409 211.843 381.518 214.788 379.43L229.009 395.11C229.609 395.771 230.422 396.142 231.27 396.142C232.118 396.142 232.932 395.77 233.531 395.109C234.131 394.448 234.468 393.551 234.468 392.616C234.468 391.681 234.132 390.784 233.533 390.122ZM214.257 373.857C212.495 375.8 210.176 377.009 207.696 377.279C205.216 377.548 202.728 376.861 200.656 375.334C198.584 373.808 197.057 371.537 196.333 368.907C195.61 366.278 195.736 363.453 196.689 360.915C197.643 358.376 199.365 356.281 201.563 354.986C203.761 353.691 206.298 353.276 208.742 353.812C211.186 354.348 213.386 355.802 214.967 357.925C216.548 360.049 217.412 362.712 217.412 365.46C217.413 367.02 217.136 368.564 216.594 370.006C216.053 371.447 215.259 372.756 214.257 373.857Z" fill="#3F3D56"/>
<path d="M336.618 413.251C372.986 457.596 267.561 521.505 182.375 521.505C97.1882 521.505 38.2525 471.987 28.131 413.251C3.58966 270.836 237.229 180.317 182.375 304.997C102.418 486.733 307.977 378.328 336.618 413.251Z" fill="#E6E6E6"/>
<path d="M320.3 423.746C356.669 468.092 251.243 532 166.057 532C80.8704 532 21.9348 482.482 11.8132 423.746C-12.7281 281.331 220.911 190.813 166.057 315.492C86.1005 497.228 291.659 388.823 320.3 423.746Z" fill="#3F3D56"/>
<path d="M60.855 319.776C35.3355 318.537 15.5489 312.468 15.8089 305.958C15.9647 302.055 23.187 298.917 35.6237 297.348C35.6682 297.342 35.7133 297.346 35.7565 297.36C35.7996 297.373 35.84 297.396 35.8752 297.426C35.9104 297.457 35.9397 297.495 35.9615 297.538C35.9834 297.581 35.9972 297.629 36.0023 297.678C36.0074 297.727 36.0036 297.777 35.9912 297.824C35.9788 297.872 35.958 297.916 35.93 297.955C35.902 297.993 35.8673 298.025 35.828 298.049C35.7887 298.073 35.7455 298.088 35.7009 298.093C23.9855 299.571 16.6236 302.597 16.4881 305.991C16.253 311.878 36.5842 317.847 60.8849 319.027C85.1855 320.207 105.914 316.23 106.149 310.344C106.285 306.936 99.147 303.198 87.5203 300.588C87.4764 300.578 87.4347 300.559 87.3976 300.531C87.3605 300.504 87.3286 300.469 87.3039 300.427C87.2791 300.386 87.262 300.34 87.2534 300.292C87.2449 300.243 87.2451 300.194 87.254 300.145C87.2629 300.097 87.2804 300.051 87.3055 300.01C87.3305 299.969 87.3626 299.934 87.4 299.907C87.4373 299.88 87.4791 299.861 87.523 299.852C87.567 299.843 87.6121 299.843 87.6559 299.853C99.9966 302.623 106.985 306.459 106.828 310.377C106.568 316.886 86.3744 321.015 60.855 319.776Z" fill="#F24E1E"/>
<path d="M38.1899 320.866C40.3248 325.338 43.4872 329.113 47.3608 331.813C51.2345 334.514 55.6834 336.046 60.2626 336.256C64.8417 336.465 69.3905 335.345 73.4538 333.008C77.517 330.67 80.9523 327.197 83.4159 322.936C68.3176 323.16 53.2195 322.469 38.1899 320.866Z" fill="#F24E1E"/>
<path d="M86.2389 315.051C87.5237 310.802 87.8939 306.282 87.3202 301.847C86.7465 297.413 85.2447 293.187 82.9335 289.504C80.6224 285.82 77.5654 282.78 74.0045 280.625C70.4436 278.469 66.4765 277.257 62.4172 277.084C58.3579 276.911 54.3179 277.782 50.6168 279.629C46.9157 281.475 43.6552 284.246 41.0933 287.722C38.5314 291.198 36.7385 295.284 35.8563 299.656C34.9742 304.028 35.0271 308.567 36.0109 312.913C52.5992 316.017 69.4828 316.736 86.2389 315.051Z" fill="#F24E1E"/>
<path d="M67.3955 295.703C69.0853 295.703 70.4551 294.192 70.4551 292.329C70.4551 290.466 69.0853 288.956 67.3955 288.956C65.7058 288.956 64.3359 290.466 64.3359 292.329C64.3359 294.192 65.7058 295.703 67.3955 295.703Z" fill="white"/>
<path d="M51.6489 308.818C54.4651 308.818 56.7482 306.301 56.7482 303.196C56.7482 300.09 54.4651 297.573 51.6489 297.573C48.8326 297.573 46.5496 300.09 46.5496 303.196C46.5496 306.301 48.8326 308.818 51.6489 308.818Z" fill="white"/>
<path d="M128.611 303.311C130.489 303.311 132.011 301.632 132.011 299.562C132.011 297.492 130.489 295.814 128.611 295.814C126.734 295.814 125.212 297.492 125.212 299.562C125.212 301.632 126.734 303.311 128.611 303.311Z" fill="#F24E1E"/>
<path d="M51.7819 418.008C52.9085 418.008 53.8217 417.002 53.8217 415.759C53.8217 414.517 52.9085 413.51 51.7819 413.51C50.6554 413.51 49.7422 414.517 49.7422 415.759C49.7422 417.002 50.6554 418.008 51.7819 418.008Z" fill="#E6E6E6"/>
<path d="M194.562 495.223C195.689 495.223 196.602 494.216 196.602 492.974C196.602 491.732 195.689 490.725 194.562 490.725C193.436 490.725 192.523 491.732 192.523 492.974C192.523 494.216 193.436 495.223 194.562 495.223Z" fill="#E6E6E6"/>
<path d="M61.6405 374.528C62.2038 374.528 62.6604 374.025 62.6604 373.404C62.6604 372.783 62.2038 372.279 61.6405 372.279C61.0773 372.279 60.6207 372.783 60.6207 373.404C60.6207 374.025 61.0773 374.528 61.6405 374.528Z" fill="#E6E6E6"/>
<path d="M145.949 458.49C146.512 458.49 146.969 457.987 146.969 457.365C146.969 456.744 146.512 456.241 145.949 456.241C145.386 456.241 144.929 456.744 144.929 457.365C144.929 457.987 145.386 458.49 145.949 458.49Z" fill="#E6E6E6"/>
<path d="M299.268 447.62C299.831 447.62 300.288 447.117 300.288 446.495C300.288 445.874 299.831 445.371 299.268 445.371C298.705 445.371 298.248 445.874 298.248 446.495C298.248 447.117 298.705 447.62 299.268 447.62Z" fill="#E6E6E6"/>
<path d="M251.335 480.98C251.898 480.98 252.355 480.476 252.355 479.855C252.355 479.234 251.898 478.731 251.335 478.731C250.771 478.731 250.315 479.234 250.315 479.855C250.315 480.476 250.771 480.98 251.335 480.98Z" fill="#E6E6E6"/>
<path d="M201.361 440.498C201.925 440.498 202.381 439.995 202.381 439.374C202.381 438.753 201.925 438.249 201.361 438.249C200.798 438.249 200.342 438.753 200.342 439.374C200.342 439.995 200.798 440.498 201.361 440.498Z" fill="#E6E6E6"/>
<path d="M136.77 329.549C137.334 329.549 137.79 329.045 137.79 328.424C137.79 327.803 137.334 327.3 136.77 327.3C136.207 327.3 135.75 327.803 135.75 328.424C135.75 329.045 136.207 329.549 136.77 329.549Z" fill="#E6E6E6"/>
<path d="M144.929 274.074C145.492 274.074 145.949 273.571 145.949 272.949C145.949 272.328 145.492 271.825 144.929 271.825C144.366 271.825 143.909 272.328 143.909 272.949C143.909 273.571 144.366 274.074 144.929 274.074Z" fill="#E6E6E6"/>
<path d="M140.17 507.593C140.733 507.593 141.19 507.089 141.19 506.468C141.19 505.847 140.733 505.344 140.17 505.344C139.607 505.344 139.15 505.847 139.15 506.468C139.15 507.089 139.607 507.593 140.17 507.593Z" fill="#E6E6E6"/>
<path d="M89.8567 483.978C90.4199 483.978 90.8766 483.475 90.8766 482.854C90.8766 482.233 90.4199 481.729 89.8567 481.729C89.2934 481.729 88.8368 482.233 88.8368 482.854C88.8368 483.475 89.2934 483.978 89.8567 483.978Z" fill="#E6E6E6"/>
<path d="M249.295 443.497C249.858 443.497 250.315 442.993 250.315 442.372C250.315 441.751 249.858 441.248 249.295 441.248C248.732 441.248 248.275 441.751 248.275 442.372C248.275 442.993 248.732 443.497 249.295 443.497Z" fill="#E6E6E6"/>
<path d="M60.4401 333.635C62.1299 333.635 63.4997 332.124 63.4997 330.261C63.4997 328.398 62.1299 326.888 60.4401 326.888C58.7504 326.888 57.3806 328.398 57.3806 330.261C57.3806 332.124 58.7504 333.635 60.4401 333.635Z" fill="white"/>
<path d="M129.631 382.025C129.631 392.1 115.503 415.578 111.374 422.224C111.25 422.425 111.082 422.589 110.887 422.703C110.692 422.816 110.475 422.876 110.254 422.876C110.033 422.876 109.816 422.816 109.621 422.703C109.425 422.589 109.258 422.425 109.134 422.224C105.005 415.578 90.8766 392.1 90.8766 382.025C90.8766 379.219 91.3778 376.441 92.3516 373.849C93.3254 371.257 94.7527 368.901 96.5521 366.917C98.3514 364.933 100.488 363.36 102.839 362.286C105.19 361.212 107.709 360.66 110.254 360.66C112.799 360.66 115.318 361.212 117.669 362.286C120.02 363.36 122.156 364.933 123.956 366.917C125.755 368.901 127.182 371.257 128.156 373.849C129.13 376.441 129.631 379.219 129.631 382.025Z" fill="white"/>
<path d="M110.254 391.396C115.699 391.396 120.113 386.529 120.113 380.526C120.113 374.522 115.699 369.655 110.254 369.655C104.809 369.655 100.395 374.522 100.395 380.526C100.395 386.529 104.809 391.396 110.254 391.396Z" fill="#F24E1E"/>
<path d="M110.084 434.501C116.374 434.501 121.472 433.41 121.472 432.065C121.472 430.719 116.374 429.628 110.084 429.628C103.794 429.628 98.6955 430.719 98.6955 432.065C98.6955 433.41 103.794 434.501 110.084 434.501Z" fill="white"/>
<path d="M287.692 365.166C287.606 365.35 287.533 365.541 287.474 365.738L271.23 370.715L268.303 367.556L263.402 371.804L268.092 377.951C268.47 378.448 268.985 378.796 269.558 378.942C270.132 379.089 270.733 379.026 271.271 378.764L288.818 370.224C289.414 370.68 290.121 370.924 290.845 370.926C291.57 370.928 292.278 370.686 292.875 370.234C293.472 369.781 293.93 369.139 294.188 368.392C294.446 367.645 294.491 366.83 294.319 366.054C294.146 365.278 293.763 364.578 293.221 364.048C292.679 363.518 292.003 363.182 291.284 363.086C290.564 362.989 289.835 363.137 289.194 363.508C288.552 363.88 288.028 364.458 287.692 365.166Z" fill="#FFB8B8"/>
<path d="M270.658 371.007L264.561 376.239C264.387 376.388 264.187 376.494 263.973 376.55C263.759 376.605 263.536 376.61 263.321 376.562C263.105 376.514 262.902 376.416 262.724 376.274C262.546 376.132 262.397 375.949 262.289 375.738L258.5 368.344C257.814 367.361 257.509 366.118 257.653 364.888C257.797 363.658 258.378 362.541 259.267 361.782C260.157 361.023 261.283 360.684 262.399 360.839C263.515 360.995 264.53 361.632 265.221 362.611L270.775 368.456C270.934 368.623 271.058 368.826 271.139 369.052C271.221 369.277 271.257 369.519 271.246 369.761C271.235 370.003 271.177 370.239 271.075 370.454C270.974 370.669 270.831 370.858 270.658 371.007Z" fill="#F24E1E"/>
<path d="M289.25 362.691L295.433 365.758C295.692 365.886 295.894 366.123 295.995 366.416C296.095 366.708 296.086 367.033 295.97 367.319L295.238 369.113C295.324 369.156 295.391 369.235 295.425 369.332C295.458 369.429 295.455 369.538 295.417 369.633L295.124 370.35C295.085 370.445 295.013 370.519 294.925 370.556C294.837 370.593 294.739 370.59 294.652 370.548L294.359 371.265C294.445 371.309 294.513 371.387 294.546 371.485C294.58 371.582 294.577 371.69 294.538 371.786L294.246 372.503C294.207 372.598 294.135 372.672 294.047 372.709C293.958 372.746 293.86 372.743 293.774 372.701L289.821 382.389C289.704 382.674 289.49 382.897 289.224 383.008C288.959 383.119 288.664 383.109 288.405 382.981L282.222 379.914C281.963 379.785 281.761 379.549 281.66 379.256C281.56 378.963 281.569 378.638 281.685 378.353L287.834 363.283C287.951 362.997 288.165 362.774 288.431 362.663C288.696 362.552 288.991 362.562 289.25 362.691Z" fill="#3F3D56"/>
<path d="M283.345 378.959L288.305 381.422C288.553 381.545 288.836 381.554 289.091 381.448C289.345 381.341 289.552 381.129 289.664 380.855L291.955 375.237L292.751 373.289L294.824 368.206C294.935 367.932 294.943 367.622 294.847 367.342C294.751 367.061 294.558 366.835 294.311 366.711L292.751 365.936L289.347 364.248C289.098 364.125 288.816 364.117 288.562 364.224C288.308 364.331 288.102 364.544 287.991 364.818L285.985 369.733L283.702 375.327L282.831 377.464C282.72 377.737 282.711 378.048 282.808 378.328C282.904 378.609 283.097 378.835 283.345 378.959Z" fill="#F2F2F2"/>
<path d="M272.98 448.574L277.148 448.573L279.131 430.849L272.979 430.849L272.98 448.574Z" fill="#FFB8B8"/>
<path d="M271.917 447.073L280.125 447.073C280.812 447.073 281.492 447.222 282.127 447.512C282.762 447.802 283.338 448.227 283.824 448.762C284.31 449.298 284.695 449.934 284.958 450.633C285.221 451.333 285.356 452.083 285.356 452.84V453.028L271.917 453.028L271.917 447.073Z" fill="#2F2E41"/>
<path d="M283.859 447.449L288.027 447.449L290.009 429.724L283.858 429.724L283.859 447.449Z" fill="#FFB8B8"/>
<path d="M282.796 445.949L291.004 445.949C291.69 445.949 292.371 446.098 293.006 446.388C293.64 446.677 294.217 447.102 294.703 447.638C295.188 448.173 295.574 448.809 295.836 449.509C296.099 450.209 296.235 450.959 296.235 451.716V451.903L282.796 451.904L282.796 445.949Z" fill="#2F2E41"/>
<path d="M254.286 406.981C255.173 409.883 256.858 412.409 259.105 414.21C261.353 416.01 264.052 416.996 266.83 417.03L267.041 417.034C269.192 417.101 271.718 416.337 274.197 415.238C279.092 413.068 283.793 409.594 285.041 408.638L282.927 431.049L282.07 440.135C282.048 440.37 282.072 440.607 282.138 440.832C282.205 441.056 282.313 441.263 282.457 441.438C282.6 441.614 282.775 441.754 282.971 441.851C283.167 441.947 283.379 441.997 283.593 441.998H288.872C289.211 441.998 289.54 441.874 289.808 441.646C290.076 441.419 290.268 441.099 290.354 440.738L299.071 404.136C299.332 403.04 299.353 401.892 299.132 400.786C298.911 399.679 298.454 398.647 297.799 397.774C297.145 396.901 296.311 396.213 295.367 395.766C294.423 395.319 293.395 395.126 292.37 395.204L274.265 396.572L275.529 390.995L259.368 389.81L259.32 389.848C258.933 390.159 258.555 390.485 258.195 390.826C257.294 391.666 256.495 392.631 255.819 393.697C254.608 395.61 253.836 397.817 253.569 400.131C253.302 402.445 253.548 404.795 254.286 406.981Z" fill="#2F2E41"/>
<path d="M254.285 406.981C255.173 409.883 256.858 412.409 259.105 414.21C261.353 416.01 264.052 416.996 266.83 417.03C269.486 415.548 272.049 413.871 274.502 412.011L274.197 415.238L271.531 443.508C271.51 443.743 271.533 443.981 271.6 444.205C271.666 444.43 271.775 444.636 271.918 444.812C272.062 444.987 272.237 445.128 272.433 445.224C272.628 445.32 272.84 445.37 273.054 445.371H278.334C278.672 445.371 279.001 445.248 279.27 445.02C279.538 444.792 279.73 444.473 279.816 444.112L282.927 431.049L288.532 407.509C288.794 406.414 288.815 405.265 288.594 404.159C288.373 403.053 287.916 402.021 287.261 401.148C286.606 400.275 285.772 399.586 284.828 399.139C283.884 398.692 282.857 398.5 281.832 398.577L263.726 399.945L264.991 394.368L255.819 393.697C254.608 395.61 253.836 397.817 253.569 400.131C253.302 402.445 253.548 404.795 254.285 406.981Z" fill="#2F2E41"/>
<path d="M258.172 392.119L258.05 392.103L255.23 376.815C255.206 376.683 252.901 363.496 259.968 356.603L260.091 355.659C260.123 355.418 260.201 355.187 260.322 354.982C260.442 354.778 260.601 354.604 260.788 354.474C260.975 354.343 261.186 354.259 261.405 354.227C261.624 354.195 261.847 354.216 262.059 354.288L268.716 356.565C269.093 356.693 269.411 356.977 269.602 357.358C269.793 357.738 269.844 358.185 269.743 358.605L269.096 361.32C269.993 362.482 280.557 376.505 276.877 387.309L275.229 394.412L258.172 392.119Z" fill="#F24E1E"/>
<path d="M285.817 380.188C285.658 380.298 285.507 380.422 285.365 380.559L269.082 375.739L268.018 371.379L261.839 372.29L263.043 380.212C263.14 380.852 263.423 381.439 263.849 381.887C264.276 382.335 264.822 382.618 265.406 382.694L284.455 385.175C284.757 385.901 285.253 386.508 285.876 386.916C286.499 387.324 287.22 387.512 287.943 387.457C288.666 387.402 289.357 387.106 289.923 386.607C290.49 386.109 290.905 385.432 291.114 384.667C291.323 383.902 291.316 383.085 291.093 382.324C290.871 381.564 290.444 380.896 289.869 380.41C289.294 379.924 288.598 379.642 287.874 379.602C287.151 379.563 286.433 379.767 285.817 380.188Z" fill="#FFB8B8"/>
<path d="M268.455 375.67L260.792 376.758C260.574 376.789 260.352 376.768 260.142 376.696C259.933 376.624 259.739 376.503 259.575 376.341C259.412 376.179 259.282 375.981 259.194 375.758C259.106 375.536 259.063 375.296 259.067 375.053L259.213 366.562C259.076 365.331 259.387 364.09 260.078 363.111C260.769 362.133 261.783 361.496 262.899 361.342C264.015 361.187 265.142 361.526 266.031 362.285C266.92 363.045 267.5 364.162 267.644 365.392L269.732 373.539C269.791 373.772 269.805 374.017 269.771 374.256C269.737 374.496 269.657 374.724 269.536 374.927C269.415 375.129 269.255 375.3 269.069 375.428C268.882 375.556 268.673 375.639 268.455 375.67Z" fill="#F24E1E"/>
<path d="M266.298 352.213C270.909 352.213 274.648 348.092 274.648 343.007C274.648 337.923 270.909 333.801 266.298 333.801C261.687 333.801 257.948 337.923 257.948 343.007C257.948 348.092 261.687 352.213 266.298 352.213Z" fill="#FFB8B8"/>
<path d="M265.859 343.776L264.813 341.677C262.833 350.573 266.331 357.935 266.331 357.935L252.756 350.963L252.885 348.489L251.542 350.169L249.612 348.997L249.357 347.392L247.9 347.79L253.218 337.15C258.379 327.024 265.883 330.89 265.883 330.89C277.82 330.264 276.363 343.25 276.363 343.25L265.859 343.776Z" fill="#2F2E41"/>
<path d="M170.812 412.382C172.737 411.021 170.396 403.207 165.583 394.929C160.77 386.651 155.307 381.043 153.382 382.404C151.457 383.765 153.798 391.579 158.611 399.857C163.424 408.135 168.887 413.742 170.812 412.382Z" fill="#3F3D56"/>
</g>
<defs>
<clipPath id="clip0_49_391">
<rect width="334" height="264" fill="white" transform="translate(1106 256)"/>
</clipPath>
<clipPath id="clip1_49_391">
<rect width="737.044" height="294" fill="white" transform="translate(353 131)"/>
</clipPath>
<clipPath id="clip2_49_391">
<rect width="334" height="286" fill="white" transform="translate(10 246)"/>
</clipPath>
</defs>
</svg>
