<svg width="600" height="400" viewBox="50 0 765 588" fill="none" xmlns="http://www.w3.org/2000/svg">
<g clip-path="url(#clip0_15_685)">
<path d="M760.693 546.419C760.607 546.66 760.435 546.855 760.213 546.962C759.991 547.07 759.738 547.08 759.51 546.991L28.3297 259.565C28.1015 259.475 27.9166 259.293 27.8154 259.058C27.7143 258.824 27.7052 258.557 27.7902 258.316C27.8752 258.075 28.0472 257.879 28.2687 257.772C28.4901 257.664 28.7428 257.654 28.9713 257.743L760.151 545.169C760.38 545.259 760.565 545.442 760.666 545.676C760.767 545.91 760.777 546.177 760.693 546.419Z" fill="#F2F2F2"/>
<path d="M371.198 0H196.969C183.302 0.0163372 170.199 5.7592 160.534 15.9687C150.87 26.1781 145.434 40.0204 145.418 54.4588V71.0955C145.061 70.9916 144.685 70.9768 144.321 71.0525C143.957 71.1282 143.615 71.2922 143.322 71.5315C143.028 71.7709 142.791 72.0791 142.629 72.4318C142.468 72.7845 142.386 73.1721 142.391 73.5638V86.3575C142.386 86.7493 142.468 87.1369 142.629 87.4896C142.791 87.8423 143.028 88.1504 143.322 88.3898C143.615 88.6292 143.957 88.7932 144.321 88.8689C144.685 88.9445 145.061 88.9298 145.418 88.8258V108.197C145.061 108.093 144.685 108.079 144.321 108.154C143.957 108.23 143.615 108.394 143.322 108.633C143.028 108.873 142.791 109.181 142.629 109.534C142.468 109.886 142.386 110.274 142.391 110.666V142.65C142.386 143.042 142.468 143.429 142.629 143.782C142.791 144.135 143.028 144.443 143.322 144.682C143.615 144.922 143.957 145.086 144.321 145.161C144.685 145.237 145.061 145.222 145.418 145.118V156.813C145.061 156.709 144.685 156.695 144.321 156.77C143.957 156.846 143.615 157.01 143.322 157.249C143.028 157.489 142.791 157.797 142.629 158.15C142.468 158.502 142.386 158.89 142.391 159.282V191.266C142.386 191.658 142.468 192.045 142.629 192.398C142.791 192.751 143.028 193.059 143.322 193.298C143.615 193.538 143.957 193.702 144.321 193.777C144.685 193.853 145.061 193.838 145.418 193.734V531.493C145.434 545.931 150.87 559.773 160.534 569.983C170.199 580.192 183.302 585.935 196.969 585.951H371.198C384.866 585.935 397.969 580.192 407.633 569.983C417.297 559.773 422.733 545.931 422.749 531.493V54.4588C422.733 40.0204 417.297 26.1781 407.633 15.9687C397.969 5.7592 384.866 0.0163372 371.198 0ZM411.849 531.493C411.837 542.878 407.551 553.794 399.93 561.845C392.309 569.896 381.976 574.424 371.198 574.437H196.969C186.191 574.424 175.859 569.896 168.238 561.845C160.617 553.794 156.33 542.878 156.318 531.493V54.4588C156.33 43.0732 160.617 32.1576 168.238 24.1067C175.859 16.0559 186.191 11.5273 196.969 11.5143H371.198C381.976 11.5272 392.309 16.0559 399.93 24.1067C407.551 32.1576 411.837 43.0732 411.849 54.4588V531.493Z" fill="#3F3D56"/>
<path d="M371.198 580.834H196.969C184.586 580.819 172.714 575.616 163.958 566.366C155.202 557.116 150.277 544.574 150.263 531.493V54.4588C150.277 41.3772 155.202 28.8357 163.958 19.5856C172.714 10.3355 184.586 5.13232 196.969 5.11748H371.198C383.581 5.13232 395.453 10.3355 404.209 19.5856C412.965 28.8357 417.891 41.3772 417.905 54.4588V531.493C417.891 544.574 412.965 557.116 404.209 566.366C395.453 575.616 383.581 580.819 371.198 580.834Z" fill="#E6E6E6"/>
<path d="M375.504 573.158H192.664C184.312 573.148 176.305 569.639 170.399 563.4C164.494 557.161 161.172 548.702 161.162 539.879V46.0723C161.172 37.2494 164.494 28.7906 170.399 22.5518C176.305 16.313 184.312 12.8037 192.664 12.7937H216.508C217.888 12.7954 219.212 13.3754 220.188 14.4066C221.164 15.4378 221.713 16.8358 221.715 18.2941C221.719 22.6021 223.341 26.7323 226.225 29.7785C229.108 32.8247 233.018 34.5382 237.096 34.543H328.649C332.727 34.5382 336.637 32.8247 339.521 29.7785C342.404 26.7323 344.026 22.6021 344.031 18.2941C344.032 16.8358 344.581 15.4377 345.557 14.4066C346.533 13.3754 347.857 12.7953 349.237 12.7937H375.504C383.855 12.8037 391.862 16.313 397.768 22.5518C403.674 28.7906 406.996 37.2493 407.005 46.0723V539.879C406.996 548.702 403.674 557.161 397.768 563.4C391.863 569.639 383.856 573.148 375.504 573.158Z" fill="white"/>
<path d="M291.955 23.9882H270.156C269.514 23.9882 268.898 23.7186 268.444 23.2388C267.99 22.7589 267.734 22.1081 267.734 21.4295C267.734 20.7508 267.99 20.1 268.444 19.6201C268.898 19.1403 269.514 18.8707 270.156 18.8707H291.955C292.598 18.8707 293.214 19.1403 293.668 19.6201C294.122 20.1 294.377 20.7508 294.377 21.4295C294.377 22.1081 294.122 22.7589 293.668 23.2388C293.214 23.7186 292.598 23.9882 291.955 23.9882Z" fill="white"/>
<path d="M307.094 23.3485C307.763 23.3485 308.305 22.7757 308.305 22.0691C308.305 21.3626 307.763 20.7898 307.094 20.7898C306.425 20.7898 305.883 21.3626 305.883 22.0691C305.883 22.7757 306.425 23.3485 307.094 23.3485Z" fill="white"/>
<path d="M412.896 112.74H155.031V115.656H412.896V112.74Z" fill="#E6E6E6"/>
<path d="M412.896 171.055H155.031V173.97H412.896V171.055Z" fill="#E6E6E6"/>
<path d="M412.896 291.57H155.031V294.486H412.896V291.57Z" fill="#E6E6E6"/>
<path d="M412.896 412.086H155.031V415.002H412.896V412.086Z" fill="#E6E6E6"/>
<path d="M412.896 506.36H155.031V509.276H412.896V506.36Z" fill="#E6E6E6"/>
<path d="M342.298 114.198H339.538V293.028H342.298V114.198Z" fill="#E6E6E6"/>
<path d="M213.208 292.976H210.448V507.818H213.208V292.976Z" fill="#E6E6E6"/>
<path d="M407.005 351.908H211.828V354.824H407.005V351.908Z" fill="#E6E6E6"/>
<path d="M342.595 507.818H339.835V573.158H342.595V507.818Z" fill="#E6E6E6"/>
<path d="M340.458 232.506H160.702V235.422H340.458V232.506Z" fill="#E6E6E6"/>
<path d="M198.242 10.9514L195.696 12.0771L236.374 114.761L238.92 113.636L198.242 10.9514Z" fill="#E6E6E6"/>
<path d="M323.522 34.5428H320.762V114.198H323.522V34.5428Z" fill="#E6E6E6"/>
<path d="M394.691 158.42C394.691 184.545 356.456 245.421 345.282 262.653C344.945 263.174 344.493 263.6 343.965 263.895C343.436 264.189 342.848 264.343 342.251 264.343C341.653 264.343 341.065 264.189 340.537 263.895C340.008 263.6 339.556 263.174 339.219 262.653C328.045 245.421 289.811 184.545 289.811 158.42C289.811 143.727 295.335 129.636 305.17 119.247C315.004 108.858 328.343 103.021 342.251 103.021C356.158 103.021 369.497 108.858 379.331 119.247C389.166 129.636 394.691 143.727 394.691 158.42Z" fill="#F24E1E"/>
<path d="M342.251 182.717C356.986 182.717 368.931 170.098 368.931 154.532C368.931 138.966 356.986 126.347 342.251 126.347C327.516 126.347 315.571 138.966 315.571 154.532C315.571 170.098 327.516 182.717 342.251 182.717Z" fill="white"/>
<path d="M340.503 293.866L239.463 507.133L241.931 508.438L342.971 295.171L340.503 293.866Z" fill="#E6E6E6"/>
<path d="M486.018 340.778C487.209 341.454 488.526 341.847 489.877 341.927C491.227 342.008 492.578 341.775 493.833 341.244C495.089 340.713 496.219 339.899 497.145 338.857C498.07 337.815 498.768 336.571 499.189 335.213L532.061 334.613L522.41 319.72L492.675 322.573C490.469 321.977 488.132 322.256 486.108 323.358C484.084 324.46 482.513 326.308 481.692 328.552C480.872 330.796 480.859 333.28 481.656 335.533C482.453 337.786 484.005 339.652 486.018 340.778Z" fill="#9F616A"/>
<path d="M505.751 340.344C505.241 340.344 504.737 340.235 504.269 340.024C503.8 339.812 503.377 339.503 503.025 339.114C502.673 338.725 502.399 338.265 502.219 337.761C502.04 337.258 501.959 336.721 501.981 336.183L502.645 320.26C502.681 319.312 503.038 318.408 503.651 317.714C504.263 317.02 505.091 316.581 505.984 316.477L544.064 311.863L542.788 338.398L505.937 340.338C505.875 340.342 505.813 340.344 505.751 340.344Z" fill="#F24E1E"/>
<path d="M552.128 558.605L541.407 562.304L522.798 520.376L538.622 514.917L552.128 558.605Z" fill="#9F616A"/>
<path d="M558.257 568.64L523.686 580.568L523.543 580.106C522.966 578.24 522.743 576.271 522.886 574.313C523.029 572.355 523.535 570.446 524.377 568.695C525.218 566.944 526.378 565.385 527.789 564.107C529.201 562.83 530.837 561.858 532.604 561.248L553.72 553.963L558.257 568.64Z" fill="#2F2E41"/>
<path d="M583.708 576.139L572.429 576.138L567.063 530.179L583.71 530.18L583.708 576.139Z" fill="#9F616A"/>
<path d="M586.585 587.689L550.217 587.688V587.202C550.217 585.238 550.583 583.293 551.294 581.479C552.006 579.665 553.048 578.016 554.363 576.628C555.677 575.239 557.238 574.137 558.955 573.386C560.673 572.634 562.513 572.248 564.372 572.248H564.373L586.586 572.249L586.585 587.689Z" fill="#2F2E41"/>
<path d="M566.578 564.953C565.655 564.952 564.766 564.594 564.076 563.947C563.387 563.3 562.945 562.409 562.835 561.442L548.293 433.01L527.006 469.109L551.982 536.536C552.322 537.468 552.32 538.501 551.977 539.432C551.634 540.362 550.975 541.124 550.128 541.568L528.94 552.521C528.457 552.771 527.928 552.909 527.39 552.925C526.852 552.941 526.317 552.836 525.82 552.615C525.324 552.395 524.878 552.065 524.513 551.647C524.147 551.229 523.871 550.734 523.701 550.194L500.221 475.252C498.452 469.612 498.221 463.561 499.554 457.789L514.737 391.97L514.915 391.867L549.138 372.064L549.333 372.14L589.637 387.68L585.419 472.058L588.483 559.634C588.525 560.675 588.178 561.691 587.516 562.463C586.854 563.234 585.931 563.7 584.947 563.759L566.814 564.945C566.735 564.95 566.656 564.953 566.578 564.953Z" fill="#2F2E41"/>
<path d="M544.376 416.98C538.354 416.98 533.282 415.168 530.107 410.562L530.005 410.414L532.059 387.647L513.792 398.358C513.414 398.58 512.979 398.674 512.549 398.627C512.118 398.58 511.711 398.395 511.383 398.096C511.055 397.797 510.822 397.399 510.715 396.955C510.608 396.512 510.632 396.045 510.785 395.616L533.566 331.705L548.608 279.643C549.353 275.476 551.28 271.647 554.132 268.662C556.983 265.678 560.626 263.679 564.577 262.93C577.977 260.33 585.958 265.106 595.173 275.706C597.402 278.285 599.043 281.367 599.972 284.719C600.901 288.07 601.093 291.601 600.533 295.043L591.815 347.682L594.377 394.878C594.572 395.691 594.52 396.55 594.226 397.33C593.933 398.11 593.413 398.772 592.742 399.221C585.616 404.012 563.768 416.978 544.376 416.98Z" fill="#F24E1E"/>
<path d="M574.862 255.047C587.341 255.047 597.458 244.36 597.458 231.176C597.458 217.993 587.341 207.305 574.862 207.305C562.382 207.305 552.266 217.993 552.266 231.176C552.266 244.36 562.382 255.047 574.862 255.047Z" fill="#9F616A"/>
<path d="M580.747 401.334C581.977 400.739 583.067 399.866 583.943 398.777C584.819 397.688 585.457 396.409 585.815 395.031C586.172 393.653 586.239 392.209 586.01 390.801C585.782 389.393 585.264 388.054 584.493 386.88L603.872 358.825L586.808 357.97L571.021 384.743C569.24 386.241 568.041 388.378 567.652 390.748C567.262 393.118 567.709 395.557 568.908 397.602C570.107 399.647 571.974 401.157 574.156 401.845C576.338 402.533 578.683 402.351 580.747 401.334Z" fill="#9F616A"/>
<path d="M591.243 385.503C590.297 385.645 589.336 385.403 588.552 384.826L575.723 375.375C574.951 374.811 574.407 373.963 574.198 372.997C573.989 372.031 574.13 371.018 574.592 370.155L597.432 327.226L574.46 298.014C573.254 296.48 572.363 294.698 571.845 292.78C571.326 290.863 571.191 288.852 571.448 286.876C571.705 284.901 572.349 283.003 573.338 281.304C574.327 279.606 575.64 278.143 577.194 277.01C578.747 275.877 580.507 275.098 582.361 274.722C584.215 274.347 586.122 274.383 587.962 274.829C589.802 275.275 591.534 276.12 593.048 277.312C594.562 278.504 595.824 280.015 596.755 281.75L622.119 329.044C622.299 329.381 622.393 329.761 622.393 330.147C622.393 330.534 622.298 330.914 622.118 331.25L593.989 383.527C593.729 384.008 593.377 384.428 592.956 384.758C592.534 385.088 592.053 385.322 591.541 385.444C591.442 385.469 591.343 385.488 591.243 385.503Z" fill="#F24E1E"/>
<path d="M565.831 228.129C563.595 226.365 560.499 226.641 557.849 225.716C556.271 225.166 554.858 224.187 553.751 222.878C552.645 221.568 551.884 219.975 551.544 218.257C551.204 216.538 551.298 214.756 551.816 213.088C552.334 211.421 553.258 209.926 554.496 208.755C557.358 206.046 561.43 205.431 565.244 204.935C570.469 204.256 575.745 203.576 580.984 204.116C586.224 204.656 591.499 206.526 595.329 210.342C599.551 214.549 601.631 220.812 601.645 226.944C601.498 233.105 599.897 239.129 596.988 244.471C596.088 246.501 594.733 248.267 593.039 249.616C591.276 250.845 588.792 251.167 587.095 249.84C585.628 248.693 585.091 246.683 584.428 244.886C583.765 243.09 582.634 241.176 580.828 240.899C578.502 240.542 576.727 243.041 574.507 243.858C571.403 245.002 567.954 242.473 566.688 239.267C565.422 236.062 565.755 232.436 566.11 228.983" fill="#2F2E41"/>
<path d="M765 587.028C764.999 587.286 764.902 587.532 764.73 587.715C764.557 587.897 764.324 587.999 764.08 588H-16.08C-16.324 588 -16.558 587.898 -16.7305 587.715C-16.9031 587.533 -17 587.286 -17 587.028C-17 586.77 -16.9031 586.523 -16.7305 586.341C-16.558 586.159 -16.324 586.056 -16.08 586.056H764.08C764.324 586.057 764.557 586.16 764.73 586.342C764.902 586.524 764.999 586.771 765 587.028Z" fill="#CCCCCC"/>
<path d="M342.251 308.177C348.856 308.177 354.211 302.52 354.211 295.542C354.211 288.564 348.856 282.907 342.251 282.907C335.646 282.907 330.291 288.564 330.291 295.542C330.291 302.52 335.646 308.177 342.251 308.177Z" fill="#F24E1E"/>
<path d="M510.629 154.397C505.634 161.43 483.703 169.658 477.4 171.913C477.21 171.981 477.006 171.999 476.808 171.966C476.609 171.933 476.422 171.848 476.261 171.721C476.1 171.594 475.971 171.427 475.885 171.235C475.799 171.043 475.759 170.831 475.768 170.619C476.055 163.596 477.402 139.051 482.397 132.018C485.206 128.063 489.387 125.449 494.021 124.751C498.654 124.053 503.361 125.328 507.105 128.295C510.849 131.263 513.323 135.68 513.984 140.575C514.645 145.47 513.438 150.442 510.629 154.397Z" fill="#F2F2F2"/>
<path d="M497.256 151.647C502.215 151.647 506.235 147.4 506.235 142.161C506.235 136.923 502.215 132.676 497.256 132.676C492.297 132.676 488.277 136.923 488.277 142.161C488.277 147.4 492.297 151.647 497.256 151.647Z" fill="white"/>
<path d="M470.869 183.564C473.092 183.564 474.894 181.66 474.894 179.312C474.894 176.963 473.092 175.06 470.869 175.06C468.646 175.06 466.844 176.963 466.844 179.312C466.844 181.66 468.646 183.564 470.869 183.564Z" fill="#F2F2F2"/>
<path d="M72.8631 347.299C80.2132 359.163 79.9782 398.81 79.7526 410.144C79.7461 410.486 79.6606 410.822 79.5036 411.121C79.3465 411.421 79.1227 411.676 78.8515 411.863C78.5802 412.051 78.2698 412.166 77.947 412.198C77.6243 412.23 77.299 412.178 76.9993 412.048C67.0773 407.731 32.5884 392.093 25.2383 380.23C23.1887 376.926 21.7753 373.229 21.079 369.348C20.3826 365.467 20.417 361.48 21.18 357.613C21.943 353.746 23.4198 350.076 25.526 346.813C27.6321 343.549 30.3264 340.756 33.4547 338.593C36.5831 336.43 40.0843 334.939 43.7582 334.206C47.4322 333.473 51.2069 333.511 54.8666 334.32C58.5263 335.129 61.9994 336.691 65.0873 338.918C68.1752 341.145 70.8175 343.993 72.8631 347.299Z" fill="#F24E1E"/>
<path d="M47.957 377.296C55.9538 377.296 62.4365 370.447 62.4365 361.999C62.4365 353.551 55.9538 346.703 47.957 346.703C39.9602 346.703 33.4775 353.551 33.4775 361.999C33.4775 370.447 39.9602 377.296 47.957 377.296Z" fill="white"/>
<path d="M86.7847 431.525C90.3695 431.525 93.2755 428.455 93.2755 424.668C93.2755 420.881 90.3695 417.811 86.7847 417.811C83.2 417.811 80.2939 420.881 80.2939 424.668C80.2939 428.455 83.2 431.525 86.7847 431.525Z" fill="#F2F2F2"/>
</g>
<defs>
<clipPath id="clip0_15_685">
<rect width="782" height="588" fill="white" transform="translate(-17)"/>
</clipPath>
</defs>
</svg>
