<svg width="60" height="60" viewBox="0 0 60 60" fill="none" xmlns="http://www.w3.org/2000/svg">
<path d="M30 54.375C30.4616 54.3736 30.9139 54.2444 31.3066 54.0017C31.6993 53.759 32.0172 53.4123 32.225 53L39.875 37.7H49.875C50.8861 37.7 51.8874 37.5009 52.8216 37.1139C53.7558 36.7269 54.6047 36.1598 55.3197 35.4447C56.0347 34.7297 56.6019 33.8809 56.9888 32.9467C57.3758 32.0125 57.575 31.0112 57.575 30C57.575 28.9888 57.3758 27.9876 56.9888 27.0534C56.6019 26.1192 56.0347 25.2703 55.3197 24.5553C54.6047 23.8403 53.7558 23.2731 52.8216 22.8862C51.8874 22.4992 50.8861 22.3 49.875 22.3H39.875L32.225 7.00003C32.0172 6.58774 31.6993 6.24103 31.3066 5.99833C30.9139 5.75564 30.4616 5.62643 30 5.62503H21.675C21.2677 5.62163 20.8657 5.71779 20.5041 5.90515C20.1425 6.0925 19.8321 6.36537 19.6 6.70003C19.372 7.03278 19.2279 7.41575 19.18 7.81625C19.1321 8.21676 19.1818 8.62291 19.325 9.00003L24.325 22.3H15L13.4999 17.75C13.3322 17.2535 13.0127 16.8222 12.5865 16.5171C12.1603 16.2121 11.6491 16.0487 11.125 16.05H4.99995C4.66918 16.0514 4.34198 16.1184 4.03728 16.2471C3.7326 16.3759 3.45649 16.5638 3.22495 16.8C2.76309 17.2657 2.50271 17.8942 2.49995 18.55V41.475C2.49995 42.1381 2.76334 42.774 3.23218 43.2428C3.70102 43.7116 4.33691 43.975 4.99995 43.975H11.25C11.7741 43.9764 12.2853 43.813 12.7115 43.5079C13.1377 43.2029 13.4572 42.7716 13.625 42.275L15 37.7H24.3L19.2999 51C19.1568 51.3771 19.1071 51.7833 19.155 52.1838C19.2029 52.5843 19.347 52.9673 19.575 53.3C19.8071 53.6347 20.1175 53.9075 20.4791 54.0949C20.8407 54.2823 21.2427 54.3784 21.65 54.375H30ZM30.25 36.1C30.3974 35.7195 30.4494 35.3086 30.4014 34.9033C30.3535 34.4981 30.2071 34.1107 29.975 33.775C29.7452 33.4439 29.4388 33.1732 29.0819 32.986C28.7249 32.7988 28.328 32.7007 27.925 32.7H13.325C12.7978 32.7004 12.2842 32.8675 11.8576 33.1773C11.4311 33.4871 11.1134 33.9238 10.9499 34.425L9.44995 38.95H7.49995V21.025H9.44995L10.9499 25.55C11.1134 26.0512 11.4311 26.488 11.8576 26.7978C12.2842 27.1076 12.7978 27.2746 13.325 27.275H27.925C28.328 27.2744 28.7249 27.1763 29.0819 26.9891C29.4388 26.8019 29.7452 26.5312 29.975 26.2C30.2071 25.8644 30.3535 25.477 30.4014 25.0717C30.4494 24.6664 30.3974 24.2556 30.25 23.875L25.25 10.6H28.45L36.1 25.875C36.3042 26.292 36.6206 26.6438 37.0136 26.8911C37.4066 27.1384 37.8607 27.2713 38.325 27.275H49.8C50.516 27.275 51.2028 27.5595 51.7091 28.0658C52.2155 28.5722 52.5 29.2589 52.5 29.975C52.5 30.6911 52.2155 31.3779 51.7091 31.8842C51.2028 32.3906 50.516 32.675 49.8 32.675H38.325C37.8607 32.6787 37.4066 32.8117 37.0136 33.059C36.6206 33.3062 36.3042 33.6581 36.1 34.075L28.45 49.35H25.275L30.25 36.1Z" fill="#F24E1E"/>
</svg>
