<svg width="576" height="404" viewBox="60 0 576 504" fill="none" xmlns="http://www.w3.org/2000/svg">
<g clip-path="url(#clip0_15_520)">
<path d="M364.403 502.718C364.403 502.718 355.574 478.227 382.06 459.859L364.403 502.718Z" fill="#E6E6E6"/>
<path d="M353.545 502.272C353.545 502.272 350.852 484.817 330.008 484.966L353.545 502.272Z" fill="#E6E6E6"/>
<path d="M552.673 502.718C552.673 502.718 541.009 470.362 576 446.096L552.673 502.718Z" fill="#E6E6E6"/>
<path d="M538.329 502.129C538.329 502.129 534.771 479.068 507.232 479.266L538.329 502.129Z" fill="#E6E6E6"/>
<path d="M334.522 140.097L323.003 133.202L323.865 132.685L335.384 139.581L334.522 140.097Z" fill="#CBCBCB"/>
<path d="M324.474 140.097L323.613 139.581L335.132 132.685L335.993 133.202L324.474 140.097Z" fill="#CBCBCB"/>
<path d="M238.741 86.649L238.186 87.8716L241.44 89.7508L241.995 88.5282L238.741 86.649Z" fill="#CBCBCB"/>
<path d="M306.208 127.153L299.731 123.413L300.287 122.191L306.763 125.931L306.208 127.153ZM293.254 119.673L286.777 115.932L287.333 114.71L293.81 118.45L293.254 119.673ZM280.301 112.192L273.824 108.452L274.38 107.229L280.856 110.969L280.301 112.192ZM267.347 104.712L260.87 100.971L261.426 99.7488L267.903 103.489L267.347 104.712ZM254.394 97.2311L247.917 93.4909L248.473 92.2683L254.95 96.0085L254.394 97.2311Z" fill="#CBCBCB"/>
<path d="M313.239 129.671L312.684 130.894L315.938 132.773L316.493 131.55L313.239 129.671Z" fill="#CBCBCB"/>
<path d="M67.5471 178.6C67.5471 179.029 67.5347 179.455 67.51 179.877C67.3717 182.31 66.8263 184.691 65.9026 186.896C65.8954 186.915 65.887 186.932 65.8799 186.95C65.8369 187.052 65.7927 187.154 65.7474 187.255C65.4726 187.879 65.1679 188.485 64.8344 189.071C63.3113 191.761 61.2236 193.987 58.7559 195.552C56.2881 197.117 53.5163 197.973 50.6853 198.044L50.856 209.105L53.0817 207.784L53.4791 208.636L50.8727 210.182L51.1914 230.725L51.1949 230.999L49.474 231.431L49.4776 231.155L50.0194 198.046C47.7408 198.009 45.4913 197.462 43.4017 196.438C41.312 195.413 39.4238 193.931 37.8466 192.077C37.7381 191.95 37.6306 191.82 37.5256 191.691L37.5137 191.676C36.1996 190.061 35.1369 188.208 34.3702 186.194C34.387 186.216 34.4048 186.236 34.4216 186.257C32.6889 181.691 32.5714 176.551 34.0931 171.891C35.6148 167.23 38.6604 163.402 42.6059 161.19C42.6656 161.157 42.7265 161.124 42.7862 161.091C46.689 158.972 51.1556 158.583 55.3008 160.001C59.446 161.42 62.9671 164.541 65.1662 168.747C65.2712 168.946 65.3727 169.15 65.4705 169.354C66.8366 172.193 67.5504 175.371 67.5471 178.6Z" fill="#E5E5E5"/>
<path d="M65.2243 186.96C77.7169 186.96 87.8442 175.547 87.8442 161.469C87.8442 147.39 77.7169 135.977 65.2243 135.977C52.7317 135.977 42.6045 147.39 42.6045 161.469C42.6045 175.547 52.7317 186.96 65.2243 186.96Z" fill="#E5E5E5"/>
<path opacity="0.2" d="M48.5226 144.442C46.4127 150.004 46.1264 156.231 47.7151 162.009C49.3037 167.787 52.6636 172.74 57.1945 175.983C61.7254 179.226 67.1319 180.548 72.448 179.713C77.7642 178.877 82.6434 175.939 86.2139 171.422C84.925 174.82 82.996 177.862 80.5604 180.336C78.1248 182.811 75.2409 184.659 72.1086 185.753C68.9762 186.847 65.6703 187.16 62.4199 186.671C59.1694 186.183 56.0521 184.903 53.284 182.922C50.5159 180.94 48.1632 178.304 46.3888 175.196C44.6144 172.088 43.4607 168.583 43.0078 164.923C42.5549 161.262 42.8135 157.535 43.7658 153.998C44.718 150.462 46.3411 147.201 48.5226 144.442Z" fill="black"/>
<path d="M66.4478 232.484L64.1377 231.754L64.1425 231.474L64.8348 189.071L64.8694 186.957L64.8701 186.895L64.9913 179.486L65.1664 168.749V168.747L65.2855 161.469H65.3492L65.471 169.354L65.6296 179.617L65.7431 186.9V186.954L65.7479 187.254V187.255L65.9674 201.451L65.9902 202.861L66.4437 232.202L66.4478 232.484Z" fill="#3F3D56"/>
<path d="M68.8837 199.72L65.1445 201.939L65.6656 203.054L69.4048 200.836L68.8837 199.72Z" fill="#3F3D56"/>
<path d="M358.444 78.9675C329.893 77.0653 301.257 77.5614 272.773 80.4516C259.043 81.8502 245.096 83.3608 231.621 86.7359C220.767 89.4543 208.169 94.049 201.406 104.751C199.99 106.907 199.035 109.403 198.618 112.044C198.2 114.685 198.329 117.4 198.997 119.975C200.61 126.075 204.621 131.153 208.893 135.131C218.725 144.285 230.924 149.612 241.822 156.884C261.718 170.163 279.927 188.06 291.615 210.796C296.758 220.801 301.65 234.103 295.923 245.127C290.313 255.927 277.788 259.648 267.575 261.402C254.773 263.602 241.585 263.005 228.73 261.774C214.636 260.292 200.621 257.979 186.742 254.843C159.553 248.959 132.611 241.475 105.044 238.071C91.2214 236.239 77.2826 235.785 63.3893 236.714C50.8421 237.668 38.1875 239.904 26.4003 245.003C17.3173 248.932 7.63528 254.876 2.72899 264.79C-2.00045 274.346 -0.155818 285.366 4.99396 294.183C11.1902 304.792 20.8523 312.062 30.8978 317.375C42.3354 323.425 54.5691 327.346 66.8183 330.681C73.0308 332.373 79.2769 333.901 85.5236 335.423C86.8267 335.74 87.3835 333.484 86.0757 333.166C73.4788 330.098 60.8454 327.02 48.5613 322.58C37.1937 318.47 25.5604 313.206 16.2514 304.578C8.72029 297.597 1.55981 287.4 2.00432 275.808C2.45243 264.121 11.1531 255.961 19.681 250.938C30.3384 244.662 42.4467 241.604 54.3115 240.006C67.8968 238.3 81.5974 238.09 95.2189 239.379C122.721 241.738 149.609 248.798 176.574 254.956C202.769 260.939 229.783 266.479 256.629 264.944C267.269 264.336 278.67 262.618 288.065 256.565C292.367 253.793 296.246 249.885 298.432 244.799C300.402 239.96 301.024 234.562 300.218 229.317C298.695 217.793 292.622 207.108 286.562 197.93C279.92 187.974 272.214 178.979 263.62 171.147C254.188 162.593 244.019 155.127 233.264 148.861C227.561 145.477 221.777 142.223 216.341 138.304C211.13 134.545 205.989 130.024 202.807 123.923C200.054 118.646 199.55 112.624 202.417 107.272C205.316 101.859 210.312 98.0844 215.239 95.3257C227.109 88.679 240.909 86.8999 253.895 85.0768C281.78 81.1758 309.883 79.5968 337.974 80.3524C344.802 80.5334 351.625 80.852 358.444 81.3081C359.779 81.3966 359.774 79.0557 358.444 78.9675Z" fill="black"/>
<path d="M340.332 3.94159L344.644 0.054439C341.294 -0.362118 339.918 1.69702 339.354 3.32685C336.737 2.10203 333.888 3.7072 333.888 3.7072L342.516 7.23743C342.081 5.92712 341.323 4.78383 340.332 3.94159Z" fill="#3F3D56"/>
<path d="M319.403 16.2476L323.716 12.3605C320.365 11.9439 318.989 14.003 318.426 15.6329C315.808 14.4081 312.959 16.0132 312.959 16.0132L321.588 19.5435C321.152 18.2331 320.395 17.0899 319.403 16.2476Z" fill="#3F3D56"/>
<path d="M340.332 35.7322L344.644 31.8451C341.294 31.4285 339.918 33.4877 339.354 35.1175C336.737 33.8927 333.888 35.4979 333.888 35.4979L342.516 39.0281C342.081 37.7178 341.323 36.5745 340.332 35.7322Z" fill="#3F3D56"/>
<path d="M275.681 41.4915C282.857 41.4915 288.674 34.9356 288.674 26.8486C288.674 18.7615 282.857 12.2057 275.681 12.2057C268.505 12.2057 262.688 18.7615 262.688 26.8486C262.688 34.9356 268.505 41.4915 275.681 41.4915Z" fill="#FF6583"/>
<path d="M316.424 71.9701H252.684C252.604 71.9713 252.524 71.9641 252.445 71.9489L282.592 13.1039C282.776 12.7374 283.043 12.4324 283.366 12.2202C283.689 12.008 284.056 11.8962 284.429 11.8962C284.803 11.8962 285.17 12.008 285.493 12.2202C285.816 12.4324 286.082 12.7374 286.266 13.1039L306.498 52.5921L307.467 54.4813L316.424 71.9701Z" fill="#F24E1E"/>
<path d="M351.912 71.9708H296.783L307.466 54.4834L308.234 53.2233L322.155 30.4341C322.401 30.0855 322.709 29.7991 323.06 29.5936C323.411 29.3882 323.796 29.2683 324.191 29.2417C324.585 29.2152 324.981 29.2825 325.351 29.4395C325.721 29.5964 326.057 29.8394 326.339 30.1526C326.411 30.2415 326.478 30.3356 326.539 30.4341L351.912 71.9708Z" fill="#F24E1E"/>
<path d="M260.973 206.932C267.015 210.336 270.693 214.83 270.693 219.76C270.693 230.38 253.641 238.989 232.607 238.989C223.462 238.989 215.072 237.36 208.507 234.648C215.48 238.576 225.603 241.049 236.873 241.049C257.907 241.049 274.959 232.44 274.959 221.82C274.959 215.818 269.509 210.459 260.973 206.932Z" fill="#F1F1F1"/>
<path d="M274.412 214.227C281.229 218.067 285.38 223.139 285.38 228.702C285.38 240.685 266.139 250.399 242.404 250.399C232.085 250.399 222.618 248.562 215.21 245.501C223.079 249.933 234.501 252.724 247.218 252.724C270.952 252.724 290.193 243.01 290.193 231.026C290.193 224.253 284.043 218.206 274.412 214.227Z" fill="#F1F1F1"/>
<path d="M255.83 210.146C260.087 212.543 262.678 215.71 262.678 219.183C262.678 226.665 250.665 232.73 235.846 232.73C230.072 232.815 224.329 231.78 218.866 229.672C223.779 232.439 230.911 234.182 238.851 234.182C253.67 234.182 265.683 228.117 265.683 220.635C265.683 216.405 261.844 212.63 255.83 210.146Z" fill="#F1F1F1"/>
<path d="M196.023 208.772C196.023 208.772 196.959 224.18 223.771 224.18C250.584 224.18 258.589 208.772 258.589 208.772H196.023Z" fill="#3F3D56"/>
<path d="M234.081 168.346C230.21 165.032 225.352 163.535 220.523 164.167C224.838 165.339 228.649 168.187 231.287 172.21C233.925 176.234 235.221 181.175 234.948 186.168C234.675 191.161 232.851 195.886 229.795 199.514C226.739 203.142 222.646 205.441 218.236 206.008C222.455 207.155 226.895 206.631 230.811 204.523C234.727 202.415 237.879 198.852 239.739 194.433C241.598 190.014 242.05 185.009 241.02 180.258C239.99 175.507 237.539 171.301 234.081 168.346Z" fill="#3F3D56"/>
<path d="M225.295 161.386H223.467V210.427H225.295V161.386Z" fill="#3F3D56"/>
<path d="M345.438 124.949L345.429 124.93L345.404 123.732L351.131 114.361L345.411 122.835L345.39 123.089L345.194 113.51L350.141 103.795L345.18 111.828L345.232 91.9837L345.232 91.9176L345.23 91.9826L344.902 107.622L340.394 101.269L344.887 108.97L344.789 117.537L340.64 109.176L344.774 118.797L344.719 123.561L344.567 136.759L344.556 137.746C344.938 137.749 345.316 137.742 345.691 137.724L345.431 125.047L345.438 124.949Z" fill="#CBCBCB"/>
<path d="M318.017 129.069L318.007 129.05L317.982 127.853L323.709 118.481L317.989 126.956L317.968 127.209L317.773 117.631L322.719 107.915L317.759 115.948L317.81 96.1041L317.81 96.0381L317.809 96.103L317.48 111.743L312.972 105.39L317.466 113.09L317.367 121.658L313.218 113.296L317.352 122.917L317.297 127.681L317.145 140.88L317.134 141.866C317.516 141.869 317.895 141.862 318.269 141.845L318.009 129.167L318.017 129.069Z" fill="#CBCBCB"/>
<path d="M331.423 116.021L331.413 116.002L331.388 114.804L337.116 105.433L331.395 113.908L331.375 114.161L331.179 104.583L336.126 94.8669L331.165 102.9L331.217 83.0559L331.216 82.9899L331.215 83.0548L330.886 98.6945L326.378 92.3417L330.872 100.042L330.773 108.609L326.625 100.248L330.758 109.869L330.703 114.633L330.552 127.832L330.541 128.818C330.923 128.821 331.301 128.814 331.675 128.796L331.416 116.119L331.423 116.021Z" fill="#CBCBCB"/>
<path d="M104.943 344.062C108.982 344.062 112.256 340.372 112.256 335.821C112.256 331.27 108.982 327.58 104.943 327.58C100.905 327.58 97.6309 331.27 97.6309 335.821C97.6309 340.372 100.905 344.062 104.943 344.062Z" fill="#F24E1E"/>
<path d="M495.26 487.943L488.49 490.777L475.566 462.699L485.558 458.515L495.26 487.943Z" fill="#FFB7B7"/>
<path d="M499.424 494.615L477.595 503.755L477.492 503.444C476.655 500.905 476.747 498.094 477.749 495.632C478.75 493.169 480.578 491.255 482.831 490.311L496.164 484.729L499.424 494.615Z" fill="#2F2E41"/>
<path d="M428.636 495.866L421.414 495.865L417.979 464.472L428.638 464.473L428.636 495.866Z" fill="#FFB7B7"/>
<path d="M429.889 503.755L406.603 503.754V503.422C406.603 500.713 407.558 498.115 409.257 496.2C410.957 494.284 413.263 493.208 415.666 493.208L429.89 493.208L429.889 503.755Z" fill="#2F2E41"/>
<path d="M461.701 278.14L459.344 272.829L439.316 284.115L439.905 288.762L436.076 294.405C436.076 294.405 429.596 298.388 430.774 311.666L431.952 324.279L433.425 340.544L423.116 380.709L417.814 433.819L413.985 476.639L432.541 475.643L449.625 405.936L479.668 480.954L500.286 474.979L472.01 400.625L468.475 369.423C468.475 369.423 470.832 352.826 459.639 341.54L461.406 335.565V328.202L467.297 293.077L461.701 278.14Z" fill="#2F2E41"/>
<path opacity="0.2" d="M462.252 354.048L449.292 405.83L449.958 406.042L462.918 354.26L462.252 354.048Z" fill="black"/>
<path d="M461.112 340.544H432.247V343.864H461.112V340.544Z" fill="#3F3D56"/>
<path d="M432.247 345.855C432.897 345.855 433.425 344.369 433.425 342.536C433.425 340.703 432.897 339.217 432.247 339.217C431.596 339.217 431.068 340.703 431.068 342.536C431.068 344.369 431.596 345.855 432.247 345.855Z" fill="#3F3D56"/>
<path d="M452.795 269.554C460.405 264.866 463.201 254.114 459.042 245.538C454.882 236.963 445.341 233.811 437.732 238.499C430.123 243.187 427.326 253.939 431.486 262.515C435.645 271.09 445.186 274.242 452.795 269.554Z" fill="#FFB7B7"/>
<path d="M469.292 247.709C476.963 247.709 483.183 240.7 483.183 232.054C483.183 223.408 476.963 216.399 469.292 216.399C461.62 216.399 455.4 223.408 455.4 232.054C455.4 240.7 461.62 247.709 469.292 247.709Z" fill="#2F2E41"/>
<path d="M486.92 230.377C487.468 232.452 487.629 234.631 487.391 236.779C487.154 238.927 486.524 240.995 485.541 242.855C484.559 244.714 483.245 246.324 481.682 247.582C480.12 248.84 478.343 249.72 476.464 250.165C474.584 250.61 472.644 250.612 470.764 250.169C468.884 249.726 467.106 248.849 465.542 247.593C463.979 246.337 462.663 244.729 461.678 242.871C460.694 241.013 460.062 238.945 459.822 236.797C460.818 240.564 463.033 243.77 466.029 245.781C469.025 247.791 472.582 248.458 475.994 247.65C479.407 246.841 482.424 244.616 484.449 241.417C486.473 238.217 487.355 234.276 486.92 230.377Z" fill="#2F2E41"/>
<path d="M432.042 249.114C431.634 253.16 432.422 257.245 434.284 260.736C436.145 264.227 438.976 266.928 442.338 268.422C445.7 269.915 449.405 270.117 452.88 268.996C456.354 267.876 459.403 265.495 461.555 262.223C463.707 258.952 464.842 254.971 464.782 250.899C464.723 246.827 463.474 242.891 461.229 239.7C458.983 236.509 455.866 234.242 452.362 233.25C448.857 232.258 445.159 232.596 441.842 234.212C439.099 231.719 435.698 232.492 432.933 235.123C429.806 238.098 428.878 240.142 426.453 245.035C428.838 245.412 429.657 248.736 432.042 249.114Z" fill="#2F2E41"/>
<path d="M489.76 302.331C489.584 307.575 489.236 317.898 489.236 318.425C489.236 318.98 482.292 335.183 479.292 342.157V342.16C479.079 342.652 478.887 343.097 478.718 343.49C478.486 344.031 478.121 344.486 477.667 344.801C477.212 345.115 476.688 345.276 476.154 345.265L463.044 345C462.324 344.986 461.636 344.659 461.124 344.087C460.612 343.515 460.317 342.742 460.299 341.93L458.836 276.929C458.832 276.715 458.865 276.502 458.934 276.302C459.004 276.103 459.108 275.921 459.241 275.767C459.373 275.613 459.532 275.491 459.707 275.408C459.882 275.325 460.071 275.282 460.261 275.281H477.168C477.882 275.282 478.582 275.509 479.187 275.937C479.791 276.365 480.277 276.976 480.588 277.7L488.703 296.62C489.464 298.398 489.827 300.358 489.76 302.331Z" fill="#F24E1E"/>
<path d="M460.07 337.47C456.706 335.172 453.683 332.293 451.112 328.938C445.139 321.367 441.506 311.816 440.759 301.719C440.092 293.08 441.613 286.659 445.28 282.634C449.94 277.516 456.283 278.26 456.551 278.294L456.835 278.33L461.132 282.428L459.916 284.048L456.071 280.381C454.894 280.315 450.088 280.301 446.578 284.17C443.347 287.732 442.02 293.574 442.635 301.535C443.345 311.148 446.796 320.245 452.47 327.466C454.919 330.658 457.788 333.405 460.979 335.612L460.07 337.47Z" fill="#F24E1E"/>
<path d="M484.467 312.775L461.56 318.077L461.686 318.77L484.593 313.468L484.467 312.775Z" fill="#3F3D56"/>
<path d="M469.368 275.267L468.741 275.296L470.229 316.373L470.856 316.344L469.368 275.267Z" fill="#3F3D56"/>
<path d="M489.76 302.331C489.584 307.575 489.236 317.898 489.236 318.425C489.236 318.98 482.292 335.183 479.292 342.157L484.884 305.567C485.1 304.159 485.644 302.841 486.461 301.748C487.277 300.655 488.337 299.826 489.531 299.346C489.719 300.326 489.796 301.329 489.76 302.331Z" fill="#3F3D56"/>
<path d="M455.405 379.014C455.9 378.295 456.249 377.462 456.428 376.575C456.606 375.687 456.61 374.767 456.439 373.877C456.268 372.988 455.925 372.152 455.436 371.427C454.947 370.703 454.323 370.109 453.608 369.686L454.745 355.518L447.273 352.64L445.918 372.673C445.367 374.074 445.291 375.653 445.705 377.113C446.118 378.573 446.993 379.811 448.162 380.592C449.331 381.374 450.715 381.645 452.049 381.354C453.384 381.063 454.578 380.231 455.405 379.014Z" fill="#FFB7B7"/>
<path d="M456.381 365.305L443.143 364.764L443.703 292.813C443.693 290.777 444.252 288.789 445.299 287.13C446.347 285.472 447.831 284.226 449.541 283.569C451.139 282.971 452.866 282.969 454.465 283.564C456.278 284.256 457.836 285.609 458.892 287.409C459.947 289.209 460.441 291.354 460.295 293.506L456.381 365.305Z" fill="#CBCBCB"/>
<path d="M572.52 504H308.76C308.576 504 308.4 503.918 308.27 503.771C308.14 503.625 308.067 503.427 308.067 503.22C308.067 503.013 308.14 502.814 308.27 502.668C308.4 502.522 308.576 502.44 308.76 502.44H572.52C572.704 502.44 572.88 502.522 573.009 502.668C573.139 502.814 573.212 503.013 573.212 503.22C573.212 503.427 573.139 503.625 573.009 503.771C572.88 503.918 572.704 504 572.52 504Z" fill="#CBCBCB"/>
</g>
<defs>
<clipPath id="clip0_15_520">
<rect width="576" height="504" fill="white"/>
</clipPath>
</defs>
</svg>
