<svg width="245" height="123" viewBox="0 0 245 123" fill="none" xmlns="http://www.w3.org/2000/svg">
<g clip-path="url(#clip0_13_953)">
<path d="M57.6363 106.335C57.0076 111.277 54.8135 115.833 52.3673 120.215C52.2463 120.434 52.1251 120.65 52.0007 120.869H20.3091C19.746 120.669 19.1924 120.451 18.6424 120.215C16.6146 119.365 14.6891 118.291 12.902 117.012C2.59356 109.605 -1.37512 95.607 0.419348 83.066C1.52932 75.2704 4.96108 67.3147 11.638 63.1181C15.2636 60.9178 19.5878 60.1621 23.7475 61.0018C23.8555 61.0214 23.9636 61.0442 24.0717 61.0704C27.5623 61.8542 30.6732 63.8006 32.4448 66.9392C35.6278 72.5793 33.7318 79.565 32.1664 85.842C30.6044 92.1223 29.7597 99.6338 34.2884 104.265C33.624 102.329 33.4887 100.251 33.8963 98.2456C34.3039 96.2401 35.2398 94.3791 36.6077 92.8539C37.9756 91.3287 39.7261 90.1943 41.6793 89.5675C43.6324 88.9407 45.7177 88.8441 47.7207 89.2876C48.0482 89.3561 48.3725 89.4345 48.6934 89.5325C49.4625 89.7571 50.2039 90.0672 50.9037 90.4567C56.2446 93.4319 58.4057 100.284 57.6363 106.335Z" fill="#F24E1E"/>
<path d="M36.9734 120.215C37.6808 120.454 38.3945 120.669 39.1116 120.869H36.0107C35.4343 120.666 34.8623 120.448 34.2947 120.215C34.1703 120.166 34.0426 120.114 33.9182 120.062C29.2388 118.106 24.9295 115.166 21.6712 111.254C20.0746 109.361 18.7721 107.239 17.8073 104.96C16.758 102.386 16.0916 99.6732 15.8294 96.9068C15.2399 91.2307 15.8392 85.3979 16.9656 79.8231C18.1276 74.0446 20.0041 68.4323 22.5521 63.1148C22.8599 62.478 23.1764 61.8444 23.5017 61.2141C23.5246 61.163 23.5585 61.1175 23.6009 61.0809C23.6434 61.0442 23.6933 61.0172 23.7473 61.0018C23.8032 60.9913 23.8607 60.9919 23.9163 61.0037C23.972 61.0155 24.0247 61.0382 24.0715 61.0704C24.1841 61.1347 24.2677 61.2397 24.3048 61.3637C24.342 61.4877 24.33 61.6212 24.2713 61.7366C21.6451 66.8438 19.6546 72.2519 18.3442 77.8407C17.0606 83.2947 16.3304 89.0002 16.5825 94.6044C16.8182 99.8429 18.1904 104.993 21.3045 109.278C24.2047 113.171 28.0203 116.294 32.4152 118.37C33.8922 119.085 35.4149 119.701 36.9734 120.215Z" fill="white"/>
<path d="M49.4724 120.869H48.2707C48.1004 120.653 47.9367 120.434 47.7761 120.215C45.4121 117.011 43.8006 113.318 43.0607 109.409C42.0529 103.934 42.8383 98.2805 45.3007 93.285C45.9884 91.8844 46.7981 90.5468 47.7205 89.2876C48.0479 89.3561 48.3722 89.4345 48.6931 89.5325C46.2637 92.7415 44.6299 96.4782 43.9253 100.437C43.3385 103.901 43.4815 107.448 44.3452 110.853C45.2089 114.258 46.7744 117.447 48.9419 120.215C49.1155 120.437 49.2924 120.656 49.4724 120.869Z" fill="white"/>
<path d="M110.908 61.0046C111.035 60.5078 111.053 59.9891 110.958 59.485C110.863 58.9809 110.658 58.5037 110.358 58.087C110.059 57.6702 109.671 57.3241 109.222 57.0731C108.774 56.822 108.276 56.672 107.763 56.6337L87.7499 31.6792L82.7981 36.2824L103.939 60.1197C103.932 60.9832 104.243 61.8194 104.812 62.4699C105.382 63.1203 106.17 63.5399 107.029 63.6489C107.888 63.758 108.757 63.5491 109.472 63.0617C110.187 62.5744 110.698 61.8424 110.908 61.0046Z" fill="#9F616A"/>
<path d="M91.5891 35.6433L85.2644 40.4741C85.0844 40.6115 84.8769 40.7087 84.6559 40.7589C84.4349 40.8091 84.2056 40.8113 83.9837 40.7652C83.7618 40.7191 83.5525 40.6258 83.37 40.4918C83.1875 40.3577 83.0361 40.186 82.9261 39.9883L79.0734 33.0616C78.3735 32.1394 78.0689 30.978 78.2264 29.8321C78.3838 28.6862 78.9904 27.6494 79.9131 26.9488C80.8359 26.2483 81.9995 25.9413 83.1489 26.0951C84.2983 26.2489 85.3396 26.851 86.0446 27.7694L91.7284 33.2653C91.8911 33.4227 92.0178 33.6132 92.1 33.8239C92.1822 34.0345 92.2179 34.2604 92.2047 34.4861C92.1915 34.7118 92.1297 34.932 92.0234 35.1317C91.9172 35.3313 91.7691 35.5059 91.5891 35.6433Z" fill="#FFBB0E"/>
<path d="M80.9673 20.5785C85.4092 20.5785 89.01 16.9873 89.01 12.5572C89.01 8.12714 85.4092 4.53587 80.9673 4.53587C76.5254 4.53587 72.9246 8.12714 72.9246 12.5572C72.9246 16.9873 76.5254 20.5785 80.9673 20.5785Z" fill="#9F616A"/>
<path d="M98.1356 116.605H102.15L101.768 109.111L95.8428 109.112L98.1356 116.605Z" fill="#FFB8B8"/>
<path d="M97.1116 115.298L105.018 115.298H105.018C105.68 115.298 106.335 115.428 106.946 115.68C107.557 115.933 108.113 116.303 108.581 116.77C109.049 117.236 109.42 117.79 109.673 118.4C109.926 119.009 110.056 119.663 110.056 120.323V120.486L97.1118 120.487L97.1116 115.298Z" fill="#2F2E41"/>
<path d="M55.3325 110.936L58.7479 113.041L62.3719 106.465L58.2387 103.886L55.3325 110.936Z" fill="#FFB8B8"/>
<path d="M55.1502 109.288L61.8765 113.432C62.4394 113.778 62.9286 114.232 63.3156 114.768C63.7026 115.303 63.9801 115.909 64.1322 116.551C64.2844 117.193 64.3082 117.859 64.2023 118.511C64.0965 119.162 63.863 119.786 63.5152 120.348L63.4292 120.487L52.4163 113.702L55.1502 109.288Z" fill="#2F2E41"/>
<path d="M97.8454 114.408C97.5469 114.408 97.2555 114.317 97.01 114.148C96.7645 113.979 96.5764 113.739 96.4708 113.461L81.9492 78.8338C81.9179 78.7492 81.8639 78.6749 81.793 78.619C81.7222 78.563 81.6372 78.5277 81.5475 78.5168C81.4578 78.5059 81.3668 78.5199 81.2845 78.5573C81.2023 78.5947 81.132 78.6539 81.0813 78.7286L61.1315 110.072C60.9363 110.364 60.6426 110.576 60.3037 110.67C59.9649 110.764 59.6034 110.734 59.2851 110.584L56.5554 109.314C56.2057 109.149 55.9345 108.855 55.7997 108.494C55.6649 108.132 55.6772 107.733 55.834 107.38L72.1783 71.0445C71.8215 70.1786 68.3404 61.2874 73.6888 56.8947L73.7263 56.8714L88.2292 50.4194L88.5949 61.5151L103.05 111.537C103.105 111.725 103.121 111.922 103.098 112.117C103.075 112.311 103.013 112.499 102.916 112.67C102.819 112.84 102.689 112.989 102.533 113.109C102.377 113.228 102.199 113.316 102.009 113.365L98.2229 114.359C98.0997 114.392 97.9728 114.408 97.8454 114.408Z" fill="#2F2E41"/>
<path d="M88.4487 34.1889C87.8965 31.9784 87.1136 29.7503 86.0646 28.7216C85.6789 28.3466 85.3164 27.9484 84.9792 27.5294C84.2736 26.6429 83.3858 25.9174 82.3756 25.4017C82.7452 25.1965 82.9619 24.9519 82.9619 24.6885C82.9619 23.967 81.3492 23.3822 79.3598 23.3822C77.3705 23.3822 75.7578 23.967 75.7578 24.6885C75.7627 24.7723 75.7841 24.8543 75.8208 24.9299C75.8576 25.0054 75.9089 25.0729 75.9719 25.1286C74.6728 25.6567 73.544 26.5303 72.7084 27.6541C71.8728 28.7779 71.3624 30.1088 71.2329 31.502C70.7677 36.4713 70.6319 42.8233 72.2623 46.8412C73.6299 50.1637 73.7386 53.8689 72.5683 57.2655C72.4889 57.502 72.4792 57.7563 72.5403 57.9981C72.6014 58.24 72.7308 58.4593 72.913 58.6301C73.0953 58.8009 73.3228 58.916 73.5686 58.9618C73.8145 59.0075 74.0683 58.9821 74.3001 58.8884L88.6908 53.1047C88.9331 53.0073 89.1407 52.84 89.2868 52.624C89.433 52.4081 89.5111 52.1536 89.5111 51.893V43.1088C89.5226 40.1034 89.1659 37.1079 88.4487 34.1889Z" fill="#FFD978"/>
<path d="M60.9142 70.3685C61.4151 70.2525 61.8845 70.0283 62.2891 69.7118C62.6938 69.3953 63.024 68.9941 63.2564 68.5366C63.4888 68.0791 63.6179 67.5763 63.6344 67.0636C63.6509 66.551 63.5545 66.0409 63.352 65.5695L74.6115 35.9558L68.9017 34.4855L58.4871 63.7942C57.7155 64.186 57.1148 64.8465 56.7988 65.6505C56.4829 66.4545 56.4736 67.3462 56.7728 68.1565C57.0719 68.9669 57.6588 69.6396 58.422 70.0473C59.1853 70.455 60.072 70.5693 60.9142 70.3685Z" fill="#9F616A"/>
<path d="M74.5646 41.5749L67.3495 38.2066C67.1442 38.1108 66.9621 37.9719 66.8154 37.7996C66.6688 37.6272 66.5611 37.4253 66.4998 37.2077C66.4384 36.99 66.4248 36.7618 66.4599 36.5384C66.495 36.3151 66.5779 36.1019 66.703 35.9134L71.0879 29.309C71.5859 28.265 72.4786 27.4604 73.5703 27.0716C74.662 26.6828 75.8638 26.7414 76.9122 27.2346C77.9607 27.7278 78.7704 28.6154 79.1639 29.7029C79.5574 30.7904 79.5027 31.9891 79.0117 33.0364L76.7444 40.6011C76.6794 40.8177 76.5683 41.0178 76.4188 41.1877C76.2693 41.3576 76.0849 41.4934 75.878 41.5858C75.6712 41.6782 75.4468 41.7251 75.2201 41.7232C74.9934 41.7213 74.7699 41.6707 74.5646 41.5749Z" fill="#FFBB0E"/>
<path d="M88.355 10.5829C88.7178 10.6257 89.0852 10.5595 89.41 10.3927C90.0033 10.0055 89.9449 9.12532 89.7441 8.44711C89.2439 6.82136 88.3411 5.34748 87.1191 4.16148C85.8971 2.97548 84.3952 2.11557 82.7521 1.66111C81.6071 1.35762 80.1583 1.36935 79.5033 2.35395C77.8572 1.26032 75.8727 0.791216 73.9096 1.0317C71.9465 1.27218 70.1348 2.20634 68.803 3.66475C67.4597 5.13575 66.6898 7.05332 66.2908 9.00276C65.6036 12.3608 62.6604 19.2878 64.2907 22.3048C65.3756 24.3125 70.3685 22.7482 72.4805 23.6227C74.5925 24.4971 77.1594 24.3991 79.0354 23.0949C80.9114 21.7908 81.8968 19.2157 81.0926 17.0807C80.7815 16.2551 80.2423 15.5381 79.8169 14.7648C79.3915 13.9916 79.0732 13.0977 79.263 12.2363C79.5587 10.8949 85.9067 10.5326 88.355 10.5829Z" fill="#2F2E41"/>
<path d="M156.198 120.542C156.198 120.585 156.19 120.627 156.173 120.667C156.157 120.707 156.133 120.743 156.102 120.773C156.072 120.804 156.036 120.828 155.996 120.844C155.956 120.86 155.914 120.869 155.871 120.869H0.327459C0.240612 120.869 0.157321 120.834 0.0959103 120.773C0.0344998 120.712 0 120.629 0 120.542C0 120.455 0.0344998 120.372 0.0959103 120.311C0.157321 120.25 0.240612 120.215 0.327459 120.215H155.871C155.914 120.215 155.956 120.224 155.996 120.24C156.036 120.256 156.072 120.28 156.102 120.311C156.133 120.341 156.157 120.377 156.173 120.417C156.19 120.457 156.198 120.499 156.198 120.542Z" fill="#3F3D56"/>
<path d="M179.726 122.175C186.056 122.175 191.187 121.298 191.187 120.215C191.187 119.133 186.056 118.256 179.726 118.256C173.396 118.256 168.265 119.133 168.265 120.215C168.265 121.298 173.396 122.175 179.726 122.175Z" fill="#E44420"/>
<path d="M244.673 121.012H200.793C200.706 121.012 200.623 120.978 200.561 120.917C200.5 120.855 200.466 120.772 200.466 120.686C200.466 120.599 200.5 120.516 200.561 120.455C200.623 120.394 200.706 120.359 200.793 120.359H244.673C244.759 120.359 244.843 120.394 244.904 120.455C244.966 120.516 245 120.599 245 120.686C245 120.772 244.966 120.855 244.904 120.917C244.843 120.978 244.759 121.012 244.673 121.012Z" fill="#3F3D56"/>
<path d="M171.207 35.2064C171.208 31.6484 172.431 28.1981 174.673 25.4307C176.915 22.6632 180.041 20.7458 183.529 19.9981C181.254 19.5114 178.9 19.5381 176.637 20.0763C174.375 20.6145 172.262 21.6506 170.453 23.1087C168.644 24.5667 167.185 26.4099 166.183 28.5031C165.18 30.5964 164.66 32.8867 164.66 35.2064C164.66 37.5261 165.18 39.8165 166.183 41.9097C167.185 44.003 168.644 45.8461 170.453 47.3042C172.262 48.7623 174.375 49.7984 176.637 50.3366C178.9 50.8748 181.254 50.9015 183.529 50.4147C180.041 49.667 176.915 47.7497 174.673 44.9822C172.431 42.2147 171.208 38.7644 171.207 35.2064Z" fill="#E44420"/>
<path d="M154.234 35.2064C154.234 26.7204 157.346 18.5274 162.983 12.1709C168.62 5.81437 176.394 1.73309 184.839 0.695838C179.938 0.0967018 174.966 0.542034 170.251 2.00238C165.537 3.46272 161.186 5.90479 157.488 9.16707C153.791 12.4294 150.829 16.4375 148.8 20.9264C146.772 25.4153 145.722 30.2826 145.72 35.2064C145.72 50.8028 168.718 94.7841 177.355 110.753C177.669 111.334 178.134 111.819 178.702 112.158C179.27 112.496 179.92 112.675 180.582 112.675C181.243 112.675 181.893 112.496 182.461 112.158C183.029 111.819 183.494 111.334 183.808 110.753C184.131 110.155 184.477 109.514 184.839 108.84C175.54 91.5272 154.234 50.2191 154.234 35.2064Z" fill="#E44420"/>
<path d="M180.611 113.065C179.889 113.071 179.18 112.879 178.56 112.51C177.94 112.141 177.434 111.608 177.097 110.972C167.573 93.365 145.422 50.7429 145.422 35.2707C145.422 25.9627 149.13 17.0359 155.729 10.4542C162.328 3.8725 171.279 0.174927 180.611 0.174927C189.944 0.174927 198.895 3.8725 205.494 10.4542C212.093 17.0359 215.801 25.9627 215.801 35.2707C215.801 50.7443 193.65 93.3653 184.126 110.972C183.789 111.609 183.283 112.141 182.663 112.51C182.043 112.879 181.333 113.071 180.611 113.065ZM180.611 0.828102C171.456 0.838401 162.678 4.47047 156.203 10.9275C149.729 17.3845 146.087 26.1391 146.077 35.2707C146.077 50.5941 168.173 93.0984 177.673 110.662C177.959 111.191 178.383 111.633 178.9 111.941C179.417 112.25 180.009 112.412 180.611 112.412C181.214 112.412 181.805 112.25 182.323 111.941C182.84 111.633 183.264 111.191 183.55 110.662C193.05 93.099 215.146 50.5956 215.146 35.2707C215.136 26.1391 211.494 17.3845 205.02 10.9275C198.545 4.47047 189.767 0.838404 180.611 0.828102Z" fill="#3F3D56"/>
<path d="M180.612 51.1518C177.462 51.1518 174.383 50.2204 171.765 48.4754C169.146 46.7304 167.105 44.2501 165.9 41.3482C164.695 38.4463 164.379 35.2531 164.994 32.1724C165.608 29.0918 167.125 26.262 169.352 24.0409C171.579 21.8199 174.416 20.3073 177.505 19.6945C180.594 19.0818 183.795 19.3963 186.705 20.5983C189.615 21.8003 192.102 23.8358 193.851 26.4475C195.601 29.0592 196.535 32.1296 196.535 35.2707C196.53 39.4811 194.851 43.5177 191.866 46.495C188.881 49.4722 184.833 51.147 180.612 51.1518ZM180.612 20.0426C177.592 20.0425 174.64 20.9356 172.129 22.6088C169.618 24.2821 167.661 26.6603 166.505 29.4429C165.349 32.2254 165.047 35.2873 165.636 38.2413C166.225 41.1952 167.679 43.9086 169.815 46.0383C171.95 48.168 174.671 49.6184 177.632 50.206C180.594 50.7936 183.664 50.492 186.454 49.3395C189.244 48.1869 191.629 46.2351 193.307 43.7309C194.984 41.2267 195.88 38.2825 195.88 35.2707C195.875 31.2334 194.265 27.3627 191.403 24.5079C188.541 21.6531 184.66 20.0472 180.612 20.0426Z" fill="#3F3D56"/>
</g>
<defs>
<clipPath id="clip0_13_953">
<rect width="245" height="122" fill="white" transform="translate(0 0.174927)"/>
</clipPath>
</defs>
</svg>
