<svg width="245" height="123" viewBox="0 0 245 123" fill="none" xmlns="http://www.w3.org/2000/svg">
<g clip-path="url(#clip0_13_976)">
<path d="M235.3 31.6707C235.627 31.9488 236.817 31.6654 239.182 31.0873C240.979 30.6478 241.256 30.4879 241.427 30.3733C242.028 29.9702 242.186 29.5463 242.781 27.6737C243.85 24.3128 243.883 23.979 244.432 23.2658C244.621 23.0202 245.098 22.4344 244.982 22.3618C244.862 22.2871 244.346 22.8975 243.391 23.1281C242.46 23.3528 242.041 22.9928 241.247 23.0845C240.22 23.203 239.609 23.9558 238.651 25.1744C237.803 26.2535 237.696 26.6877 236.507 28.8318C236.17 29.4392 235.899 29.9093 235.691 30.2809C233.356 31.9626 231.04 33.6665 228.746 35.3851C228.79 35.3329 228.832 35.2837 228.868 35.2409C229.884 34.0366 230.022 33.3909 230.007 32.9071C229.984 32.1233 229.498 31.5263 228.529 30.3643C227.58 29.2256 226.68 28.4742 225.596 27.5776C224.174 26.4023 223.464 25.8146 223.181 25.8533C221.16 26.1294 220.619 36.7503 223.162 38.6498C222.805 38.8466 222.51 39.0527 222.296 39.2555C220.119 37.3902 216.39 35.3063 212.259 35.0497C209.712 34.8915 208.306 35.5083 207.869 35.7201C205.849 36.6993 204.648 38.6591 205.251 39.2121C205.814 39.7278 207.438 38.5555 210.622 38.62C212.844 38.6651 214.58 39.2871 215.61 39.6564C217.771 40.4311 218.562 41.1927 220.155 41.7145C219.408 42.1895 218.816 42.7824 218.445 43.3354C218.316 43.4378 218.188 43.5408 218.059 43.6433C216.415 42.9282 214.563 42.4037 212.622 42.2831C210.076 42.1249 208.67 42.7417 208.233 42.9536C206.871 43.6135 205.885 44.7177 205.569 45.5376C205.363 45.5696 205.172 45.6062 204.997 45.6456C204.38 44.5692 202.543 43.434 200.835 42.8619C197.895 41.8772 194.077 42.1382 193.668 43.0747C193.655 43.1045 193.652 43.1339 193.646 43.1634C193.968 41.1569 194.406 39.1644 194.952 37.1864C194.971 37.2428 194.994 37.3 195.025 37.3601C195.751 38.7667 197.712 40.1168 200.385 40.8172C202.483 41.3669 203.361 41.082 203.585 41.0024C203.798 40.9263 204.719 40.6213 204.945 40.0147C205.363 38.89 202.801 35.5661 201.185 36.681C195.992 40.2631 195.28 37.3625 195.041 36.8743C195.483 35.3105 195.991 33.7557 196.561 32.2097C196.571 32.2191 196.579 32.2284 196.589 32.238C197.724 33.2997 199.907 34.0477 202.473 34.0808C204.486 34.1067 205.144 33.6717 205.309 33.555C205.466 33.4434 206.153 32.9819 206.13 32.4085C206.087 31.3455 203.636 30.4797 201.676 30.3296C199.869 30.1912 197.923 30.6181 196.958 31.1587C197.407 30.001 197.89 28.8483 198.405 27.7006C199.723 28.1163 201.591 28.0604 203.426 27.4274C204.939 26.9054 205.233 26.4042 205.303 26.2729C205.37 26.1474 205.674 25.6185 205.398 25.1972C204.887 24.416 202.668 24.4292 201.139 24.8444C200.508 25.0154 199.91 25.2785 199.396 25.5759C200.309 23.6947 201.303 21.827 202.373 19.9731L201.301 19.7662C199.935 22.1346 198.743 24.5337 197.719 26.9595C197.592 26.2481 197.273 25.4902 196.853 24.8744C195.618 23.064 192.98 21.7057 192.087 22.1464C191.909 22.2345 191.834 22.3781 191.766 22.549C191.219 23.9244 191.631 25.8252 193.071 27.5716C194.202 28.9422 195.072 29.1347 195.299 29.1782C195.491 29.2149 196.23 29.3725 196.838 29.1695C196.429 30.2502 196.051 31.3356 195.706 32.4258C195.292 31.6313 194.475 30.7849 193.611 30.1995C191.618 28.8498 188.525 28.3097 187.896 28.9675C187.77 29.0991 187.766 29.2539 187.782 29.4323C187.909 30.8677 189.174 32.529 191.329 33.7622C193.02 34.7301 193.922 34.6694 194.154 34.6475C194.291 34.6345 194.703 34.6028 195.101 34.464C194.732 35.7887 194.409 37.1197 194.13 38.4564C193.572 36.9611 191.677 35.0956 189.888 35.6891C186.713 36.7422 182.982 35.1246 182.571 35.832C182.464 36.016 182.553 36.2058 182.655 36.4117C183.478 38.0689 185.749 39.6746 188.868 40.5272C191.315 41.1964 192.351 40.873 192.614 40.7823C192.789 40.7222 193.364 40.5366 193.793 40.1923C193.485 41.9098 193.248 43.6361 193.082 45.3699C192.42 44.2548 190.556 43.0799 188.811 42.4741C185.75 41.4115 181.746 41.6443 181.301 42.6207C181.212 42.816 181.282 43.0044 181.387 43.2158C182.231 44.9167 184.563 46.5648 187.764 47.4399C190.276 48.1268 191.339 47.7948 191.609 47.7018C191.807 47.6338 192.504 47.4091 192.948 46.9823C192.891 47.7839 192.847 48.5867 192.819 49.3911C192.811 49.6202 192.807 49.8493 192.801 50.0784C192.765 50.1234 192.734 50.1695 192.713 50.2176C192.627 50.4142 192.685 50.6032 192.786 50.8098C192.784 50.9553 192.782 51.1008 192.781 51.2462C192.221 50.8545 191.553 50.2653 190.749 49.4259C190.024 48.6684 189.336 49.2242 188.893 49.8691C188.2 49.7499 187.539 49.8237 187.018 50.1987C183.53 52.7135 179.618 51.3793 179.562 52.1291C179.546 52.3454 179.696 52.5175 179.886 52.7041C181.409 54.2056 184.399 55.301 187.951 55.4165C190.739 55.5071 191.67 54.9224 191.903 54.7652C191.985 54.7099 192.169 54.5906 192.368 54.4229C192.527 54.5213 192.683 54.6106 192.839 54.692C192.9 56.1315 193.01 57.5694 193.172 59.0046C193.04 59.0138 192.914 59.0305 192.819 59.0379C191.469 59.1441 191.014 57.7381 188.974 57.2244C188.296 57.0538 186.991 56.8677 186.304 57.2244C186.204 57.2758 185.867 57.469 185.342 57.6366C185.032 57.7357 184.795 57.7816 184.701 57.8014C183.864 57.9781 183.089 58.4629 182.565 58.7906C181.58 59.4067 181.087 59.7148 180.856 60.2744C180.783 60.4506 180.578 60.946 180.856 61.4285C180.987 61.6565 181.291 61.9957 182.458 62.3353C183.152 62.5371 185.174 63.1259 187.585 62.5001C188.134 62.3577 187.715 62.4087 189.828 61.5934C191.491 60.9519 192.463 60.6453 192.606 60.0271C192.656 59.8098 192.605 59.5448 192.819 59.4501C192.938 59.3975 193.082 59.4231 193.226 59.463C193.366 60.6168 193.54 61.7688 193.752 62.9184H191.85C189.323 62.9184 187.057 64.0035 185.935 65.7502L178.819 76.8293C178.37 77.5285 178.133 78.3108 178.133 79.0914V107.58C178.133 110.389 181.094 112.674 184.733 112.674H201.343C204.983 112.674 207.944 110.389 207.944 107.58V81.3475C207.944 80.7081 207.791 80.0819 207.488 79.4865L200.706 66.1514C199.883 64.5342 198.102 63.3901 195.972 63.0359C196.655 62.411 197.34 61.7866 198.029 61.1642C198.897 61.4874 199.852 61.7528 200.879 61.9391C203.595 62.4319 204.652 61.9925 204.92 61.8718C205.175 61.7565 206.282 61.2879 206.469 60.5063C206.489 60.4225 206.497 60.3378 206.496 60.2524C209.278 61.998 210.729 62.8584 211.79 62.5715C212.702 62.3249 213.222 61.5166 213.52 60.7913C213.831 60.8247 214.162 60.8588 214.513 60.8951C218.324 61.2878 220.245 61.4699 220.979 60.7733C221.996 59.8093 221.031 57.9504 220.765 57.438C220.187 56.3245 219.298 55.647 218.745 55.2348C218.028 54.6996 215.983 53.1741 212.765 52.9706C212.065 52.9263 211.436 52.9603 210.796 53.0637C210.573 52.9062 210.337 52.7518 210.078 52.6053C209.584 52.326 209.096 52.1191 208.571 51.9574C209.377 51.2763 210.184 50.5973 210.996 49.9211C211.124 49.9662 211.246 50.0098 211.358 50.05C214.017 51.003 214.601 51.9362 217.158 52.4274C218.318 52.6503 219.632 52.9026 219.957 52.5233C220.534 51.8494 218.083 49.0763 214.294 47.2001C214.55 46.9914 214.806 46.7834 215.062 46.5752C215.408 46.6873 215.714 46.7966 215.974 46.8898C218.632 47.8428 219.217 48.776 221.774 49.2673C222.934 49.4902 224.247 49.7425 224.572 49.3632C225.087 48.7618 223.191 46.4887 220.085 44.673C220.939 44.4639 222.07 44.2322 223.535 44.2619C225.756 44.307 227.492 44.929 228.522 45.2983C231.181 46.2513 231.765 47.1845 234.322 47.6758C235.482 47.8987 236.795 48.151 237.12 47.7717C237.979 46.7697 232.147 41.1249 225.171 40.6916C224.629 40.658 224.142 40.6608 223.702 40.6859C223.642 40.6082 223.576 40.5284 223.506 40.4472C225.867 40.5057 230.476 39.9849 234.4 42.1108C235.531 42.7238 237.729 44.1657 241.407 45.3504C242.583 45.729 243.174 45.9152 243.337 45.7597C243.92 45.2032 239.074 40.6227 232.256 38.3662C229.553 37.4715 227.883 37.3869 226.695 37.5224C226.878 37.3613 227.056 37.1951 227.228 37.0281C229.883 35.0188 232.571 33.0305 235.283 31.069C235.152 31.3823 235.157 31.5491 235.3 31.6707ZM201.232 56.6789C198.233 55.9298 194.603 56.3323 193.656 57.1846C193.522 56.4292 193.406 55.6727 193.311 54.9147C194.677 55.5035 196.102 55.6612 198.806 55.9398C199.958 56.0584 200.934 56.1572 201.76 56.219C201.871 56.451 201.989 56.6598 202.126 56.8595C202.142 56.8827 202.159 56.9048 202.175 56.9277L202.152 56.9487C201.844 56.8457 201.535 56.7547 201.232 56.6789ZM193.265 46.5302C193.351 46.3112 193.353 46.078 193.287 45.8377C193.381 44.9668 193.497 44.0987 193.635 43.2331C193.631 43.3656 193.686 43.4982 193.76 43.6419C194.594 45.2576 196.846 46.8083 199.916 47.6128C200.489 47.7629 200.98 47.8576 201.403 47.9154C201.217 48.1657 201.075 48.4097 200.98 48.6354C199.933 47.9865 198.586 47.5146 197.057 48.0152C196.641 48.1515 196.394 48.6499 196.18 49.2458C194.768 49.2646 193.588 49.492 193.025 49.8767C193.028 49.7163 193.027 49.5562 193.033 49.3954C193.065 48.4794 193.123 47.5664 193.206 46.6562C193.228 46.6154 193.248 46.5736 193.265 46.5302ZM193.029 51.2417C193.09 51.3378 193.157 51.4335 193.226 51.5289C193.163 51.4932 193.099 51.4548 193.033 51.4133C193.031 51.3561 193.031 51.2988 193.029 51.2417ZM195.441 62.9656C195.276 62.9488 195.11 62.9368 194.943 62.9295C194.556 61.4484 194.199 59.9683 193.901 58.4854C194.686 59.4477 195.969 60.3287 197.602 60.9968C196.877 61.6514 196.158 62.3082 195.441 62.9656ZM208.096 51.8263C207.074 51.5728 205.874 51.4515 204.213 51.3027C203.792 50.8513 203.358 50.5188 203.038 50.2795C202.864 50.1499 202.597 49.8928 202.252 49.5921C203.147 49.3703 204.483 48.9753 206.371 49.0136C208.087 49.0484 209.51 49.427 210.545 49.7679C209.726 50.4513 208.91 51.1378 208.096 51.8263ZM213.892 47.0062C212.887 46.5376 211.797 46.1364 210.65 45.8544C210.761 45.8536 210.87 45.8511 210.986 45.8534C212.409 45.8823 213.631 46.1478 214.597 46.4319C214.362 46.6233 214.126 46.8144 213.892 47.0062Z" fill="#2F2E41"/>
<path d="M100.829 40.4585L119.904 36.1499L124.744 40.4585C124.744 40.4585 142.236 42.0742 147.354 51.0505C152.472 60.0267 171.78 105.626 171.78 105.626L146.307 108.768L110.948 86.6862C110.948 86.6862 99.7818 82.7324 100.829 73.2197C101.427 67.7851 99.709 61.0608 98.1263 56.2941C96.8275 52.3823 98.1578 48.2282 101.643 45.2159L100.829 40.4585Z" fill="#E6E6E6"/>
<path d="M1.03933 119.792C-0.192754 118.294 -0.338261 116.442 0.650181 114.839L15.3386 91.0217C16.4348 89.2442 18.7914 88.0957 21.3423 88.0957H206.868C209.348 88.0957 211.604 89.1485 212.756 90.8432L228.5 114.004C229.588 115.605 229.517 117.485 228.309 119.034C227.1 120.583 224.981 121.512 222.638 121.519L6.68 122.175H6.65297C4.3636 122.175 2.26642 121.285 1.03933 119.792Z" fill="white"/>
<path d="M1.03933 119.792C-0.192754 118.294 -0.338261 116.442 0.650181 114.839L15.3386 91.0217C16.4348 89.2442 18.7914 88.0957 21.3423 88.0957H206.868C209.348 88.0957 211.604 89.1485 212.756 90.8432L228.5 114.004C229.588 115.605 229.517 117.485 228.309 119.034C227.1 120.583 224.981 121.512 222.638 121.519L6.68 122.175H6.65297C4.3636 122.175 2.26642 121.285 1.03933 119.792ZM21.3423 88.6343C19.0592 88.6343 16.9499 89.6623 15.9688 91.2531L1.28037 115.07C0.395632 116.505 0.525804 118.162 1.62863 119.504C2.72703 120.84 4.60384 121.636 6.65308 121.636H6.67727L222.636 120.98C224.732 120.974 226.629 120.142 227.711 118.756C228.792 117.37 228.856 115.687 227.882 114.254L212.138 91.0933C211.107 89.5766 209.088 88.6343 206.868 88.6343H21.3423Z" fill="#3F3D56"/>
<path d="M42.7902 49.2037C40.2167 46.5557 36.3601 45.4339 34.1766 46.6981C31.9931 47.9624 32.3098 51.1334 34.8847 53.7821C35.8945 54.8511 37.2213 55.7179 38.7541 56.31L49.842 67.4238L56.4891 63.2972L44.8527 52.7791C44.5451 51.4773 43.8379 50.2513 42.7902 49.2037Z" fill="#FFB6B6"/>
<path d="M103.379 41.5587C103.379 41.5587 117.062 46.1519 117.006 51.0353C116.951 55.9187 91.767 88.3253 91.767 88.3253C91.767 88.3253 80.9487 93.6245 77.2717 90.5771C73.5946 87.5297 43.0154 63.1291 43.0154 63.1291L51.3463 55.4503L81.5972 75.7807L103.379 41.5587Z" fill="#E6E6E6"/>
<path d="M137.205 102.774L141.16 112.468L94.8669 114.622L98.8216 103.671L137.205 102.774Z" fill="#FFBB0E"/>
<path d="M86.2849 101.74L90.2395 111.434L43.9465 113.588L47.9012 102.637L86.2849 101.74Z" fill="#E6E6E6"/>
<path d="M200.454 95.1212L204.409 104.816L158.116 106.97L162.07 96.0188L200.454 95.1212Z" fill="#F24E1E"/>
<path d="M109.113 95.4163L97.1154 90.8628C97.0332 90.8316 96.9425 90.8161 96.851 90.8176L69.1606 91.2788L60.7342 66.857C60.7133 66.7964 60.6517 66.7491 60.573 66.7333L50.3814 64.6815C50.2124 64.6475 50.0595 64.768 50.1072 64.8977L60.2094 92.3612C60.2258 92.4059 60.2647 92.4436 60.3173 92.4661L70.7048 96.9006C70.785 96.9349 70.8706 96.926 70.9357 96.8933L70.9912 96.9422C71.1035 97.0413 71.2673 97.0964 71.4378 97.0926L108.878 96.2527C109.473 96.2393 109.648 95.6193 109.113 95.4163Z" fill="#3F3D56"/>
<path d="M97.295 88.6096C93.0069 88.6871 89.583 90.4575 89.6474 92.5635C89.7118 94.6695 93.2398 96.3132 97.5294 96.2352C99.2435 96.2221 100.929 95.8925 102.444 95.2739L120.607 94.7681L120.118 88.1954L102.264 89.3918C100.712 88.8285 99.0085 88.5603 97.295 88.6096Z" fill="#FFB6B6"/>
<path d="M124.44 46.1136C124.44 46.1136 137.235 40.1892 142.353 43.0616C147.471 45.934 167.011 80.5823 167.011 80.5823C167.011 80.5823 166.313 90.4562 160.963 90.9948C155.612 91.5334 112.111 96.5601 112.111 96.5601L108.854 86.8657L140.026 79.8643L124.44 46.1136Z" fill="#CCCCCC"/>
<path d="M46.5765 110.734C62.9065 110.734 76.1446 107.744 76.1446 104.055C76.1446 100.367 62.9065 97.3769 46.5765 97.3769C30.2466 97.3769 17.0085 100.367 17.0085 104.055C17.0085 107.744 30.2466 110.734 46.5765 110.734Z" fill="#3F3D56"/>
<path d="M76.0299 103.497C76.0299 106.264 63.2672 107.673 46.9372 107.673C30.6072 107.673 17.0693 106.264 17.0693 103.497C17.0693 100.731 30.6072 97.6552 46.9372 97.6552C63.2672 97.6552 76.0299 100.731 76.0299 103.497Z" fill="#2F2E41"/>
<path d="M24.0399 98.3508L19.3523 100.299C19.3523 100.299 19.7129 106.421 28.0063 106.142C36.2998 105.864 39.8915 104.751 39.7183 104.055C39.5451 103.36 39.9057 99.7422 36.6604 100.299C33.4151 100.855 28.7275 101.412 28.7275 101.412L24.0399 98.3508Z" fill="#F24E1E"/>
<path d="M39.6321 103.189C39.0308 103.876 35.3765 104.782 28.0063 105.029C21.8729 105.235 20.0798 101.942 19.5609 100.212L19.3523 100.299C19.3523 100.299 19.7129 106.421 28.0063 106.142C36.2998 105.864 39.8914 104.751 39.7183 104.055C39.6782 103.894 39.6664 103.575 39.6321 103.189Z" fill="#3F3D56"/>
<path d="M39.545 99.1857L34.8574 101.134C34.8574 101.134 35.218 107.256 43.5115 106.977C51.8049 106.699 55.3966 105.586 55.2234 104.89C55.0502 104.195 55.4108 100.577 52.1655 101.134C48.9203 101.69 44.2326 102.247 44.2326 102.247L39.545 99.1857Z" fill="#F24E1E"/>
<path d="M55.1372 104.023C54.5359 104.71 50.8816 105.617 43.5115 105.864C37.378 106.07 35.5849 102.777 35.0661 101.047L34.8574 101.134C34.8574 101.134 35.218 107.256 43.5115 106.977C51.8049 106.699 55.3965 105.586 55.2235 104.89C55.1833 104.729 55.1715 104.41 55.1372 104.023Z" fill="#3F3D56"/>
<path d="M43.151 93.3419L38.4634 95.2898C38.4634 95.2898 38.824 101.412 47.1174 101.134C55.4109 100.855 59.0026 99.7422 58.8294 99.0465C58.6562 98.3508 59.0167 94.7333 55.7715 95.2898C52.5262 95.8464 47.8386 96.4029 47.8386 96.4029L43.151 93.3419Z" fill="#F24E1E"/>
<path d="M58.7431 98.1798C58.1419 98.8668 54.4876 99.7732 47.1174 100.02C40.984 100.226 39.1909 96.9333 38.672 95.2031L38.4634 95.2898C38.4634 95.2898 38.824 101.412 47.1174 101.134C55.4109 100.855 59.0025 99.7422 58.8294 99.0465C58.7893 98.8853 58.7775 98.5664 58.7431 98.1798Z" fill="#3F3D56"/>
<path d="M59.0167 97.2377L54.3291 99.1857C54.3291 99.1857 54.6897 105.308 62.9832 105.029C71.2766 104.751 74.8683 103.638 74.6951 102.942C74.5219 102.247 74.8825 98.6291 71.6372 99.1857C68.3919 99.7422 63.7043 100.299 63.7043 100.299L59.0167 97.2377Z" fill="#F24E1E"/>
<path d="M74.6089 102.076C74.0076 102.763 70.3533 103.669 62.9832 103.916C56.8497 104.122 55.0566 100.829 54.5377 99.0989L54.3291 99.1857C54.3291 99.1857 54.6897 105.308 62.9832 105.029C71.2766 104.751 74.8682 103.638 74.6951 102.942C74.655 102.781 74.6432 102.462 74.6089 102.076Z" fill="#3F3D56"/>
<path d="M27.111 40.0415L20.3584 42.8475C20.3584 42.8475 20.8778 51.6664 32.8247 51.2655C44.7717 50.8647 49.9455 49.2613 49.696 48.2591C49.4465 47.257 49.966 42.0458 45.2911 42.8475C40.6162 43.6492 33.8636 44.451 33.8636 44.451L27.111 40.0415Z" fill="#FFBB0E"/>
<path d="M49.5718 47.0105C48.7057 48.0002 43.4416 49.3059 32.8247 49.6621C23.9893 49.9585 21.4064 45.2149 20.6589 42.7226L20.3584 42.8475C20.3584 42.8475 20.8778 51.6664 32.8247 51.2655C44.7717 50.8647 49.9454 49.2613 49.6961 48.2591C49.6383 48.0269 49.6213 47.5675 49.5718 47.0105Z" fill="#3F3D56"/>
<path d="M104.013 36.0903C113.415 36.0903 121.037 30.2084 121.037 22.9526C121.037 15.6969 113.415 9.81503 104.013 9.81503C94.6113 9.81503 86.9895 15.6969 86.9895 22.9526C86.9895 30.2084 94.6113 36.0903 104.013 36.0903Z" fill="#FFB6B6"/>
<path d="M108.025 26.7492L103.39 22.2945L100.645 15.9174C100.645 15.9174 83.3262 20.8683 87.0993 13.7304C90.8724 6.59247 102.792 3.82509 111.809 8.11775L115.772 10.4829C115.772 10.4829 107.008 5.48766 111.487 3.04655C115.966 0.605434 114.895 -0.658653 117.755 0.785213C120.616 2.22908 119.514 3.6878 122.405 2.40886C125.297 1.12991 131.616 -0.795937 130.999 0.959344C130.382 2.71463 137.596 6.48866 135.489 8.71736C133.382 10.9461 136.16 14.7772 131.662 14.1601C127.163 13.5429 130.094 18.3805 125.878 16.718C125.878 16.718 129.565 19.5886 127.309 22.1705C125.054 24.7525 121.173 26.0261 122.112 29.342C123.051 32.6579 112.717 34.2814 112.717 34.2814L112.056 24.4157C112.056 24.4157 109.225 23.0115 108.025 26.7492Z" fill="#2F2E41"/>
</g>
<defs>
<clipPath id="clip0_13_976">
<rect width="245" height="122" fill="white" transform="translate(0 0.174927)"/>
</clipPath>
</defs>
</svg>
