<svg width="245" height="123" viewBox="0 0 245 123" fill="none" xmlns="http://www.w3.org/2000/svg">
<g clip-path="url(#clip0_13_1009)">
<path d="M189.903 20.4065C189.447 19.7685 187.476 20.4516 187.114 19.8726C186.753 19.2958 188.584 18.4167 189.63 16.4087C189.819 16.0466 191.008 13.7646 190.128 13.0605C188.459 11.7258 180.825 17.2337 178.154 15.4313C177.568 15.0357 177.158 14.2461 175.384 12.964C174.678 12.4539 174.251 12.2236 173.838 12.3093C173.251 12.4309 173.205 13.0824 172.576 14.3635C171.634 16.2848 171.076 16.1688 170.527 17.7016C170.119 18.8395 170.212 19.5011 169.733 19.6299C169.054 19.8123 168.429 18.6054 167.568 18.7134C166.69 18.8237 166.16 20.229 165.992 21.2812C165.677 23.2557 166.55 24.5586 167.034 25.9285C167.56 27.4174 167.872 29.6816 166.658 32.8869L154.637 61.014C157.291 55.2424 164.975 39.4209 168.204 33.5415C169.136 31.8442 170.165 30.1227 172.278 29.4433C174.313 28.7891 177.107 29.1797 180.669 28.467C181.085 28.3838 182.239 28.1398 182.385 27.5759C182.505 27.1097 181.826 26.8494 181.93 26.4128C182.07 25.8271 183.405 25.8199 185.046 25.1441C186.203 24.6676 186.924 24.101 187.544 23.6137C187.731 23.4667 190.509 21.2558 189.903 20.4065Z" fill="#F2F2F2"/>
<path d="M142.611 35.2138C142.103 35.2154 141.938 36.2159 141.491 36.1965C141.046 36.1772 141.055 35.1772 140.17 34.1714C140.01 33.99 139.005 32.847 138.335 33.0026C137.065 33.2975 138.117 37.9984 136.281 38.5673C135.878 38.6922 135.293 38.6313 134.023 38.9847C133.518 39.1252 133.259 39.2328 133.19 39.4259C133.093 39.6999 133.465 39.9069 134.041 40.5327C134.904 41.4713 134.675 41.6651 135.422 42.3312C135.977 42.8257 136.395 42.9786 136.332 43.2114C136.244 43.5408 135.351 43.4472 135.166 43.8291C134.978 44.2188 135.655 44.8407 136.229 45.2126C137.305 45.9106 138.327 45.9306 139.276 46.1286C140.308 46.3439 141.736 46.8699 143.28 48.2898L156.434 61.3051C153.789 58.5581 146.656 50.861 144.113 47.8485C143.378 46.9789 142.658 46.0627 142.866 45.0053C143.067 43.9872 144.104 42.961 144.71 41.3034C144.781 41.1098 144.97 40.5689 144.679 40.3469C144.438 40.1634 144.088 40.3651 143.86 40.1966C143.554 39.9706 143.935 39.4242 144.01 38.5603C144.062 37.9512 143.935 37.4938 143.826 37.1005C143.793 36.982 143.288 35.2117 142.611 35.2138Z" fill="#F2F2F2"/>
<path d="M152.755 37.1049L152.449 34.8337L152.589 34.6616C153.236 33.8654 153.567 33.0879 153.57 32.3498C153.571 32.2325 153.565 32.1151 153.558 31.9956C153.532 31.5218 153.499 30.9329 153.868 30.2464C154.076 29.8637 154.658 28.9776 155.533 29.0873C155.769 29.1147 155.947 29.2046 156.083 29.3099C156.102 29.2836 156.123 29.2572 156.145 29.2287C156.417 28.8833 156.633 28.7352 156.841 28.5927C157.001 28.483 157.166 28.3701 157.425 28.1025C157.538 27.9851 157.627 27.882 157.702 27.7954C157.928 27.5333 158.224 27.2208 158.745 27.2262C159.303 27.2482 159.594 27.6309 159.788 27.8842C160.133 28.336 160.29 28.6618 160.393 28.8778C160.431 28.9568 160.474 29.0456 160.496 29.073C160.675 29.2923 162.135 29.0873 162.685 29.0127C163.92 28.8416 164.989 28.6936 165.43 29.3406C165.745 29.8034 165.511 30.4153 164.712 31.2082C164.463 31.4549 164.198 31.6425 163.963 31.7894C164.158 31.8859 164.332 32.034 164.403 32.2665C164.569 32.817 164 33.3686 162.71 33.9082C162.39 34.0431 161.959 34.2229 161.355 34.3096C161.07 34.3501 160.814 34.36 160.595 34.3655C160.59 34.4708 160.56 34.5848 160.483 34.7022C160.257 35.0476 159.785 35.2121 159.075 35.1726C158.293 35.1386 157.649 35.0147 157.082 34.9061C156.586 34.8118 156.159 34.7318 155.823 34.7504C155.201 34.7921 154.722 35.2055 154.159 35.7418L152.755 37.1049Z" fill="#F2F2F2"/>
<path d="M154.176 23.5823L151.609 24.4045L151.373 24.3357C150.281 24.0174 149.292 23.9494 148.431 24.1334C148.294 24.1627 148.159 24.1977 148.022 24.2334C147.477 24.3747 146.799 24.5506 145.906 24.4277C145.407 24.3583 144.228 24.1152 144.133 23.3841C144.105 23.1878 144.165 23.0218 144.253 22.8864C144.218 22.8771 144.182 22.8674 144.143 22.8571C143.671 22.7256 143.444 22.5898 143.225 22.4588C143.057 22.3583 142.884 22.2544 142.506 22.1143C142.341 22.0529 142.198 22.0079 142.079 21.97C141.716 21.8545 141.277 21.6962 141.151 21.2758C141.035 20.8226 141.407 20.4911 141.653 20.2714C142.092 19.8794 142.431 19.6711 142.657 19.533C142.739 19.4827 142.832 19.4257 142.858 19.4013C143.068 19.2014 142.459 18.0807 142.232 17.6578C141.72 16.7088 141.276 15.8876 141.918 15.3698C142.377 14.9988 143.149 15.0319 144.275 15.4726C144.626 15.6099 144.911 15.7751 145.142 15.9266C145.205 15.7457 145.333 15.5681 145.586 15.4524C146.185 15.1791 146.972 15.4969 147.928 16.3959C148.166 16.6189 148.485 16.9196 148.739 17.383C148.859 17.6013 148.935 17.8046 148.997 17.9793C149.121 17.9563 149.261 17.9512 149.417 17.9835C149.877 18.0778 150.188 18.4148 150.323 18.9955C150.481 19.6321 150.5 20.1807 150.518 20.6644C150.534 21.0866 150.549 21.4501 150.656 21.7148C150.862 22.2039 151.465 22.4841 152.232 22.7999L154.176 23.5823Z" fill="#F2F2F2"/>
<path d="M152.755 16.8914L152.449 14.6202L152.589 14.448C153.236 13.6518 153.567 12.8743 153.57 12.1363C153.571 12.0189 153.565 11.9016 153.558 11.782C153.532 11.3083 153.499 10.7194 153.868 10.0329C154.076 9.65016 154.658 8.76405 155.533 8.87372C155.769 8.90114 155.947 8.99105 156.083 9.09633C156.102 9.07002 156.123 9.04369 156.145 9.01518C156.417 8.66973 156.633 8.52169 156.841 8.37912C157.001 8.26946 157.166 8.15651 157.425 7.88892C157.538 7.77158 157.627 7.66849 157.702 7.58186C157.928 7.31976 158.224 7.00721 158.745 7.01269C159.303 7.03463 159.594 7.41736 159.788 7.67068C160.133 8.1225 160.29 8.44822 160.393 8.66425C160.431 8.74321 160.474 8.83203 160.496 8.85946C160.675 9.07879 162.135 8.87371 162.685 8.79913C163.92 8.62805 164.989 8.48001 165.43 9.12704C165.745 9.58982 165.511 10.2018 164.712 10.9946C164.463 11.2414 164.198 11.4289 163.963 11.5759C164.158 11.6724 164.332 11.8204 164.403 12.0529C164.569 12.6034 164 13.1551 162.71 13.6946C162.39 13.8295 161.959 14.0094 161.355 14.096C161.07 14.1366 160.814 14.1465 160.595 14.1519C160.59 14.2572 160.56 14.3713 160.483 14.4886C160.257 14.8341 159.785 14.9985 159.075 14.9591C158.293 14.9251 157.649 14.8012 157.082 14.6926C156.586 14.5983 156.159 14.5182 155.823 14.5369C155.201 14.5785 154.722 14.992 154.159 15.5282L152.755 16.8914Z" fill="#F2F2F2"/>
<path d="M155.553 60.977L154.98 60.6787L154.312 60.7423C154.301 60.6907 154.265 60.5723 154.21 60.387C153.911 59.3714 152.999 56.2811 152.239 51.4141C151.708 48.0167 151.407 44.5238 151.345 41.031C151.283 37.5326 151.483 34.8842 151.643 32.7556C151.763 31.1501 151.91 29.6214 152.054 28.1321C152.437 24.1534 152.798 20.3952 152.529 16.2345C152.47 15.3056 152.345 13.3722 150.985 11.3149C150.196 10.1217 149.109 9.06236 147.754 8.16749L148.597 7.28798C150.092 8.27716 151.295 9.45059 152.171 10.7754C153.679 13.0564 153.815 15.1631 153.88 16.1753C154.153 20.4095 153.788 24.2039 153.401 28.221C153.259 29.7047 153.112 31.2269 152.992 32.8258C152.834 34.9347 152.636 37.5601 152.698 41.0134C152.758 44.4646 153.055 47.9147 153.579 51.2694C154.33 56.0749 155.229 59.1192 155.524 60.1194C155.681 60.6535 155.714 60.7653 155.553 60.977Z" fill="#F2F2F2"/>
<path d="M145.275 9.95175C145.219 9.95175 145.163 9.95066 145.106 9.94736C143.955 9.89582 142.888 9.32336 141.936 8.24645C141.49 7.73979 141.262 7.16185 140.806 6.00927C140.735 5.83161 140.392 4.93016 140.183 3.68984C140.047 2.8794 140.064 2.54055 140.257 2.24116C140.472 1.90777 140.819 1.67528 141.21 1.51847C141.193 1.41099 141.207 1.30023 141.263 1.18727C141.493 0.719001 142.106 0.780416 142.437 0.810024C142.605 0.827568 142.814 0.850602 143.04 0.840725C143.395 0.826475 143.586 0.738732 143.875 0.607131C144.152 0.481015 144.496 0.324193 145.006 0.237557C146.013 0.0631914 146.856 0.300071 147.134 0.377923C148.596 0.78259 149.317 1.72681 150.152 2.82017C150.318 3.0395 150.889 3.83786 151.266 4.93233C151.538 5.72192 151.5 6.07285 151.418 6.33386C151.252 6.87012 150.859 7.17718 149.861 7.85492C148.819 8.56446 148.296 8.91978 147.847 9.13582C146.802 9.63699 146.146 9.95175 145.275 9.95175Z" fill="#F2F2F2"/>
<path d="M107.409 69.8509C103.203 71.6738 100.927 74.9534 102.325 77.1759C103.722 79.3983 108.263 79.7217 112.469 77.8977C114.162 77.1883 115.625 76.1525 116.736 74.8772L134.437 66.9667L129.79 60.1474L112.834 68.6697C110.938 68.698 109.078 69.103 107.409 69.8509Z" fill="#FFB6B6"/>
<path d="M121.589 64.5232V55.3334C121.589 54.8034 122.108 54.3723 122.746 54.3723H128.1C128.738 54.3723 129.258 54.8034 129.258 55.3334V64.5232C129.258 65.0531 128.738 65.4842 128.1 65.4842H122.746C122.108 65.4842 121.589 65.0531 121.589 64.5232Z" fill="#E44420"/>
<path d="M198.108 49.733C206.867 49.733 213.968 43.8359 213.968 36.5614C213.968 29.287 206.867 23.3898 198.108 23.3898C189.349 23.3898 182.248 29.287 182.248 36.5614C182.248 43.8359 189.349 49.733 198.108 49.733Z" fill="#FF6884"/>
<path d="M182.445 120.088L164.524 120.293L157.339 53.7568C157.164 52.1418 157.792 50.5089 159.062 49.277L176.685 32.1786C179.152 29.7853 183.346 29.3534 186.442 31.175L208.514 44.1627C210.314 45.2223 211.43 46.8788 211.575 48.7077L227.687 93.6611L225.526 108.653L225.547 108.673L228.101 119.565L182.445 120.088Z" fill="#E6E6E6"/>
<path d="M178.691 47.6494L178.403 44.5612C178.327 43.7461 179.063 43.0314 180.045 42.9681L185.269 42.6314C186.251 42.5681 187.111 43.1799 187.187 43.995L187.476 47.0832C187.552 47.8984 186.816 48.6131 185.834 48.6763L180.61 49.0131C179.628 49.0763 178.768 48.4646 178.691 47.6494Z" fill="#E44420"/>
<path d="M169.888 72.3325L168.82 60.9064C168.744 60.0913 169.481 59.3766 170.462 59.3134L178.197 58.8148C179.178 58.7516 180.039 59.3633 180.115 60.1785L181.183 71.6045C181.259 72.4197 180.522 73.1343 179.541 73.1976L171.806 73.6961C170.825 73.7594 169.964 73.1476 169.888 72.3325Z" fill="#3F3D56"/>
<path d="M189.87 97.9515C188.933 97.9843 188.12 97.4029 188.02 96.6281L186.597 85.6095C186.536 85.1392 186.741 84.6853 187.159 84.3636C187.576 84.0422 188.137 83.9078 188.697 83.9933L189.097 84.0548C189.891 84.1771 190.489 84.7294 190.551 85.3981L191.575 96.3553C191.613 96.76 191.455 97.1502 191.131 97.454C190.821 97.7443 190.398 97.9183 189.935 97.9482C189.914 97.9496 189.892 97.9507 189.87 97.9515Z" fill="#3F3D56"/>
<path d="M173.5 97.4736L172.429 86.0144C172.354 85.2055 173.056 84.5071 174.028 84.4244L181.044 83.8291C182.018 83.7551 182.897 84.3373 183.001 85.1467L184.49 96.7221C184.542 97.124 184.399 97.5166 184.088 97.8274C183.777 98.1383 183.338 98.3267 182.853 98.358L175.418 98.8372C174.437 98.9004 173.576 98.2887 173.5 97.4736Z" fill="#3F3D56"/>
<path d="M215.782 102.626L222.052 110.406L223.539 119.514L227.948 119.462L225.429 108.72L215.42 98.8802C214.749 100.096 214.886 101.514 215.782 102.626Z" fill="#CCCCCC"/>
<path d="M223.119 116.907L205.255 118.262L205.278 118.47L223.142 117.115L223.119 116.907Z" fill="#3F3D56"/>
<path d="M221.862 115.137L204.917 116.34L204.938 116.548L221.883 115.345L221.862 115.137Z" fill="#3F3D56"/>
<path d="M220.806 113.314L204.612 114.622L204.636 114.83L220.831 113.522L220.806 113.314Z" fill="#3F3D56"/>
<path d="M220.128 111.477L204.593 112.91L204.621 113.118L220.156 111.684L220.128 111.477Z" fill="#3F3D56"/>
<path d="M219.219 109.86L204.296 111.262L204.324 111.47L219.248 110.068L219.219 109.86Z" fill="#3F3D56"/>
<path d="M218.083 108.46L203.508 109.399L203.527 109.608L218.102 108.668L218.083 108.46Z" fill="#3F3D56"/>
<path d="M217.191 107.046L203.04 108.097L203.062 108.305L217.214 107.254L217.191 107.046Z" fill="#3F3D56"/>
<path d="M216.299 105.636L202.609 106.9L202.637 107.108L216.327 105.844L216.299 105.636Z" fill="#3F3D56"/>
<path d="M215.664 104.217L202.129 105.289L202.153 105.497L215.688 104.425L215.664 104.217Z" fill="#3F3D56"/>
<path d="M214.523 102.838L201.577 104.012L201.604 104.22L214.551 103.046L214.523 102.838Z" fill="#3F3D56"/>
<path d="M213.905 101.599L201.052 102.533L201.074 102.741L213.927 101.807L213.905 101.599Z" fill="#3F3D56"/>
<path d="M199.701 98.1964L198.38 84.0606C198.304 83.2454 199.041 82.5307 200.022 82.4674L208.258 81.9366C209.24 81.8733 210.1 82.485 210.177 83.3003L211.498 97.4361C211.574 98.2512 210.837 98.9659 209.856 99.0291L201.619 99.56C200.638 99.6232 199.777 99.0115 199.701 98.1964Z" fill="#E44420"/>
<path d="M182.445 120.088L167.793 120.257L167.675 120.258L166.8 110.887C166.689 109.702 167.76 108.662 169.187 108.571L183.588 107.642C185.015 107.55 186.266 108.44 186.377 109.625L187.325 119.774L187.2 119.782L182.445 120.088Z" fill="#CCCCCC"/>
<path d="M198.309 72.4929L197.3 61.6921C197.224 60.877 197.96 60.1623 198.942 60.099L201.656 59.9241C202.638 59.8608 203.498 60.4725 203.575 61.2877L204.584 72.0885C204.66 72.9035 203.924 73.6182 202.942 73.6815L200.227 73.8564C199.246 73.9197 198.385 73.308 198.309 72.4929Z" fill="#3F3D56"/>
<path d="M205.494 119.651L203.883 110.528L200.806 101.919L199.955 99.5624C198.598 98.9173 196.937 99.8393 197.136 101.128L197.293 102.146L200.37 110.755L201.98 119.878" fill="#CCCCCC"/>
<path d="M25.1354 121.77L7.21369 121.975L0.0286181 55.4383C-0.145721 53.8233 0.482365 52.1904 1.75205 50.9585L19.3746 33.8601C21.8416 31.4668 26.036 31.035 29.1317 32.8566L51.2036 45.8443C53.0043 46.9038 54.1201 48.5604 54.2649 50.3892L70.3765 95.3426L68.2155 110.334L68.2367 110.355L70.7906 121.247L25.1354 121.77Z" fill="#E6E6E6"/>
<path d="M21.3814 49.331L21.0928 46.2428C21.0166 45.4276 21.7532 44.7129 22.7347 44.6497L27.9593 44.3129C28.9408 44.2497 29.8012 44.8614 29.8774 45.6766L30.166 48.7648C30.2421 49.5799 29.5057 50.2946 28.5241 50.3579L23.2996 50.6946C22.3181 50.7579 21.4576 50.1461 21.3814 49.331Z" fill="#E44420"/>
<path d="M12.578 74.014L11.5103 62.588C11.4341 61.7728 12.1707 61.0581 13.1522 60.9949L20.8866 60.4964C21.8682 60.4331 22.7286 61.0449 22.8047 61.86L23.8725 73.2861C23.9486 74.1012 23.2122 74.8159 22.2306 74.8791L14.4962 75.3776C13.5147 75.4409 12.6542 74.8292 12.578 74.014Z" fill="#3F3D56"/>
<path d="M32.5603 99.6331C31.6229 99.6658 30.8102 99.0844 30.7099 98.3096L29.2869 87.2911C29.2261 86.8207 29.4309 86.3668 29.8487 86.0452C30.2664 85.7238 30.8273 85.5893 31.3874 85.6749L31.7865 85.7364C32.5806 85.8587 33.1789 86.4109 33.2414 87.0796L34.2653 98.0368C34.3031 98.4415 34.1453 98.8318 33.8209 99.1355C33.511 99.4258 33.0884 99.5998 32.6252 99.6297C32.6036 99.6311 32.582 99.6323 32.5603 99.6331Z" fill="#3F3D56"/>
<path d="M16.1899 99.1552L15.1191 87.696C15.0435 86.887 15.7457 86.1887 16.7177 86.106L23.7341 85.5106C24.7075 85.4366 25.5867 86.0189 25.691 86.8282L27.1801 98.4036C27.2317 98.8056 27.0889 99.1981 26.7776 99.509C26.4667 99.8198 26.0281 100.008 25.5429 100.04L18.1081 100.519C17.1266 100.582 16.2661 99.9702 16.1899 99.1552Z" fill="#3F3D56"/>
<path d="M58.4719 104.307L64.7419 112.087L66.2293 121.195L70.6382 121.144L68.1193 110.402L58.1099 100.562C57.439 101.778 57.576 103.196 58.4719 104.307Z" fill="#3E3737"/>
<path d="M65.8086 118.588L47.9451 119.944L47.968 120.152L65.8315 118.796L65.8086 118.588Z" fill="#3F3D56"/>
<path d="M64.5518 116.818L47.6067 118.021L47.6281 118.229L64.5732 117.027L64.5518 116.818Z" fill="#3F3D56"/>
<path d="M63.4961 114.995L47.302 116.304L47.3264 116.512L63.5205 115.203L63.4961 114.995Z" fill="#3F3D56"/>
<path d="M62.818 113.158L47.283 114.591L47.3108 114.799L62.8458 113.366L62.818 113.158Z" fill="#3F3D56"/>
<path d="M61.9094 111.542L46.9858 112.943L47.0141 113.151L61.9377 111.75L61.9094 111.542Z" fill="#3F3D56"/>
<path d="M60.7727 110.141L46.1975 111.081L46.217 111.289L60.7922 110.35L60.7727 110.141Z" fill="#3F3D56"/>
<path d="M59.8814 108.727L45.7295 109.778L45.7519 109.986L59.9038 108.935L59.8814 108.727Z" fill="#3F3D56"/>
<path d="M58.9894 107.318L45.2993 108.581L45.3271 108.789L59.0172 107.526L58.9894 107.318Z" fill="#3F3D56"/>
<path d="M58.3542 105.899L44.8191 106.97L44.843 107.178L58.378 106.107L58.3542 105.899Z" fill="#3F3D56"/>
<path d="M57.2132 104.52L44.2671 105.693L44.2944 105.901L57.2405 104.728L57.2132 104.52Z" fill="#3F3D56"/>
<path d="M56.5953 103.281L43.7419 104.214L43.7639 104.422L56.6172 103.489L56.5953 103.281Z" fill="#3F3D56"/>
<path d="M42.3911 99.878L41.0701 85.7421C40.9939 84.9269 41.7305 84.2122 42.712 84.149L50.9484 83.6181C51.9299 83.5548 52.7903 84.1666 52.8665 84.9818L54.1875 99.1177C54.2636 99.9327 53.5272 100.647 52.5457 100.711L44.3093 101.242C43.3278 101.305 42.4672 100.693 42.3911 99.878Z" fill="#E44420"/>
<path d="M25.1354 121.77L10.4834 121.938L10.3653 121.939L9.48956 112.568C9.37882 111.383 10.4496 110.344 11.8766 110.252L26.2778 109.324C27.7048 109.232 28.9558 110.121 29.0666 111.306L30.015 121.455L29.8895 121.463L25.1354 121.77Z" fill="#3E3737"/>
<path d="M40.9991 74.1745L39.9898 63.3736C39.9136 62.5585 40.6502 61.8438 41.6317 61.7806L44.3464 61.6056C45.3279 61.5423 46.1883 62.1541 46.2645 62.9692L47.2738 73.77C47.3499 74.5851 46.6135 75.2997 45.632 75.363L42.9173 75.538C41.9358 75.6012 41.0753 74.9895 40.9991 74.1745Z" fill="#3F3D56"/>
<path d="M48.1834 121.333L46.5734 112.21L43.4964 103.601L42.645 101.244C41.2875 100.599 39.6269 101.521 39.8256 102.809L39.9826 103.827L43.0596 112.436L44.6696 121.559" fill="#3E3737"/>
<path d="M119.638 120.781L101.716 120.986L94.5311 54.4497C94.3567 52.8347 94.9848 51.2019 96.2545 49.9699L113.877 32.8715C116.344 30.4779 120.538 30.0465 123.634 31.868L145.706 44.8557C147.507 45.9152 157.194 51.928 157.339 53.7568L152.735 99.532L162.718 109.346L162.739 109.366L165.293 120.258L119.638 120.781Z" fill="#E6E6E6"/>
<path d="M115.884 48.3424L115.596 45.2542C115.519 44.439 116.256 43.7243 117.238 43.6611L122.462 43.3243C123.443 43.2611 124.304 43.8728 124.38 44.688L124.669 47.7762C124.745 48.5913 124.008 49.306 123.027 49.3693L117.802 49.706C116.821 49.7693 115.96 49.1575 115.884 48.3424Z" fill="#E44420"/>
<path d="M107.08 73.0254L106.013 61.5994C105.937 60.7842 106.673 60.0696 107.655 60.0063L115.389 59.5078C116.37 59.4445 117.231 60.0563 117.307 60.8714L118.375 72.2975C118.451 73.1126 117.714 73.8273 116.733 73.8906L108.999 74.3891C108.017 74.4523 107.157 73.8406 107.08 73.0254Z" fill="#3F3D56"/>
<path d="M124.522 85.21C124.164 85.486 123.988 85.8762 124.04 86.2802L125.463 97.2987C125.549 97.9643 126.247 98.4636 127.052 98.4355C127.476 98.4223 127.857 98.2689 128.135 98.0081C128.414 97.7473 128.549 97.4121 128.517 97.0644L127.493 86.1072C127.439 85.5327 126.926 85.0584 126.243 84.9535L125.844 84.892C125.709 84.8712 125.574 84.8654 125.441 84.8739C125.102 84.8958 124.781 85.0115 124.522 85.21Z" fill="#3F3D56"/>
<path d="M103.308 99.7592C102.932 99.5007 102.703 99.1353 102.665 98.7306L101.641 87.7734C101.579 87.1047 102.067 86.4824 102.829 86.2599L103.212 86.1479C103.749 85.9917 104.329 86.0526 104.801 86.3167C105.274 86.5809 105.561 87.0033 105.588 87.4756L106.229 98.5446C106.274 99.3229 105.579 100.002 104.647 100.089C104.625 100.091 104.603 100.093 104.582 100.094C104.119 100.124 103.669 100.006 103.308 99.7592Z" fill="#3F3D56"/>
<path d="M152.975 103.319L159.245 111.099L160.732 120.207L165.141 120.155L162.622 109.413L152.613 99.5731C151.942 100.789 152.079 102.207 152.975 103.319Z" fill="#CCCCCC"/>
<path d="M160.311 117.599L142.448 118.955L142.47 119.163L160.334 117.808L160.311 117.599Z" fill="#3F3D56"/>
<path d="M159.054 115.83L142.109 117.033L142.131 117.241L159.076 116.038L159.054 115.83Z" fill="#3F3D56"/>
<path d="M157.999 114.007L141.805 115.315L141.829 115.523L158.023 114.215L157.999 114.007Z" fill="#3F3D56"/>
<path d="M157.32 112.169L141.785 113.603L141.813 113.811L157.348 112.377L157.32 112.169Z" fill="#3F3D56"/>
<path d="M156.412 110.553L141.488 111.955L141.517 112.163L156.44 110.761L156.412 110.553Z" fill="#3F3D56"/>
<path d="M155.275 109.153L140.7 110.092L140.719 110.301L155.295 109.361L155.275 109.153Z" fill="#3F3D56"/>
<path d="M154.384 107.739L140.232 108.789L140.255 108.998L154.406 107.947L154.384 107.739Z" fill="#3F3D56"/>
<path d="M153.492 106.329L139.802 107.593L139.83 107.8L153.52 106.537L153.492 106.329Z" fill="#3F3D56"/>
<path d="M152.857 104.91L139.322 105.982L139.345 106.19L152.88 105.118L152.857 104.91Z" fill="#3F3D56"/>
<path d="M151.716 103.531L138.77 104.705L138.797 104.912L151.743 103.739L151.716 103.531Z" fill="#3F3D56"/>
<path d="M151.098 102.292L138.244 103.225L138.266 103.434L151.12 102.5L151.098 102.292Z" fill="#3F3D56"/>
<path d="M136.894 98.8894L135.573 84.7535C135.496 83.9383 136.233 83.2236 137.214 83.1604L145.451 82.6295C146.432 82.5662 147.293 83.178 147.369 83.9932L148.69 98.1291C148.766 98.9441 148.03 99.6588 147.048 99.722L138.812 100.253C137.83 100.316 136.97 99.7044 136.894 98.8894Z" fill="#E44420"/>
<path d="M119.638 120.781L104.986 120.949L104.868 120.951L103.992 111.58C103.881 110.395 104.952 109.355 106.379 109.263L120.78 108.335C122.207 108.243 123.458 109.133 123.569 110.318L124.517 120.467L124.392 120.475L119.638 120.781Z" fill="#CCCCCC"/>
<path d="M135.502 73.1858L134.492 62.385C134.416 61.5699 135.153 60.8552 136.134 60.792L138.849 60.617C139.831 60.5537 140.691 61.1655 140.767 61.9806L141.776 72.7813C141.853 73.5965 141.116 74.3111 140.135 74.3744L137.42 74.5494C136.438 74.6126 135.578 74.0009 135.502 73.1858Z" fill="#3F3D56"/>
<path d="M142.686 120.344L141.076 111.221L137.999 102.612L137.148 100.255C135.79 99.6103 134.13 100.532 134.328 101.821L134.485 102.839L137.562 111.448L139.172 120.571" fill="#CCCCCC"/>
<path d="M244.994 119.286L15.4807 121.757L15.4872 122.175L245 119.704L244.994 119.286Z" fill="#CCCCCC"/>
<path d="M121.963 79.4783C121.507 78.8403 119.537 79.5234 119.174 78.9444C118.813 78.3675 120.644 77.4885 121.691 75.4805C121.879 75.1184 123.068 72.8364 122.188 72.1323C120.52 70.7976 112.886 76.3055 110.214 74.503C109.628 74.1075 109.218 73.3178 107.444 72.0357C106.738 71.5257 106.311 71.2954 105.898 71.3811C105.312 71.5026 105.265 72.1542 104.637 73.4353C103.694 75.3565 103.137 75.2405 102.587 76.7734C102.18 77.9113 102.273 78.5728 101.793 78.7017C101.114 78.8841 100.489 77.6771 99.6287 77.7852C98.7507 77.8955 98.2199 79.3008 98.0522 80.353C97.7376 82.3274 98.6107 83.6303 99.0946 85.0003C99.6205 86.4891 99.9326 88.7533 98.7182 91.9586L86.6978 120.086C89.3515 114.314 97.0353 98.4926 100.264 92.6133C101.196 90.916 102.225 89.1945 104.338 88.515C106.373 87.8609 109.167 88.2514 112.729 87.5387C113.145 87.4555 114.3 87.2116 114.445 86.6476C114.565 86.1814 113.886 85.9212 113.99 85.4845C114.13 84.8988 115.466 84.8916 117.107 84.2159C118.264 83.7394 118.985 83.1727 119.604 82.6854C119.791 82.5385 122.57 80.3275 121.963 79.4783Z" fill="#F2F2F2"/>
<path d="M74.6713 94.2856C74.1628 94.2872 73.9979 95.2876 73.5512 95.2683C73.1061 95.249 73.115 94.249 72.2301 93.2431C72.0706 93.0618 71.065 91.9187 70.3949 92.0743C69.1248 92.3692 70.1772 97.0702 68.3412 97.6391C67.9382 97.7639 67.3534 97.703 66.0837 98.0564C65.5786 98.197 65.3194 98.3046 65.2508 98.4977C65.1535 98.7717 65.5251 98.9786 66.1009 99.6044C66.9643 100.543 66.7349 100.737 67.4823 101.403C68.0371 101.897 68.4549 102.05 68.3927 102.283C68.3046 102.613 67.411 102.519 67.2266 102.901C67.0384 103.291 67.7158 103.912 68.2892 104.284C69.3653 104.982 70.3872 105.002 71.3364 105.2C72.368 105.416 73.7962 105.942 75.34 107.362L88.4941 120.377C85.849 117.63 78.7159 109.933 76.1729 106.92C75.4388 106.051 74.7184 105.134 74.9266 104.077C75.127 103.059 76.164 102.033 76.7706 100.375C76.8414 100.182 77.0303 99.6406 76.739 99.4187C76.4982 99.2352 76.1484 99.4369 75.9205 99.2684C75.6147 99.0423 75.9958 98.496 76.0699 97.6321C76.1222 97.023 75.9953 96.5656 75.8861 96.1723C75.8532 96.0537 75.3482 94.2834 74.6713 94.2856Z" fill="#F2F2F2"/>
<path d="M84.8154 96.1767L84.509 93.9055L84.649 93.7333C85.2967 92.9372 85.6268 92.1596 85.6308 91.4216C85.6314 91.3042 85.6248 91.1869 85.6182 91.0674C85.5918 90.5936 85.5588 90.0047 85.9285 89.3182C86.1359 88.9355 86.7182 88.0494 87.5937 88.159C87.8294 88.1864 88.0076 88.2764 88.143 88.3816C88.1628 88.3553 88.1833 88.329 88.205 88.3005C88.4777 87.955 88.6936 87.807 88.9016 87.6644C89.0614 87.5548 89.2264 87.4418 89.4852 87.1742C89.5988 87.0569 89.6873 86.9538 89.7619 86.8672C89.9883 86.6051 90.2841 86.2925 90.8057 86.298C91.3629 86.3199 91.6548 86.7027 91.8482 86.956C92.1935 87.4078 92.35 87.7335 92.4537 87.9496C92.4913 88.0285 92.5342 88.1173 92.556 88.1448C92.7356 88.3641 94.1954 88.159 94.7453 88.0844C95.9806 87.9134 97.0496 87.7653 97.4899 88.4123C97.8056 88.8751 97.5712 89.4871 96.7723 90.28C96.5234 90.5267 96.2586 90.7142 96.0236 90.8612C96.2183 90.9577 96.3926 91.1057 96.4633 91.3382C96.6297 91.8888 96.0599 92.4404 94.7704 92.9799C94.4502 93.1148 94.0191 93.2947 93.415 93.3813C93.1304 93.4219 92.8742 93.4318 92.655 93.4372C92.6504 93.5425 92.6207 93.6566 92.5435 93.7739C92.317 94.1194 91.8456 94.2839 91.1352 94.2444C90.3534 94.2104 89.7097 94.0865 89.1419 93.9779C88.6461 93.8836 88.2189 93.8035 87.8835 93.8222C87.2616 93.8638 86.7822 94.2773 86.2197 94.8135L84.8154 96.1767Z" fill="#F2F2F2"/>
<path d="M86.2365 82.6541L83.6689 83.4763L83.4329 83.4075C82.3413 83.0891 81.352 83.0212 80.4913 83.2052C80.3545 83.2344 80.2195 83.2695 80.082 83.3051C79.5369 83.4465 78.8593 83.6224 77.966 83.4995C77.4676 83.4301 76.2879 83.187 76.1935 82.4559C76.1657 82.2596 76.2252 82.0935 76.3135 81.9581C76.2778 81.9489 76.242 81.9391 76.2032 81.9289C75.7317 81.7974 75.5045 81.6615 75.2857 81.5306C75.1175 81.4301 74.944 81.3261 74.5667 81.1861C74.4012 81.1246 74.2587 81.0797 74.1389 81.0417C73.7762 80.9263 73.3371 80.768 73.2112 80.3475C73.0954 79.8943 73.4672 79.5628 73.7132 79.3432C74.1518 78.9511 74.4915 78.7428 74.7168 78.6048C74.7993 78.5545 74.8918 78.4975 74.9182 78.473C75.1281 78.2731 74.519 77.1524 74.2927 76.7295C73.7801 75.7806 73.3365 74.9594 73.9784 74.4415C74.4374 74.0706 75.2096 74.1037 76.3357 74.5443C76.6862 74.6817 76.9718 74.8468 77.2026 74.9984C77.2656 74.8174 77.3938 74.6399 77.6467 74.5241C78.2457 74.2508 79.0326 74.5687 79.9882 75.4677C80.2265 75.6907 80.5453 75.9914 80.7995 76.4547C80.9189 76.6731 80.9954 76.8763 81.0574 77.051C81.1812 77.0281 81.3215 77.023 81.4778 77.0553C81.9376 77.1496 82.2487 77.4866 82.3829 78.0673C82.5416 78.7039 82.5606 79.2525 82.5782 79.7362C82.5941 80.1584 82.6092 80.5219 82.716 80.7866C82.9223 81.2756 83.5254 81.5558 84.2927 81.8717L86.2365 82.6541Z" fill="#F2F2F2"/>
<path d="M84.8154 75.9631L84.509 73.692L84.649 73.5198C85.2967 72.7236 85.6268 71.9461 85.6308 71.208C85.6314 71.0907 85.6248 70.9733 85.6182 70.8538C85.5918 70.3801 85.5588 69.7912 85.9285 69.1046C86.1359 68.7219 86.7182 67.8358 87.5937 67.9455C87.8294 67.9729 88.0076 68.0628 88.143 68.1681C88.1628 68.1418 88.1833 68.1155 88.205 68.0869C88.4777 67.7415 88.6936 67.5935 88.9016 67.4509C89.0614 67.3412 89.2264 67.2283 89.4852 66.9607C89.5988 66.8433 89.6873 66.7403 89.7619 66.6536C89.9883 66.3915 90.2841 66.079 90.8057 66.0845C91.3629 66.1064 91.6548 66.4891 91.8482 66.7424C92.1935 67.1943 92.35 67.52 92.4537 67.736C92.4913 67.815 92.5342 67.9038 92.556 67.9312C92.7356 68.1505 94.1954 67.9455 94.7453 67.8709C95.9806 67.6998 97.0496 67.5518 97.4899 68.1988C97.8056 68.6616 97.5712 69.2735 96.7723 70.0664C96.5234 70.3132 96.2586 70.5007 96.0236 70.6476C96.2183 70.7441 96.3926 70.8922 96.4633 71.1247C96.6297 71.6752 96.0599 72.2268 94.7704 72.7664C94.4502 72.9013 94.0191 73.0811 93.415 73.1678C93.1304 73.2083 92.8742 73.2182 92.655 73.2237C92.6504 73.329 92.6207 73.443 92.5435 73.5604C92.317 73.9058 91.8456 74.0703 91.1352 74.0308C90.3534 73.9968 89.7097 73.8729 89.1419 73.7643C88.6461 73.67 88.2189 73.59 87.8835 73.6086C87.2616 73.6503 86.7822 74.0637 86.2197 74.6L84.8154 75.9631Z" fill="#F2F2F2"/>
<path d="M87.6134 120.049L87.0403 119.75L86.3722 119.814C86.3616 119.762 86.3253 119.644 86.2705 119.459C85.9714 118.443 85.0596 115.353 84.299 110.486C83.7682 107.088 83.4678 103.596 83.4057 100.103C83.3437 96.6044 83.5431 93.956 83.7028 91.8274C83.8237 90.2219 83.9702 88.6931 84.1142 87.2039C84.4971 83.2252 84.8582 79.4669 84.5895 75.3062C84.5301 74.3774 84.4053 72.444 83.0452 70.3866C82.2562 69.1935 81.1695 68.1341 79.8147 67.2392L80.6572 66.3597C82.1526 67.3489 83.3549 68.5223 84.231 69.8471C85.739 72.1281 85.875 74.2348 85.9404 75.247C86.2137 79.4812 85.8486 83.2757 85.4617 87.2927C85.3191 88.7765 85.1725 90.2986 85.0523 91.8976C84.8939 94.0064 84.6965 96.6318 84.7579 100.085C84.8186 103.536 85.1157 106.986 85.6393 110.341C86.3906 115.147 87.2892 118.191 87.5844 119.191C87.7415 119.725 87.7745 119.837 87.6134 120.049Z" fill="#F2F2F2"/>
<path d="M77.3348 69.0235C77.2794 69.0235 77.2232 69.0224 77.1665 69.0191C76.015 68.9676 74.9487 68.3951 73.9967 67.3182C73.5503 66.8115 73.3219 66.2336 72.8663 65.081C72.7957 64.9034 72.4524 64.0019 72.2437 62.7616C72.1071 61.9512 72.1242 61.6123 72.3177 61.3129C72.5323 60.9795 72.8795 60.747 73.2704 60.5902C73.2532 60.4827 73.2671 60.372 73.3232 60.259C73.5536 59.7908 74.1663 59.8522 74.4978 59.8818C74.6655 59.8993 74.8748 59.9224 75.1006 59.9125C75.4558 59.8982 75.6466 59.8105 75.9358 59.6789C76.2124 59.5528 76.5564 59.396 77.0668 59.3093C78.073 59.135 78.9161 59.3718 79.194 59.4497C80.6565 59.8544 81.3774 60.7986 82.212 61.8919C82.3784 62.1113 82.9495 62.9096 83.3264 64.0041C83.5985 64.7937 83.5602 65.1446 83.4783 65.4056C83.3119 65.9419 82.9191 66.2489 81.9215 66.9267C80.8796 67.6362 80.3567 67.9915 79.9078 68.2076C78.8626 68.7088 78.2063 69.0235 77.3348 69.0235Z" fill="#F2F2F2"/>
</g>
<defs>
<clipPath id="clip0_13_1009">
<rect width="245" height="122" fill="white" transform="translate(0 0.174927)"/>
</clipPath>
</defs>
</svg>
