<svg width="254" height="123" viewBox="0 0 254 123" fill="none" xmlns="http://www.w3.org/2000/svg">
<g id="car_travel 1" clip-path="url(#clip0_13_650)">
<path id="Vector" d="M66.5973 38.3928C74.6313 38.3928 81.1442 32.753 81.1442 25.7959C81.1442 18.8388 74.6313 13.1989 66.5973 13.1989C58.5632 13.1989 52.0503 18.8388 52.0503 25.7959C52.0503 32.753 58.5632 38.3928 66.5973 38.3928Z" fill="#FF6584"/>
<path id="Vector_2" d="M112.215 64.615H40.8519C40.7625 64.616 40.6733 64.6099 40.5852 64.5967L74.3366 13.9713C74.5426 13.656 74.8416 13.3937 75.2029 13.2112C75.5643 13.0287 75.9751 12.9325 76.3935 12.9325C76.8118 12.9325 77.2226 13.0287 77.584 13.2112C77.9453 13.3937 78.2443 13.656 78.4503 13.9713L101.102 47.9449L102.187 49.5705L112.215 64.615Z" fill="#3F3D56"/>
<path id="Vector_3" opacity="0.2" d="M112.215 64.6149H87.8499L99.8106 49.5704L100.671 48.4867L101.102 47.945L102.187 49.5704L112.215 64.6149Z" fill="black"/>
<path id="Vector_4" d="M151.949 64.615H90.2261L102.187 49.5705L103.048 48.4867L118.633 28.8809C119.655 27.5959 122.113 27.5159 123.315 28.6385C123.395 28.7151 123.47 28.796 123.539 28.8809L151.949 64.615Z" fill="#3F3D56"/>
<path id="Vector_5" d="M170.068 56.2865C172.489 56.2865 174.451 54.587 174.451 52.4906C174.451 50.3942 172.489 48.6947 170.068 48.6947C167.647 48.6947 165.684 50.3942 165.684 52.4906C165.684 54.587 167.647 56.2865 170.068 56.2865Z" fill="#F24E1E"/>
<path id="Vector_6" d="M170.49 63.9241H169.593L170.002 51.9189L170.49 63.9241Z" fill="#3F3D56"/>
<path id="Vector_7" d="M170.081 54.1942L171.045 53.0393L170.068 54.4801L169.962 54.32L170.081 54.1942Z" fill="#3F3D56"/>
<path id="Vector_8" d="M169.975 55.3603L169.011 54.2056L169.988 55.6462L170.094 55.4861L169.975 55.3603Z" fill="#3F3D56"/>
<path id="Vector_9" d="M210.278 56.2865C212.699 56.2865 214.661 54.587 214.661 52.4906C214.661 50.3942 212.699 48.6947 210.278 48.6947C207.857 48.6947 205.895 50.3942 205.895 52.4906C205.895 54.587 207.857 56.2865 210.278 56.2865Z" fill="#F24E1E"/>
<path id="Vector_10" d="M210.7 63.9241H209.802L210.212 51.9189L210.7 63.9241Z" fill="#3F3D56"/>
<path id="Vector_11" d="M210.291 54.1942L211.255 53.0393L210.278 54.4801L210.172 54.32L210.291 54.1942Z" fill="#3F3D56"/>
<path id="Vector_12" d="M210.186 55.3603L209.222 54.2056L210.199 55.6462L210.304 55.4861L210.186 55.3603Z" fill="#3F3D56"/>
<path id="Vector_13" d="M182.766 52.644C186.341 52.644 189.24 50.1341 189.24 47.0378C189.24 43.9416 186.341 41.4316 182.766 41.4316C179.19 41.4316 176.292 43.9416 176.292 47.0378C176.292 50.1341 179.19 52.644 182.766 52.644Z" fill="#F24E1E"/>
<path id="Vector_14" d="M183.39 63.9241H182.064L182.668 46.1935L183.39 63.9241Z" fill="#3F3D56"/>
<path id="Vector_15" d="M182.786 49.5538L184.209 47.8484L182.766 49.9761L182.61 49.7396L182.786 49.5538Z" fill="#3F3D56"/>
<path id="Vector_16" d="M182.629 51.2762L181.206 49.5709L182.649 51.6983L182.805 51.4621L182.629 51.2762Z" fill="#3F3D56"/>
<path id="Vector_17" d="M198.554 52.644C202.129 52.644 205.028 50.1341 205.028 47.0378C205.028 43.9416 202.129 41.4316 198.554 41.4316C194.978 41.4316 192.08 43.9416 192.08 47.0378C192.08 50.1341 194.978 52.644 198.554 52.644Z" fill="#F24E1E"/>
<path id="Vector_18" d="M199.178 63.9241H197.852L198.456 46.1935L199.178 63.9241Z" fill="#3F3D56"/>
<path id="Vector_19" d="M198.573 49.5538L199.997 47.8484L198.554 49.9761L198.398 49.7396L198.573 49.5538Z" fill="#3F3D56"/>
<path id="Vector_20" d="M198.418 51.2762L196.994 49.5709L198.437 51.6983L198.593 51.4621L198.418 51.2762Z" fill="#3F3D56"/>
<path id="Vector_21" d="M157.604 52.644C161.179 52.644 164.078 50.1341 164.078 47.0378C164.078 43.9416 161.179 41.4316 157.604 41.4316C154.028 41.4316 151.13 43.9416 151.13 47.0378C151.13 50.1341 154.028 52.644 157.604 52.644Z" fill="#F24E1E"/>
<path id="Vector_22" d="M158.227 63.9241H156.901L157.506 46.1935L158.227 63.9241Z" fill="#3F3D56"/>
<path id="Vector_23" d="M157.623 49.5538L159.047 47.8484L157.604 49.9761L157.448 49.7396L157.623 49.5538Z" fill="#3F3D56"/>
<path id="Vector_24" d="M157.467 51.2762L156.043 49.5709L157.487 51.6983L157.642 51.4621L157.467 51.2762Z" fill="#3F3D56"/>
<path id="Vector_25" d="M234.198 122.175H22.9207C20.2588 122.175 17.623 121.721 15.1637 120.839C12.7044 119.957 10.4699 118.664 8.58761 117.034C6.70536 115.404 5.21227 113.469 4.19361 111.339C3.17494 109.21 2.65063 106.927 2.65063 104.622C2.65063 102.317 3.17494 100.034 4.19361 97.9048C5.21227 95.7752 6.70536 93.8402 8.58761 92.2103C10.4699 90.5803 12.7044 89.2874 15.1637 88.4053C17.623 87.5232 20.2588 87.0691 22.9207 87.0691H233.73C235.798 87.0691 237.781 86.3579 239.243 85.0918C240.705 83.8257 241.526 82.1085 241.526 80.318C241.526 78.5275 240.705 76.8104 239.243 75.5443C237.781 74.2782 235.798 73.5669 233.73 73.5669H15.9042V62.7651H233.73C239.106 62.7651 244.262 64.6145 248.063 67.9063C251.864 71.1981 254 75.6627 254 80.318C254 84.9734 251.864 89.438 248.063 92.7298C244.262 96.0216 239.106 97.8709 233.73 97.8709H22.9207C20.8531 97.8709 18.8701 98.5822 17.408 99.8483C15.9459 101.114 15.1246 102.832 15.1246 104.622C15.1246 106.413 15.9459 108.13 17.408 109.396C18.8701 110.662 20.8531 111.373 22.9207 111.373H234.198V122.175Z" fill="#3F3D56"/>
<path id="Vector_26" d="M33.3677 67.896H23.7004V68.4361H33.3677V67.896Z" fill="white"/>
<path id="Vector_27" d="M60.8103 67.896H51.1431V68.4361H60.8103V67.896Z" fill="white"/>
<path id="Vector_28" d="M88.253 67.896H78.5857V68.4361H88.253V67.896Z" fill="white"/>
<path id="Vector_29" d="M115.696 67.896H106.028V68.4361H115.696V67.896Z" fill="white"/>
<path id="Vector_30" d="M143.138 67.896H133.471V68.4361H143.138V67.896Z" fill="white"/>
<path id="Vector_31" d="M170.581 67.896H160.913V68.4361H170.581V67.896Z" fill="white"/>
<path id="Vector_32" d="M198.023 67.896H188.356V68.4361H198.023V67.896Z" fill="white"/>
<path id="Vector_33" d="M225.466 67.896H215.799V68.4361H225.466V67.896Z" fill="white"/>
<path id="Vector_34" d="M33.3677 92.2H23.7004V92.7401H33.3677V92.2Z" fill="white"/>
<path id="Vector_35" d="M60.8103 92.2H51.1431V92.7401H60.8103V92.2Z" fill="white"/>
<path id="Vector_36" d="M88.253 92.2H78.5857V92.7401H88.253V92.2Z" fill="white"/>
<path id="Vector_37" d="M115.696 92.2H106.028V92.7401H115.696V92.2Z" fill="white"/>
<path id="Vector_38" d="M143.138 92.2H133.471V92.7401H143.138V92.2Z" fill="white"/>
<path id="Vector_39" d="M170.581 92.2H160.913V92.7401H170.581V92.2Z" fill="white"/>
<path id="Vector_40" d="M198.023 92.2H188.356V92.7401H198.023V92.2Z" fill="white"/>
<path id="Vector_41" d="M225.466 92.2H215.799V92.7401H225.466V92.2Z" fill="white"/>
<path id="Vector_42" d="M33.3677 116.504H23.7004V117.044H33.3677V116.504Z" fill="white"/>
<path id="Vector_43" d="M60.8103 116.504H51.1431V117.044H60.8103V116.504Z" fill="white"/>
<path id="Vector_44" d="M88.253 116.504H78.5857V117.044H88.253V116.504Z" fill="white"/>
<path id="Vector_45" d="M115.696 116.504H106.028V117.044H115.696V116.504Z" fill="white"/>
<path id="Vector_46" d="M143.138 116.504H133.471V117.044H143.138V116.504Z" fill="white"/>
<path id="Vector_47" d="M170.581 116.504H160.913V117.044H170.581V116.504Z" fill="white"/>
<path id="Vector_48" d="M198.023 116.504H188.356V117.044H198.023V116.504Z" fill="white"/>
<path id="Vector_49" d="M225.466 116.504H215.799V117.044H225.466V116.504Z" fill="white"/>
<path id="Vector_50" d="M169.61 21.609C170.626 21.6082 171.625 21.8317 172.513 22.2585H166.715C167.6 21.8318 168.597 21.6083 169.61 21.609Z" fill="#E6E6E6"/>
<path id="Vector_51" d="M158.359 20.9594C160.056 20.9577 161.711 21.4116 163.098 22.2585H153.628C155.012 21.4126 156.665 20.9588 158.359 20.9594Z" fill="#E6E6E6"/>
<path id="Vector_52" d="M94.6282 12.7372C94.834 9.5867 96.3252 6.60188 98.8359 4.3149C101.347 2.02792 104.714 0.587446 108.337 0.250299C111.96 -0.0868486 115.604 0.701246 118.618 2.47407C121.633 4.2469 123.822 6.88923 124.796 9.92994C124.983 9.92415 125.169 9.91767 125.357 9.91767C128.679 9.9182 131.911 10.8501 134.571 12.574C137.23 14.2979 139.173 16.7211 140.11 19.4811C142.311 18.6435 144.771 18.4618 147.104 18.9644C149.438 19.467 151.513 20.6255 153.004 22.2585H105.041C103.641 22.2619 102.256 22.0208 100.967 21.5496C99.6776 21.0784 98.5115 20.3868 97.5383 19.5161C96.5651 18.6455 95.8048 17.6138 95.3029 16.4827C94.801 15.3516 94.5678 14.1445 94.6174 12.9336C94.6204 12.8682 94.6241 12.8028 94.6282 12.7372Z" fill="#E6E6E6"/>
<path id="Vector_53" d="M173.11 31.3306C172.095 31.3297 171.096 31.5533 170.208 31.9801H176.005C175.12 31.5534 174.123 31.3298 173.11 31.3306Z" fill="#E6E6E6"/>
<path id="Vector_54" d="M184.361 30.6811C182.665 30.6793 181.009 31.1332 179.623 31.9801H189.093C187.709 31.1342 186.056 30.6804 184.361 30.6811Z" fill="#E6E6E6"/>
<path id="Vector_55" d="M248.093 22.4588C247.887 19.3083 246.396 16.3235 243.885 14.0365C241.374 11.7495 238.007 10.309 234.384 9.9719C230.761 9.63475 227.117 10.4228 224.102 12.1957C221.088 13.9685 218.898 16.6108 217.924 19.6515C217.738 19.6458 217.552 19.6393 217.364 19.6393C214.042 19.6398 210.809 20.5717 208.15 22.2956C205.491 24.0195 203.547 26.4427 202.611 29.2027C200.41 28.3651 197.95 28.1834 195.616 28.686C193.283 29.1886 191.208 30.3471 189.717 31.9801H237.68C239.079 31.9835 240.465 31.7424 241.754 31.2712C243.043 30.8 244.209 30.1084 245.182 29.2377C246.156 28.3671 246.916 27.3354 247.418 26.2043C247.92 25.0732 248.153 23.8661 248.103 22.6552C248.1 22.5898 248.097 22.5244 248.093 22.4588Z" fill="#E6E6E6"/>
<path id="Vector_56" d="M216.116 114.626L221.69 114.629L221.691 113.863L216.116 113.86L216.116 114.626Z" fill="#3F3D56"/>
<path id="Vector_57" d="M175.812 114.033L176.962 114.264L220.673 114.284L221.066 113.491C221.751 112.13 221.987 110.632 221.746 109.162C221.557 108.067 221.086 106.979 220.014 106.506L218.074 95.3184L193.891 95.2809L184.535 101.816C184.535 101.816 180.121 101.747 177.723 104.332C176.859 105.293 176.348 106.458 176.258 107.674L176.163 109.018L175.812 114.033Z" fill="#F24E1E"/>
<path id="Vector_58" d="M185.412 118.52C188.393 118.52 190.81 116.427 190.81 113.846C190.81 111.265 188.393 109.172 185.412 109.172C182.431 109.172 180.015 111.265 180.015 113.846C180.015 116.427 182.431 118.52 185.412 118.52Z" fill="#3F3D56"/>
<path id="Vector_59" d="M185.412 116.306C186.981 116.306 188.253 115.205 188.253 113.846C188.253 112.487 186.981 111.386 185.412 111.386C183.843 111.386 182.571 112.487 182.571 113.846C182.571 115.205 183.843 116.306 185.412 116.306Z" fill="#CCCCCC"/>
<path id="Vector_60" d="M212.046 118.532C215.027 118.532 217.444 116.44 217.444 113.858C217.444 111.277 215.027 109.184 212.046 109.184C209.065 109.184 206.648 111.277 206.648 113.858C206.648 116.44 209.065 118.532 212.046 118.532Z" fill="#3F3D56"/>
<path id="Vector_61" d="M212.046 116.318C213.615 116.318 214.887 115.217 214.887 113.858C214.887 112.5 213.615 111.398 212.046 111.398C210.477 111.398 209.205 112.5 209.205 113.858C209.205 115.217 210.477 116.318 212.046 116.318Z" fill="#CCCCCC"/>
<path id="Vector_62" d="M188.252 101.052L201.309 101.057H202.903L205.594 101.059V100.889L205.596 98.8393L205.598 96.5384H203.807L202.214 96.5369L199.39 96.5352H197.796L194.537 96.5334L188.252 101.052Z" fill="white"/>
<path id="Vector_63" d="M207.719 101.06L214.619 101.063L214.621 99.891V97.8417L214.623 96.5434H213.612L212.018 96.5416L207.721 96.5401L207.719 101.06Z" fill="white"/>
<path id="Vector_64" d="M204.707 105.886L205.592 105.887L205.592 104.431L204.708 104.43L204.707 105.886Z" fill="#3F3D56"/>
<path id="Vector_65" d="M191.79 103.122L191.79 102.356L190.109 102.355L190.109 103.121L191.79 103.122Z" fill="#3F3D56"/>
<path id="Vector_66" d="M191.171 102.692L191.073 102.692C190.83 102.692 190.59 102.651 190.366 102.57C190.141 102.489 189.938 102.371 189.766 102.223C189.594 102.074 189.458 101.897 189.365 101.703C189.273 101.509 189.225 101.3 189.225 101.09C189.225 100.88 189.273 100.672 189.366 100.477C189.459 100.283 189.596 100.107 189.767 99.9579C189.939 99.8093 190.143 99.6914 190.368 99.611C190.592 99.5307 190.832 99.4894 191.075 99.4895L191.173 99.4895L191.171 102.692Z" fill="#3F3D56"/>
<path id="Vector_67" d="M176.163 109.018C176.832 109.081 177.506 108.938 178.065 108.613C178.624 108.288 179.032 107.803 179.219 107.243C179.405 106.683 179.358 106.084 179.084 105.552C178.811 105.019 178.329 104.587 177.724 104.332C176.859 105.293 176.348 106.458 176.258 107.674L176.163 109.018Z" fill="#3F3D56"/>
<path id="Vector_68" d="M202.214 96.5369L205.594 100.889L205.596 98.8393L203.808 96.5384L202.214 96.5369Z" fill="#F2F2F2"/>
<path id="Vector_69" d="M212.019 96.5416L214.621 99.891V97.8417L213.612 96.5434L212.019 96.5416Z" fill="#F2F2F2"/>
<path id="Vector_70" d="M197.796 96.5352L201.309 101.057H202.903L199.39 96.5352H197.796Z" fill="#F2F2F2"/>
<path id="Vector_71" d="M14.345 77.3476C22.2675 77.3476 28.69 71.786 28.69 64.9255C28.69 58.065 22.2675 52.5035 14.345 52.5035C6.42247 52.5035 0 58.065 0 64.9255C0 71.786 6.42247 77.3476 14.345 77.3476Z" fill="#3F3D56"/>
<path id="Vector_72" d="M14.4047 68.6653L7.22597 62.4488C6.99245 62.2462 6.86139 61.9715 6.86157 61.6852C6.86176 61.3989 6.99317 61.1244 7.22695 60.922C7.46072 60.7195 7.77774 60.6057 8.10836 60.6056C8.43897 60.6054 8.75613 60.7189 8.99016 60.9211L14.2853 65.5065L31.1825 48.8208C31.4008 48.6059 31.7086 48.4747 32.0385 48.4562C32.3683 48.4377 32.6931 48.5333 32.9416 48.722C33.1901 48.9107 33.342 49.1771 33.3638 49.4627C33.3857 49.7483 33.2757 50.0297 33.0582 50.2451L14.4047 68.6653Z" fill="#F24E1E"/>
</g>
<defs>
<clipPath id="clip0_13_650">
<rect width="254" height="122" fill="white" transform="translate(0 0.174927)"/>
</clipPath>
</defs>
</svg>
