<svg width="485" height="353" viewBox="0 0 485 353" fill="none" xmlns="http://www.w3.org/2000/svg">
<g clip-path="url(#clip0_257_302)">
<mask id="mask0_257_302" style="mask-type:luminance" maskUnits="userSpaceOnUse" x="0" y="0" width="485" height="353">
<path d="M485 0.174927H0V352.175H485V0.174927Z" fill="white"/>
</mask>
<g mask="url(#mask0_257_302)">
<path d="M161.58 342.153C146.775 342.153 131.992 341.927 117.232 341.474C96.1405 340.828 74.3312 340.161 54.0603 330.573C39.8799 323.866 27.3209 313.106 17.7415 299.454C11.4218 290.378 6.71527 280.314 3.82217 269.692C2.40689 264.583 1.37986 259.377 0.749557 254.117C-0.976566 239.909 0.246506 225.505 4.34497 211.774C6.33531 205.203 9.04724 198.865 12.433 192.87C27.2157 166.763 54.1785 149.238 86.4078 144.789C86.6743 144.76 86.9431 144.755 87.2105 144.775C87.3555 144.781 87.5 144.789 87.6472 144.783L87.8369 144.732C88.3257 144.587 88.8246 144.478 89.3297 144.405C139.036 138.094 191.583 150.863 241.285 181.33C279.715 204.89 330.645 217.577 396.987 220.116L397.929 220.158C416.397 221.062 434.261 227.556 449.592 238.936C464.572 249.969 475.983 265.02 482.448 282.277C483.231 284.364 483.948 286.537 484.58 288.735C485.777 292.891 484.389 297.091 480.771 300.288V300.292L480.606 300.437C480.209 300.774 479.79 301.097 479.362 301.398L478.859 301.752C474.619 304.731 471.271 307.083 467.263 308.911C464.558 310.132 461.72 311.046 458.803 311.635C442.637 314.996 426.219 318.112 410.007 320.898C378.521 326.312 346.207 330.778 313.96 334.172C263.347 339.491 212.482 342.155 161.58 342.153ZM86.8336 145.699C86.7347 145.699 86.6358 145.704 86.5377 145.717C54.6096 150.124 27.9021 167.477 13.2659 193.325C9.91361 199.26 7.22851 205.536 5.25796 212.042C1.19664 225.651 -0.0150324 239.926 1.69605 254.008C2.32082 259.221 3.33882 264.381 4.74167 269.446C7.60645 279.966 12.2673 289.933 18.5261 298.923C28.0117 312.441 40.4422 323.093 54.4739 329.729C74.5629 339.231 96.2694 339.896 117.261 340.539C182.887 342.54 248.574 340.102 313.858 333.242C346.084 329.85 378.378 325.387 409.843 319.976C426.044 317.193 442.45 314.078 458.606 310.719C461.452 310.145 464.222 309.253 466.862 308.062C470.789 306.271 474.105 303.941 478.304 300.991L478.807 300.638C479.175 300.379 479.536 300.102 479.882 299.814L479.981 299.725C483.432 296.759 484.773 292.846 483.662 288.989C483.037 286.815 482.328 284.665 481.553 282.599C468.556 247.624 434.931 222.907 397.883 221.092L396.947 221.05C366.643 219.891 340.124 216.678 315.88 211.229C286.938 204.724 261.671 194.931 240.78 182.124C191.267 151.774 138.94 139.052 89.4511 145.333C88.9909 145.401 88.5364 145.501 88.0912 145.634L87.7494 145.715C87.5525 145.726 87.3594 145.718 87.1668 145.71C87.0525 145.705 86.9418 145.699 86.8336 145.699Z" fill="#F0F0F0"/>
<path d="M480.295 300.078V300.082C479.909 300.41 479.504 300.723 479.085 301.018C472.089 305.936 467.31 309.384 458.704 311.177C442.503 314.546 426.243 317.632 409.925 320.437C378.09 325.911 346.084 330.335 313.909 333.707C248.604 340.582 182.894 343.021 117.247 341.006C95.3848 340.337 74.2995 339.626 54.2673 330.151C39.6243 323.225 27.321 312.281 18.134 299.189C8.81837 285.914 3.15277 270.206 1.2229 254.063C5.75895 252.118 10.5781 250.887 15.5037 250.413C32.6007 248.812 49.426 254.961 64.9743 262.115C80.5274 269.265 95.7993 277.622 112.639 280.921C137.455 285.783 163.072 279.171 186.864 270.706C210.656 262.242 234.076 251.788 259.169 248.593C292.824 244.302 326.594 253.384 359.272 262.377C394.081 271.956 428.891 281.536 463.703 291.117C468.678 292.483 473.838 293.948 477.717 297.298C478.679 298.128 479.543 299.06 480.295 300.078Z" fill="#79788D"/>
<path d="M480.295 300.078V300.082C479.909 300.41 479.504 300.723 479.084 301.018C474.701 304.097 471.189 306.605 467.062 308.486C452.877 309.857 438.672 311.044 424.448 312.047C387.839 314.625 351.157 315.996 314.405 316.16C239.846 316.534 161.457 318.827 96.1756 283.265C74.454 271.432 42.9883 295.698 21.4694 282.723C15.2666 278.97 9.50284 274.559 4.28194 269.569C2.8719 264.482 1.84935 259.299 1.22276 254.063C-0.504653 239.918 0.712826 225.576 4.80131 211.908C6.77935 205.369 9.47803 199.062 12.8495 193.098C22.8465 196.621 32.4338 201.693 41.5588 207.065C58.2936 216.905 74.5662 228.079 93.2022 233.713C120.673 242.018 150.392 237.451 178.268 230.582C206.143 223.713 233.833 214.561 262.561 213.789C301.091 212.755 338.178 226.844 374.044 240.708C410.025 254.619 446.01 268.529 482.001 282.437C482.792 284.547 483.498 286.689 484.121 288.862C485.393 293.279 483.549 297.279 480.295 300.078Z" fill="#615F76"/>
<path d="M129.477 120.442C124.058 116.855 124.588 109.006 130.319 105.921C130.436 105.858 130.55 105.793 130.662 105.726C130.949 104.375 131.237 103.025 131.524 101.674C133.214 103.398 136.539 103.073 137.849 101.055C133.279 91.4822 127.27 82.6387 120.023 74.8206C118.443 73.108 117.556 70.8865 117.531 68.5759C117.505 66.2652 118.343 64.0254 119.884 62.2795C119.912 62.2478 119.939 62.2159 119.967 62.1837C124.059 60.8264 127.934 58.9047 131.476 56.4764C119.33 37.3134 96.1694 22.0896 90.6643 0.174927C74.1026 17.6398 72.2434 23.7908 55.6817 41.2556C55.6817 41.2556 39.9997 55.1515 36.6148 62.6193C37.4465 63.4772 44.8924 65.5359 45.1786 67.2226C50.857 67.6696 60.6946 61.5578 60.6946 61.5578C60.6946 61.5578 39.2225 84.0369 32.7033 97.8831C32.1162 99.1299 31.5587 100.554 32.0505 101.84C32.4431 102.866 33.8517 103.458 34.7589 103.05C33.6752 104.077 32.8051 105.3 32.1969 106.653C34.0887 107.839 36.3325 108.364 38.5658 108.143C40.799 107.922 42.8912 106.968 44.5041 105.436C43.596 107.102 42.688 108.767 41.78 110.433L41.7816 110.437C43.0083 110.831 44.1092 111.532 44.9756 112.471C45.8419 113.411 46.4436 114.556 46.7213 115.793C46.9991 117.031 46.9431 118.318 46.5591 119.528C46.1751 120.738 45.4762 121.829 44.5316 122.692C38.8968 127.838 33.7481 133.248 31.8615 136.81C30.0867 140.161 48.3101 144.201 52.4089 144.035C56.5078 143.869 60.3391 142.101 64.0411 140.365C63.8607 142.023 64.1836 143.695 64.9691 145.173C66.9965 145.656 69.1018 145.737 71.1613 145.41C73.2208 145.083 75.193 144.355 76.9621 143.269C76.7988 146.584 81.0572 148.415 84.013 147.476C82.5373 170.4 83.6167 202.589 85.0344 236.006H88.5517V148.798C89.4876 149.264 90.4888 149.59 91.5224 149.768C98.7185 151.022 107.402 151.785 112.085 146.274C117.474 151.611 127.351 151.509 132.709 146.191C132.182 147.109 132.989 148.653 134.183 148.896C135.59 149.183 136.959 148.362 138.153 147.577C143.562 144.027 148.97 140.476 154.378 136.926C147.704 132.508 138.224 126.232 129.477 120.442Z" fill="#2F2E41"/>
<path d="M291.822 109.774C301.201 109.774 308.805 102.308 308.805 93.0977C308.805 83.8875 301.201 76.4211 291.822 76.4211C282.443 76.4211 274.839 83.8875 274.839 93.0977C274.839 102.308 282.443 109.774 291.822 109.774Z" fill="#F2F2F2"/>
<path d="M329.833 85.202C328.851 81.9711 326.076 79.8619 322.723 79.3992C322.686 79.3941 322.651 79.4008 322.614 79.3985C322.566 79.3843 322.518 79.3733 322.469 79.3657C317.719 78.7973 312.913 79.8246 308.833 82.2803C304.903 84.6901 300.323 85.78 295.692 85.9571C295.665 85.9581 295.638 85.9593 295.61 85.9607C293.889 86.0733 292.245 86.704 290.902 87.767C289.559 88.83 288.583 90.2736 288.105 91.9012C288.054 92.1004 288.069 92.3104 288.148 92.5006C288.227 92.6908 288.365 92.8515 288.543 92.9592C289.056 93.3861 289.664 93.689 290.318 93.8436C291.728 94.137 293.144 94.4058 294.564 94.65C297.336 95.1263 300.122 95.5114 302.923 95.8053C308.608 96.4036 314.329 96.6159 320.044 96.4408C321.947 96.3825 323.783 96.3205 325.527 95.4956C326.795 94.8802 327.879 93.9513 328.672 92.8002C329.419 91.6938 329.91 90.4402 330.11 89.1275C330.311 87.8148 330.216 86.4749 329.833 85.202Z" fill="#E6E6E6"/>
<path d="M294.536 107.438C293.553 104.207 290.778 102.098 287.425 101.635C287.388 101.63 287.353 101.636 287.317 101.634C287.269 101.62 287.221 101.609 287.172 101.601C282.422 101.033 277.616 102.06 273.536 104.516C269.605 106.926 265.026 108.016 260.396 108.193C260.368 108.194 260.341 108.195 260.313 108.196C258.592 108.309 256.948 108.94 255.605 110.003C254.262 111.066 253.285 112.509 252.808 114.137C252.757 114.336 252.772 114.546 252.851 114.736C252.93 114.926 253.068 115.087 253.246 115.195C253.759 115.622 254.367 115.925 255.021 116.079C256.431 116.373 257.846 116.641 259.267 116.886C262.039 117.362 264.825 117.747 267.626 118.041C273.311 118.639 279.032 118.851 284.747 118.676C286.65 118.618 288.485 118.556 290.23 117.731C291.498 117.116 292.582 116.187 293.375 115.036C294.122 113.929 294.613 112.676 294.813 111.363C295.014 110.05 294.919 108.71 294.536 107.438Z" fill="#E6E6E6"/>
<path d="M438.252 177.06C432.833 173.473 433.363 165.624 439.094 162.539C439.21 162.476 439.325 162.411 439.437 162.344C439.724 160.993 440.011 159.643 440.298 158.292C441.989 160.016 445.313 159.691 446.624 157.673C442.054 148.1 436.044 139.257 428.797 131.439C427.217 129.726 426.331 127.505 426.305 125.194C426.28 122.883 427.117 120.643 428.659 118.898C428.686 118.866 428.714 118.834 428.741 118.802C432.834 117.444 436.709 115.523 440.251 113.094C428.105 93.9314 404.944 78.7077 399.439 56.793C382.877 74.2578 381.018 80.4088 364.456 97.8737C364.456 97.8737 348.774 111.77 345.389 119.237C346.221 120.095 353.667 122.154 353.953 123.841C359.631 124.288 369.469 118.176 369.469 118.176C369.469 118.176 347.997 140.655 341.478 154.501C340.891 155.748 340.333 157.172 340.825 158.458C341.218 159.484 342.626 160.076 343.533 159.668C342.45 160.695 341.579 161.918 340.971 163.271C342.863 164.457 345.107 164.982 347.34 164.761C349.573 164.54 351.666 163.587 353.278 162.054C352.37 163.72 351.462 165.385 350.554 167.051L350.556 167.055C351.783 167.449 352.884 168.15 353.75 169.089C354.616 170.029 355.218 171.174 355.496 172.411C355.773 173.649 355.718 174.936 355.334 176.146C354.949 177.356 354.251 178.447 353.306 179.31C347.671 184.456 342.523 189.866 340.636 193.428C338.861 196.779 357.084 200.819 361.183 200.653C365.282 200.487 369.114 198.719 372.816 196.983C372.635 198.641 372.958 200.314 373.744 201.791C375.771 202.275 377.876 202.355 379.936 202.028C381.995 201.701 383.967 200.973 385.736 199.887C385.573 203.202 389.832 205.033 392.787 204.094C391.312 227.018 392.391 259.207 393.809 292.624H397.326V205.416C398.262 205.882 399.263 206.208 400.297 206.386C407.493 207.64 416.177 208.403 420.859 202.892C426.249 208.229 436.125 208.127 441.483 202.809C440.956 203.727 441.763 205.271 442.957 205.514C444.364 205.801 445.733 204.98 446.928 204.196C452.336 200.645 457.744 197.095 463.152 193.544C456.478 189.126 446.998 182.85 438.252 177.06Z" fill="#3F3D56"/>
<path d="M30.0056 265.961C30.3582 265.976 30.7073 265.886 31.0056 265.7C31.3039 265.515 31.5369 265.244 31.6731 264.924C31.8093 264.604 31.8421 264.251 31.767 263.912C31.6919 263.573 31.5126 263.265 31.2534 263.03C31.21 262.861 31.1788 262.739 31.1354 262.57C31.151 262.533 31.1666 262.496 31.1823 262.459C31.5376 261.635 32.1329 260.932 32.8934 260.44C33.654 259.947 34.5459 259.686 35.4572 259.689C36.3684 259.692 37.2583 259.96 38.0152 260.458C38.772 260.957 39.362 261.664 39.711 262.49C41.1059 265.789 42.8819 269.094 43.3191 272.582C43.5117 274.124 43.4305 275.687 43.079 277.202C46.3553 270.184 48.0566 262.556 48.0675 254.836C48.0682 252.898 47.9586 250.962 47.7392 249.037C47.5579 247.459 47.3063 245.892 46.9846 244.336C45.2285 235.894 41.4583 227.981 35.9835 221.248C33.3337 219.828 31.1908 217.645 29.8435 214.993C29.3554 214.039 29.0104 213.021 28.8193 211.971C29.1182 212.009 29.4221 212.033 29.721 212.052C29.8141 212.057 29.9121 212.062 30.0052 212.067L30.0403 212.068C30.3688 212.083 30.6946 212.004 30.9784 211.841C31.2622 211.678 31.492 211.437 31.64 211.149C31.788 210.861 31.848 210.536 31.8128 210.215C31.7775 209.894 31.6485 209.59 31.4413 209.339C31.3122 209.183 31.1831 209.027 31.0539 208.872C30.8578 208.631 30.6569 208.395 30.4609 208.155C30.4383 208.132 30.417 208.108 30.3972 208.082C30.1718 207.808 29.9464 207.539 29.721 207.264C30.1324 206.637 30.6858 206.112 31.3381 205.729C33.5971 204.43 36.7137 205.33 38.3455 207.337C39.9821 209.343 40.2908 212.158 39.7224 214.665C39.1634 216.799 38.2388 218.823 36.9881 220.651C37.1106 220.805 37.238 220.955 37.3605 221.108C39.5999 223.936 41.5518 226.973 43.188 230.174C42.7901 226.588 43.265 222.959 44.5737 219.588C45.9 216.446 48.386 213.8 50.5752 211.084C53.2049 207.821 58.5971 209.245 59.0604 213.381C59.0649 213.421 59.0693 213.461 59.0735 213.501C58.7484 213.681 58.4301 213.872 58.1186 214.074C57.7274 214.331 57.4242 214.698 57.2489 215.127C57.0735 215.555 57.0341 216.026 57.1359 216.477C57.2377 216.928 57.4759 217.339 57.8192 217.655C58.1626 217.971 58.5951 218.177 59.0602 218.248L59.1078 218.255C58.992 219.406 58.7872 220.546 58.4953 221.667C57.6494 224.794 56.1547 227.717 54.1048 230.25C52.0549 232.784 49.494 234.875 46.5827 236.391C46.3916 236.488 46.2054 236.584 46.0143 236.675C46.8913 239.102 47.5921 241.586 48.1116 244.11C48.5764 246.335 48.9005 248.587 49.0818 250.851C49.304 253.704 49.2909 256.57 49.0426 259.421L49.0574 259.32C49.6846 256.15 51.4068 253.29 53.9331 251.222C57.6853 248.195 62.9864 247.08 67.0343 244.648C67.4645 244.376 67.9648 244.232 68.476 244.23C68.9872 244.229 69.4881 244.371 69.9197 244.641C70.3512 244.91 70.6954 245.295 70.9116 245.749C71.1277 246.204 71.2069 246.711 71.1398 247.208C71.1343 247.244 71.1288 247.279 71.1232 247.314C70.5198 247.556 69.9322 247.834 69.364 248.147C69.0389 248.327 68.7206 248.518 68.4091 248.72C68.0179 248.977 67.7147 249.344 67.5394 249.773C67.364 250.201 67.3246 250.672 67.4264 251.123C67.5282 251.575 67.7664 251.985 68.1097 252.301C68.4531 252.617 68.8856 252.824 69.3507 252.894L69.3983 252.901C69.4326 252.906 69.462 252.911 69.4963 252.916C68.4653 255.333 67.0182 257.558 65.2184 259.494C62.9951 261.836 60.3079 263.708 57.3216 264.995C54.3353 266.282 51.1129 266.956 47.8519 266.976H47.847C46.9617 270.754 45.6792 274.43 44.0199 277.947H30.3482C30.2991 277.798 30.2551 277.644 30.211 277.495C31.4764 277.573 32.7469 277.499 33.994 277.274C32.9796 276.051 31.9653 274.82 30.9509 273.597C30.9283 273.575 30.907 273.55 30.8872 273.525C30.3727 272.9 29.8533 272.279 29.3387 271.653C29.3112 269.735 29.5355 267.822 30.0056 265.961Z" fill="#E6E6E6"/>
<path d="M437.416 279.062C437.769 279.078 438.118 278.987 438.416 278.802C438.715 278.616 438.948 278.345 439.084 278.026C439.22 277.706 439.253 277.353 439.178 277.014C439.103 276.675 438.923 276.367 438.664 276.132C438.621 275.962 438.589 275.841 438.546 275.671C438.562 275.634 438.577 275.598 438.593 275.561C438.948 274.737 439.544 274.034 440.304 273.541C441.065 273.048 441.957 272.787 442.868 272.791C443.779 272.794 444.669 273.062 445.426 273.56C446.183 274.058 446.773 274.765 447.122 275.592C448.517 278.891 450.293 282.196 450.73 285.684C450.922 287.226 450.841 288.789 450.49 290.303C453.766 283.285 455.467 275.658 455.478 267.937C455.479 266 455.369 264.064 455.15 262.139C454.969 260.56 454.717 258.993 454.395 257.438C452.639 248.996 448.869 241.083 443.394 234.35C440.744 232.93 438.601 230.747 437.254 228.094C436.766 227.141 436.421 226.123 436.23 225.072C436.529 225.111 436.833 225.135 437.132 225.154C437.225 225.159 437.323 225.164 437.416 225.169L437.451 225.17C437.779 225.185 438.105 225.105 438.389 224.942C438.673 224.779 438.903 224.539 439.051 224.251C439.199 223.962 439.259 223.638 439.223 223.317C439.188 222.996 439.059 222.692 438.852 222.441C438.723 222.285 438.594 222.129 438.465 221.973C438.268 221.733 438.068 221.497 437.872 221.256C437.849 221.234 437.828 221.209 437.808 221.184C437.582 220.91 437.357 220.64 437.132 220.366C437.543 219.739 438.097 219.214 438.749 218.831C441.008 217.532 444.124 218.432 445.756 220.438C447.393 222.445 447.702 225.26 447.133 227.767C446.574 229.9 445.649 231.924 444.399 233.753C444.521 233.907 444.649 234.056 444.771 234.21C447.011 237.038 448.962 240.074 450.599 243.276C450.201 239.689 450.676 236.061 451.984 232.69C453.311 229.548 455.797 226.901 457.986 224.185C460.616 220.923 466.008 222.346 466.471 226.482C466.476 226.522 466.48 226.562 466.484 226.602C466.159 226.783 465.841 226.974 465.529 227.176C465.138 227.433 464.835 227.799 464.66 228.228C464.484 228.657 464.445 229.128 464.547 229.579C464.648 230.03 464.887 230.44 465.23 230.756C465.573 231.072 466.006 231.279 466.471 231.349L466.518 231.357C466.403 232.507 466.198 233.648 465.906 234.768C465.06 237.896 463.565 240.818 461.515 243.352C459.466 245.886 456.905 247.977 453.993 249.493C453.802 249.589 453.616 249.685 453.425 249.777C455.069 254.352 456.1 259.117 456.493 263.953C456.715 266.806 456.702 269.672 456.453 272.523L456.468 272.422C457.095 269.252 458.818 266.391 461.344 264.323C465.096 261.297 470.397 260.182 474.445 257.749C474.875 257.478 475.375 257.333 475.887 257.332C476.398 257.331 476.899 257.473 477.33 257.742C477.762 258.011 478.106 258.396 478.322 258.851C478.538 259.306 478.618 259.812 478.55 260.31C478.545 260.345 478.54 260.381 478.534 260.416C477.93 260.657 477.343 260.935 476.775 261.249C476.45 261.429 476.131 261.62 475.82 261.822C475.429 262.079 475.125 262.446 474.95 262.874C474.775 263.303 474.735 263.774 474.837 264.225C474.939 264.676 475.177 265.087 475.52 265.403C475.864 265.718 476.296 265.925 476.761 265.996L476.809 266.003C476.843 266.008 476.873 266.012 476.907 266.017C475.876 268.435 474.429 270.66 472.629 272.595C470.406 274.938 467.719 276.81 464.732 278.097C461.746 279.383 458.524 280.057 455.263 280.078H455.258C454.372 283.855 453.09 287.532 451.431 291.049H437.759C437.71 290.9 437.666 290.746 437.622 290.597C438.887 290.675 440.158 290.601 441.405 290.375C440.39 289.153 439.376 287.921 438.362 286.699C438.339 286.676 438.318 286.652 438.298 286.627C437.783 286.001 437.264 285.381 436.749 284.755V284.754C436.722 282.837 436.946 280.924 437.416 279.062Z" fill="#E6E6E6"/>
<path d="M274.928 240.225C275.281 240.241 275.63 240.15 275.928 239.965C276.227 239.779 276.46 239.508 276.596 239.188C276.732 238.869 276.765 238.515 276.69 238.177C276.615 237.838 276.435 237.53 276.176 237.295C276.133 237.125 276.102 237.004 276.058 236.834C276.074 236.797 276.089 236.76 276.105 236.724C276.46 235.9 277.056 235.197 277.816 234.704C278.577 234.211 279.469 233.95 280.38 233.953C281.291 233.957 282.181 234.224 282.938 234.723C283.695 235.221 284.285 235.928 284.634 236.755C286.029 240.054 287.805 243.358 288.242 246.847C288.435 248.388 288.353 249.951 288.002 251.466C291.278 244.448 292.979 236.82 292.99 229.1C292.991 227.163 292.881 225.227 292.662 223.302C292.481 221.723 292.229 220.156 291.907 218.6C290.151 210.158 286.381 202.246 280.906 195.513C278.257 194.093 276.114 191.91 274.766 189.257C274.278 188.304 273.933 187.286 273.742 186.235C274.041 186.274 274.345 186.298 274.644 186.317C274.737 186.322 274.835 186.327 274.928 186.331L274.963 186.333C275.292 186.347 275.617 186.268 275.901 186.105C276.185 185.942 276.415 185.702 276.563 185.413C276.711 185.125 276.771 184.801 276.736 184.48C276.7 184.159 276.571 183.855 276.364 183.604C276.235 183.448 276.106 183.292 275.977 183.136C275.781 182.896 275.58 182.66 275.384 182.419C275.361 182.396 275.34 182.372 275.32 182.347C275.095 182.073 274.869 181.803 274.644 181.529C275.055 180.902 275.609 180.377 276.261 179.994C278.52 178.695 281.637 179.595 283.268 181.601C284.905 183.608 285.214 186.423 284.645 188.93C284.086 191.063 283.162 193.087 281.911 194.916C282.033 195.07 282.161 195.219 282.283 195.373C284.523 198.201 286.475 201.237 288.111 204.439C287.713 200.852 288.188 197.224 289.497 193.852C290.823 190.71 293.309 188.064 295.498 185.348C298.128 182.085 303.52 183.509 303.983 187.645C303.988 187.685 303.992 187.725 303.996 187.765C303.671 187.945 303.353 188.137 303.041 188.339C302.65 188.596 302.347 188.962 302.172 189.391C301.996 189.82 301.957 190.291 302.059 190.742C302.161 191.193 302.399 191.603 302.742 191.919C303.085 192.235 303.518 192.442 303.983 192.512L304.031 192.519C303.915 193.67 303.71 194.811 303.418 195.931C302.572 199.059 301.078 201.981 299.028 204.515C296.978 207.049 294.417 209.139 291.506 210.656C291.314 210.752 291.128 210.848 290.937 210.94C292.581 215.515 293.612 220.28 294.005 225.116C294.227 227.969 294.214 230.835 293.965 233.686L293.98 233.585C294.607 230.415 296.33 227.554 298.856 225.486C302.608 222.46 307.909 221.345 311.957 218.912C312.387 218.641 312.888 218.496 313.399 218.495C313.91 218.494 314.411 218.636 314.843 218.905C315.274 219.174 315.618 219.559 315.834 220.014C316.051 220.469 316.13 220.975 316.063 221.473C316.057 221.508 316.052 221.544 316.046 221.579C315.443 221.82 314.855 222.098 314.287 222.411C313.962 222.592 313.643 222.783 313.332 222.985C312.941 223.242 312.638 223.608 312.462 224.037C312.287 224.466 312.247 224.937 312.349 225.388C312.451 225.839 312.689 226.249 313.033 226.565C313.376 226.881 313.808 227.088 314.274 227.158L314.321 227.166C314.355 227.17 314.385 227.175 314.419 227.18C313.388 229.598 311.941 231.823 310.141 233.758C307.918 236.101 305.231 237.973 302.244 239.26C299.258 240.546 296.036 241.22 292.775 241.241H292.77C291.885 245.018 290.602 248.695 288.943 252.212H275.271C275.222 252.063 275.178 251.909 275.134 251.76C276.399 251.838 277.67 251.763 278.917 251.538C277.902 250.316 276.888 249.084 275.874 247.862C275.851 247.839 275.83 247.815 275.81 247.79C275.296 247.164 274.776 246.543 274.262 245.918L274.261 245.917C274.234 244 274.458 242.087 274.928 240.225Z" fill="#E6E6E6"/>
<path d="M188.058 342.244L193.779 340.574L189.994 317.608L181.55 320.074L188.058 342.244Z" fill="#FFB6B6"/>
<path d="M152.97 333.179C153.319 333.477 153.668 333.772 154.021 334.066C154.723 334.655 155.434 335.238 156.146 335.812C156.504 336.1 156.866 336.388 157.224 336.672L157.223 336.684L157.245 336.691L157.253 336.696L157.831 336.936L159.055 334.83L159.62 333.86L160.419 332.486L161.881 329.972L169.582 316.739L161.47 313.381L160.949 314.601H160.945L160.687 315.206L155.843 326.493L154.854 328.801L154.823 328.871L154.228 330.249L153.715 331.443L153.143 332.778L152.97 333.179Z" fill="#FFB6B6"/>
<path d="M110.586 275.907C110.985 276.834 111.396 277.759 111.813 278.677C112.586 280.386 113.391 282.076 114.227 283.748C114.226 283.751 114.23 283.752 114.233 283.757C114.77 284.427 115.384 285.033 116.064 285.563C116.092 285.591 116.124 285.612 116.153 285.636C116.654 286.02 117.202 286.341 117.784 286.593C117.994 286.681 118.208 286.77 118.418 286.857C119.178 287.164 119.934 287.443 120.689 287.702C122.033 288.159 123.375 288.546 124.714 288.863C124.822 288.891 124.93 288.916 125.038 288.941C130.563 290.213 136.11 290.411 141.961 290.232C144.85 290.146 147.814 289.967 150.884 289.779C151.887 289.715 152.894 289.656 153.912 289.598C153.989 289.594 154.07 289.587 154.151 289.584C155.606 289.499 157.084 289.422 158.597 289.355C160.501 289.27 162.461 289.205 164.493 289.171L163.911 291.884C163.455 293.97 162.675 295.975 161.599 297.828C160.364 300.121 159.387 301.935 160.153 306.148L160.521 308.187C160.014 309.092 159.727 310.101 159.683 311.133C159.64 312.166 159.841 313.194 160.27 314.137L160.374 314.362L152.434 327.562L151.92 328.418L154.822 328.87L158.392 329.429L164.443 330.37L175.949 314.527L176.499 313.771L176.506 313.729L180.935 280.533C180.97 280.24 180.995 279.941 181.003 279.643C181.057 278.293 180.837 276.946 180.356 275.68C179.875 274.414 179.142 273.255 178.199 272.27C177.297 271.32 176.212 270.556 175.006 270.021C173.801 269.487 172.499 269.193 171.177 269.157L168.127 269.072L161.897 268.897L157.507 268.777L157.419 268.775L144.475 268.413L144.153 264.627L143.995 264.54L138.964 261.787L121.567 252.267L121.522 252.244L120.378 251.618L120.196 251.825C120.142 251.888 120.088 251.95 120.038 252.013C118.496 253.94 117.159 256.017 116.047 258.211C114.195 261.79 112.552 265.469 111.126 269.231C111.064 269.394 111.008 269.543 110.958 269.677L110.94 269.717C110.917 269.78 110.903 269.821 110.897 269.832C110.19 271.508 110.144 273.679 110.586 275.907Z" fill="#2F2E41"/>
<path d="M111.771 263.603C111.869 263.367 111.984 263.129 112.101 262.9C113.016 261.166 114.028 259.483 115.133 257.858C116.376 256.007 117.826 254.042 119.516 251.934C120.333 250.912 121.206 249.854 122.134 248.758C122.599 248.209 123.081 247.651 123.578 247.084C123.598 247.057 123.619 247.032 123.642 247.007L123.785 246.841L141.672 252.084L141.664 254.489L142.961 257.897L142.873 257.998C142.878 257.994 142.877 257.998 142.873 257.998V257.53L143.35 257.998L147.961 263.593L147.993 263.594L158.299 263.88L168.919 264.175L174.623 264.335C175.946 264.371 177.248 264.664 178.453 265.199C179.659 265.733 180.744 266.498 181.646 267.448C182.588 268.433 183.321 269.592 183.802 270.858C184.283 272.124 184.503 273.471 184.449 274.821C184.441 275.095 184.42 275.375 184.387 275.649L187.682 288.741C189.654 296.571 190.411 304.648 189.928 312.7L191.837 325.443L191.278 325.407L182.962 324.88L180.766 324.743L177.102 317.17C176.684 316.306 176.298 315.424 175.95 314.529C175.375 313.065 174.896 311.567 174.515 310.043L168.092 284.349C167.273 284.359 166.463 284.364 165.662 284.364C161.956 284.378 158.411 284.307 155.028 284.154C144.028 283.658 134.653 282.294 126.483 279.993C124.188 279.349 121.986 278.629 119.876 277.833C119.101 277.543 118.34 277.243 117.59 276.931C117.414 276.86 117.241 276.79 117.068 276.716C115.52 276.056 114.165 275.025 113.127 273.718C112.089 272.41 111.401 270.868 111.127 269.233C110.791 267.334 111.015 265.381 111.771 263.603Z" fill="#2F2E41"/>
<path d="M186.934 338.415L193.125 336.602L194.096 336.317L194.977 340.016L204.689 343.757C205.169 343.941 205.577 344.272 205.852 344.7C206.128 345.128 206.257 345.631 206.22 346.137C206.183 346.642 205.983 347.122 205.648 347.507C205.314 347.893 204.862 348.163 204.36 348.279L193.892 350.689L191.216 347.445L191.384 351.266L187.442 352.175L185.429 338.858L186.934 338.415Z" fill="#2F2E41"/>
<path d="M152.434 327.563L151.919 328.418L152.287 328.476L152.434 327.563Z" fill="#2F2E41"/>
<path d="M154.259 328.982L159.958 331.971L160.852 332.44L158.827 335.677L163.049 345.045C163.258 345.508 163.311 346.025 163.2 346.519C163.088 347.014 162.819 347.461 162.431 347.794C162.043 348.128 161.556 348.331 161.043 348.373C160.529 348.416 160.014 348.296 159.575 348.031L150.409 342.511L150.832 338.357L148.214 341.189L144.761 339.11L152.873 328.257L154.259 328.982Z" fill="#2F2E41"/>
<path d="M195.438 158.582C195.493 159.202 195.409 159.826 195.191 160.411C194.974 160.996 194.628 161.526 194.179 161.966C193.731 162.405 193.189 162.743 192.593 162.954C191.997 163.166 191.361 163.247 190.729 163.191L184.392 176.981L180.112 170.336L186.787 158.259C186.953 157.224 187.5 156.284 188.324 155.619C189.148 154.953 190.192 154.607 191.259 154.647C192.325 154.687 193.339 155.109 194.11 155.835C194.88 156.56 195.353 157.537 195.438 158.582Z" fill="#FFB6B6"/>
<path d="M179.317 199.608L150.279 221.425C147.975 223.152 145.068 223.911 142.195 223.536C139.323 223.161 136.719 221.682 134.955 219.423C133.98 218.172 133.298 216.725 132.956 215.185C132.615 213.646 132.622 212.051 132.979 210.515C133.335 208.979 134.032 207.539 135.019 206.296C136.006 205.054 137.26 204.041 138.691 203.328L167.64 188.906L180.59 164.13L189.286 166.668L179.317 199.608Z" fill="#E44420"/>
<path d="M117.474 225.527L116.885 246.697C108.784 260.138 107.862 266.664 110.105 270.144L143.417 258.195L143.979 256.878L145.718 247.419L148.872 237.659C149.428 236.639 156.967 230.374 149.899 218.488L135.682 199.68L124.289 199.04C122.411 203.773 125.799 206.356 122.415 207.447C114.763 214.334 115.887 215.455 117.474 225.527Z" fill="#E44420"/>
<path d="M94.8183 284.961C94.5603 284.393 94.4324 283.776 94.4435 283.153C94.4547 282.531 94.6047 281.919 94.883 281.359C95.1612 280.8 95.5609 280.307 96.054 279.916C96.547 279.525 97.1214 279.245 97.7367 279.095L99.1419 264.028L105.396 268.937L103.103 282.493C103.29 283.524 103.086 284.588 102.528 285.481C101.97 286.375 101.098 287.036 100.077 287.34C99.056 287.645 97.9566 287.571 96.9874 287.132C96.0181 286.694 95.2463 285.921 94.8183 284.961Z" fill="#FFB6B6"/>
<path d="M96.4155 241.015L116.608 211.083C118.211 208.712 120.706 207.063 123.546 206.496C126.387 205.93 129.34 206.493 131.757 208.062C133.095 208.933 134.221 210.081 135.056 211.427C135.891 212.773 136.414 214.282 136.587 215.849C136.761 217.415 136.582 219 136.061 220.49C135.541 221.981 134.694 223.341 133.578 224.473L111.011 247.387L107.008 274.956L97.945 275.346L96.4155 241.015Z" fill="#E44420"/>
<path d="M139.21 173.354C143.238 181.151 140.607 190.181 133.132 194.93C125.05 200.065 114.555 198.941 111.161 188.962C107.381 177.849 110.486 173.081 117.239 167.386C125.152 160.712 134.858 164.931 139.21 173.354Z" fill="#2F2E41"/>
<path d="M119.382 190.722C121.433 193.36 124.466 195.092 127.816 195.535C131.165 195.979 134.557 195.099 137.247 193.088C139.936 191.077 141.702 188.101 142.157 184.812C142.613 181.523 141.72 178.191 139.675 175.548L139.565 175.405C137.476 172.838 134.443 171.179 131.12 170.788C127.797 170.396 124.45 171.303 121.802 173.313C119.154 175.323 117.416 178.274 116.964 181.53C116.512 184.787 117.382 188.087 119.385 190.72L119.382 190.722Z" fill="#FFB6B6"/>
<path d="M143.114 172.092C141.041 174.029 138.515 175.434 135.758 176.185C135.205 175.557 134.55 175.024 133.819 174.607C134.169 175.322 134.409 176.084 134.531 176.868C133.301 179.374 128.279 181.175 123.479 183.017L117.122 172L125.537 167.317C132.298 162.727 140.258 164.686 143.114 172.092Z" fill="#2F2E41"/>
<path d="M112.326 167.4C111.181 166.88 109.698 167.201 108.621 167.931C107.597 168.696 106.768 169.685 106.202 170.82C105.173 172.656 104.434 174.635 104.009 176.69C103.646 178.467 103.708 180.615 105.331 181.542C106.686 182.316 108.623 181.829 109.869 180.796C111.114 179.764 111.815 178.312 112.423 176.895C113.03 175.478 113.605 174.008 114.685 172.831L113.563 173.346C113.918 172.288 114.083 171.179 114.051 170.066C114.026 169.513 113.853 168.975 113.55 168.507C113.248 168.04 112.826 167.658 112.326 167.4Z" fill="#2F2E41"/>
<path d="M126.881 168.844L117.853 173.867C115.412 175.225 113.62 177.48 112.872 180.136C112.124 182.791 112.481 185.63 113.864 188.027C115.879 191.518 119.147 194.146 123.03 195.397C126.913 196.649 131.131 196.433 134.861 194.793L126.611 187.642L137.802 193.241L140.191 191.912C128.189 189.769 125.874 180.524 126.881 168.844Z" fill="#2F2E41"/>
</g>
</g>
<defs>
<clipPath id="clip0_257_302">
<rect width="485" height="353" fill="white"/>
</clipPath>
</defs>
</svg>
