<svg width="215" height="222" viewBox="0 0 215 222" fill="none" xmlns="http://www.w3.org/2000/svg">
<g clip-path="url(#clip0_13_748)">
<path d="M80.8517 191.568L160.367 188.209L204.791 221.175H55.0933L80.8517 191.568Z" fill="#F2F2F2"/>
<path d="M144.399 32.6478C141.153 30.4641 136.689 30.9918 134.106 33.8645L120.774 48.6909L90.9063 44.9004L85.3775 43.8505C84.1797 42.8457 82.7461 42.1276 81.1962 41.7571C77.3334 40.7789 73.6706 41.8788 73.0155 44.2133C72.3605 46.5476 74.9609 49.2323 78.8252 50.2103C80.3633 50.6209 81.9825 50.676 83.5476 50.3707L85.8003 50.9122L119.658 62.7141L144.654 44.3847C148.745 41.3853 148.616 35.4848 144.399 32.6478Z" fill="#FFB6B6"/>
<path d="M138.057 23.7261L133.183 15.4949L125.291 22.1659L127.314 33.1811L138.057 23.7261Z" fill="#FFB6B6"/>
<path d="M120.02 25.9955C126.777 25.9955 132.255 20.7939 132.255 14.3775C132.255 7.96102 126.777 2.75946 120.02 2.75946C113.263 2.75946 107.785 7.96102 107.785 14.3775C107.785 20.7939 113.263 25.9955 120.02 25.9955Z" fill="#FFB6B6"/>
<path d="M122.99 18.1187L115.922 16.9427L114.912 13.1292C114.912 13.1292 108.626 21.5271 106.239 13.9345C103.851 6.34186 114.95 0.0939616 118.247 0.192868C121.544 0.291774 131.217 -0.796887 132.927 5.33387C134.637 11.4646 134.348 18.1622 134.348 18.1622L130.511 18.4231C130.511 18.4231 126.342 12.7827 125.182 13.9387C124.021 15.0947 122.99 18.1187 122.99 18.1187Z" fill="#2F2E41"/>
<path d="M107.407 119.603L104.209 147.441L118.245 187.9C118.83 189.586 118.997 191.377 118.732 193.135C118.305 195.975 116.777 198.562 114.448 200.389L106.528 206.602C106.085 206.949 105.879 207.5 105.991 208.035C106.177 208.914 107.136 209.437 108.029 209.146L118.106 205.857C121.61 204.713 125.29 204.129 128.996 204.129H130.856C132.331 204.129 133.526 202.994 133.526 201.594C133.526 201.263 133.458 200.935 133.325 200.628L129.795 192.488L120.2 149.465L122.866 134.787L107.407 119.603Z" fill="#FFB6B6"/>
<path d="M129.262 131.75L131.927 148.453L138.857 189.957L136.192 199.068L125.121 207.633C123.681 208.747 124.102 210.932 125.864 211.489C126.34 211.64 126.855 211.642 127.332 211.496L143.121 206.66L147.405 205.207C149.311 204.561 150.584 202.846 150.584 200.924C150.584 200.366 150.476 199.813 150.265 199.292L147.919 193.5L145.52 148.706L145.786 132.256L129.262 131.75Z" fill="#FFB6B6"/>
<path d="M115.433 89.8042L112.551 60.0928C111.979 54.2025 113.476 48.192 116.765 43.1676L124.036 32.0917L138.067 21.8432L144.231 26.8982C147.835 29.8536 149.544 34.4529 148.693 38.9019L142.59 70.7718L143.672 83.1003L115.433 89.8042Z" fill="#F24E1E"/>
<path d="M149.527 190.463H138.367L138.328 190.254L127.054 129.756L120.742 148.214L128.774 185.332L118.178 187.98L101.963 150.846C100.653 147.846 100.39 144.461 101.223 141.311L115.124 88.7608L143.457 82.6322L143.559 82.7128C156.177 92.7383 147.338 106.419 146.588 107.526L149.527 190.463Z" fill="#2F2E41"/>
<path d="M214.111 108.366C213.291 110.482 211.947 112.329 210.236 113.787C208.525 115.25 206.446 116.318 204.144 116.869C188.995 120.498 152.668 126.365 112.37 112.42C106.123 110.254 99.833 108.184 93.4793 106.311C82.5519 103.087 72.8346 99.635 64.2046 96.0871C60.2388 94.4572 56.5076 92.8122 52.9948 91.1521C48.2561 88.9199 43.9066 86.6727 39.93 84.4405C36.0175 82.254 32.4621 80.0826 29.232 77.9567C6.61498 63.0761 0 50.5136 0 50.5136C0 50.5136 12.9742 44.4349 40.7989 43.4174C44.7914 43.2706 49.0877 43.2301 53.6984 43.3213C58.3945 43.4174 63.4104 43.6554 68.7568 44.0753C72.7279 44.3791 76.875 44.7891 81.2087 45.3053C95.4727 47.0111 111.73 49.9264 130.062 54.5628C192.406 70.3242 209.303 88.5151 213.802 98.2179C215.29 101.432 215.391 105.071 214.111 108.366Z" fill="#F2F2F2"/>
<path d="M137.526 28.369C133.549 28.3203 130.188 31.1604 129.778 34.9177L127.663 54.3097L100.806 67.2844L95.6262 69.3994C94.0394 69.2175 92.4299 69.399 90.9323 69.9291C87.1672 71.2053 84.8088 74.0848 85.6647 76.3599C86.5206 78.6349 90.2662 79.444 94.0325 78.1668C95.5443 77.676 96.9103 76.8488 98.0165 75.7539L100.195 74.9858L131.492 67.3444C133.753 66.7923 135.557 65.1758 136.269 63.0641L144.751 37.8953C146.326 33.2213 142.694 28.4322 137.526 28.369Z" fill="#FFB6B6"/>
<path d="M53.6984 43.3213L39.9299 84.4405C36.0175 82.254 32.4621 80.0826 29.2319 77.9567L40.7989 43.4174C44.7913 43.2706 49.0877 43.2301 53.6984 43.3213Z" fill="#3F3D56"/>
<path d="M81.2088 45.3053L64.2047 96.0871C60.2389 94.4572 56.5077 92.8122 52.9949 91.1521L68.7569 44.0753C72.728 44.3791 76.8751 44.7891 81.2088 45.3053Z" fill="#3F3D56"/>
<path d="M142.204 60.033L124.304 56.4357L129.713 32.1723C130.155 30.1882 131.384 28.4864 133.175 27.3802C134.964 26.2745 137.101 25.8978 139.191 26.3165L141.446 26.7697C145.759 27.6367 148.525 31.674 147.612 35.7697L142.204 60.033Z" fill="#F24E1E"/>
</g>
<defs>
<clipPath id="clip0_13_748">
<rect width="215" height="221" fill="white" transform="translate(0 0.174927)"/>
</clipPath>
</defs>
</svg>
