<svg width="215" height="222" viewBox="0 0 215 222" fill="none" xmlns="http://www.w3.org/2000/svg">
<g clip-path="url(#clip0_13_846)">
<path d="M23.6192 216.047C23.8058 216.795 23.9001 217.566 23.8871 218.34L23.887 218.34C23.6804 218.592 23.4717 218.842 23.265 219.094C23.2572 219.103 23.2493 219.113 23.2394 219.123C22.832 219.615 22.4245 220.111 22.0171 220.604C22.517 220.695 23.0288 220.724 23.5367 220.693C23.519 220.753 23.5012 220.815 23.4815 220.875H17.9897C17.3244 219.46 16.8067 217.975 16.4524 216.456H16.4504C13.2095 217.548 10.1798 217.192 9.4744 213.442C8.75003 212.665 8.17133 211.764 7.756 210.793C7.76976 210.791 7.78158 210.789 7.79535 210.787L7.8145 210.784C8.65929 210.656 8.9057 209.568 8.19272 209.103C8.06772 209.022 7.93975 208.945 7.80914 208.872C7.5808 208.746 7.3446 208.634 7.10249 208.537L7.09584 208.494C6.95925 207.601 7.96224 206.991 8.74496 207.463C10.371 208.443 12.5004 208.892 14.0076 210.111C15.0194 210.929 15.7162 212.109 15.9662 213.372L15.9721 213.413C15.8737 212.266 15.8658 211.111 15.9564 209.961C16.0292 209.05 16.1591 208.143 16.3461 207.246C16.5547 206.231 16.8362 205.229 17.1886 204.252C17.1118 204.215 17.037 204.176 16.9602 204.137C13.4825 204.067 11.0469 202.503 12.175 198.207C12.0569 197.755 11.9762 197.296 11.929 196.833L11.9481 196.83C12.7929 196.701 13.0393 195.613 12.3264 195.149C12.2014 195.067 12.0734 194.99 11.9428 194.918C11.9445 194.902 11.9462 194.886 11.948 194.869C12.1341 193.204 14.3002 192.63 15.3565 193.944C16.2359 195.038 17.2345 196.104 17.7673 197.37C18.2353 198.48 18.5098 200.203 18.3239 201.633C18.9818 200.347 19.7623 199.122 20.6648 197.982C20.714 197.92 20.7651 197.86 20.8144 197.798C20.336 197.044 20.2611 196.091 19.716 195.387C18.8591 194.28 18.8726 193.129 20.2691 192.435C20.9228 190.786 22.175 190.574 23.0839 191.788C23.2667 192.032 23.5662 192.156 23.7335 192.406C23.643 192.516 23.9756 194.317 24.0957 194.302C24.0248 194.722 23.8752 195.135 23.6843 195.519C23.1528 196.583 22.273 197.47 21.2179 198.038C19.0231 200.73 17.5015 203.953 16.7988 207.337C16.6689 207.963 16.5685 208.595 16.4957 209.231C16.4071 210.008 16.3638 210.787 16.3638 211.566C16.3638 214.667 17.0547 217.751 18.3676 220.574C18.2279 219.966 18.1925 219.334 18.2712 218.714C18.4469 217.309 19.1602 215.978 19.7206 214.649C20.3519 213.152 22.5098 213.142 23.1465 214.637C23.1528 214.651 23.1591 214.666 23.1653 214.681L23.1179 214.867C22.6416 215.316 22.9896 216.086 23.6192 216.047Z" fill="#F2F2F2"/>
<path d="M30.1065 220.875H17.02L33.2492 183.674L33.8093 183.91L18.5548 220.275H29.705L41.9843 201.13L42.5444 201.367L30.1065 220.875Z" fill="#3F3D56"/>
<path d="M44.829 65.7909C43.3053 65.6502 41.9543 66.7523 41.8114 68.2525C41.6698 69.7385 42.7669 71.057 44.2685 71.2187L44.2643 71.2622L49.782 71.7718L50.2582 66.7726C50.3008 66.6205 50.3312 66.463 50.3467 66.3005C50.4896 64.8003 49.3703 63.47 47.8466 63.3293C46.3229 63.1886 44.9719 64.2907 44.829 65.7909Z" fill="#F24E1E"/>
<path d="M103.09 216.047C103.719 216.086 104.067 215.316 103.591 214.867L103.544 214.681C103.55 214.666 103.556 214.651 103.562 214.637C104.199 213.142 106.357 213.152 106.988 214.649C107.549 215.978 108.262 217.309 108.438 218.714C108.517 219.334 108.481 219.966 108.341 220.574C109.654 217.751 110.345 214.667 110.345 211.566C110.345 210.787 110.302 210.008 110.213 209.231C110.14 208.595 110.04 207.963 109.91 207.337C109.207 203.953 107.686 200.73 105.491 198.038C104.436 197.47 103.556 196.583 103.025 195.519C102.834 195.135 102.684 194.722 102.613 194.302C102.733 194.317 103.066 192.516 102.975 192.406C103.143 192.156 103.442 192.032 103.625 191.788C104.534 190.574 105.786 190.786 106.44 192.435C107.836 193.129 107.85 194.28 106.993 195.387C106.448 196.091 106.373 197.044 105.895 197.798C105.944 197.86 105.995 197.92 106.044 197.982C106.947 199.122 107.727 200.347 108.385 201.633C108.199 200.203 108.474 198.48 108.942 197.37C109.474 196.104 110.473 195.038 111.352 193.944C112.409 192.63 114.575 193.204 114.761 194.869C114.763 194.886 114.764 194.902 114.766 194.918C114.636 194.99 114.508 195.067 114.383 195.149C113.67 195.613 113.916 196.701 114.761 196.83L114.78 196.833C114.733 197.296 114.652 197.755 114.534 198.207C115.662 202.503 113.226 204.067 109.749 204.137C109.672 204.176 109.597 204.215 109.52 204.252C109.873 205.229 110.154 206.231 110.363 207.246C110.55 208.143 110.68 209.05 110.753 209.961C110.843 211.111 110.835 212.266 110.737 213.413L110.743 213.372C110.993 212.109 111.69 210.929 112.701 210.111C114.209 208.892 116.338 208.443 117.964 207.463C118.747 206.991 119.75 207.601 119.613 208.494L119.606 208.537C119.364 208.634 119.128 208.746 118.9 208.872C118.769 208.945 118.641 209.022 118.516 209.103C117.803 209.568 118.05 210.656 118.894 210.784L118.914 210.787C118.927 210.789 118.939 210.791 118.953 210.793C118.538 211.764 117.959 212.665 117.235 213.442C116.529 217.192 113.499 217.548 110.259 216.456H110.257C109.902 217.975 109.385 219.46 108.719 220.875H103.227C103.208 220.815 103.19 220.753 103.172 220.693C103.68 220.724 104.192 220.695 104.692 220.604C104.284 220.111 103.877 219.615 103.47 219.123C103.46 219.113 103.452 219.103 103.444 219.094C103.237 218.842 103.029 218.592 102.822 218.34L102.822 218.34C102.809 217.566 102.903 216.795 103.09 216.047Z" fill="#F2F2F2"/>
<path d="M81.7808 138.598H47.9399L47.977 138.265L59.9784 30.7953H71.4289L71.4549 31.0671L81.7808 138.598ZM49.5343 137.998H80.1965L70.8741 31.3955H60.5245L49.5343 137.998Z" fill="#3F3D56"/>
<path d="M90.6232 142.954H38.4011V137.998H90.6232V142.954ZM39.0106 142.353H90.0137V138.598H39.0106V142.353Z" fill="#3F3D56"/>
<path d="M75.2715 31.3955H56.5315V26.4395H75.2715V31.3955ZM57.141 30.7954H74.662V27.0397H57.141V30.7954Z" fill="#3F3D56"/>
<path d="M84.1053 150.218L91.2946 179.135H93.7936L84.1053 150.218ZM91.2946 179.135H84.2151L76.9648 149.969L76.8155 149.368L75.2216 142.953H81.6734L83.8219 149.368L84.023 149.969L84.1053 150.218L84.0444 149.969L83.8951 149.368L82.1518 142.353H74.4475L76.1907 149.368L76.3401 149.969L83.7396 179.735H91.444L91.2946 179.135Z" fill="#3F3D56"/>
<path d="M45.0931 149.368L44.8798 149.969L34.6094 179.135H37.7301L44.9804 149.969L45.1297 149.368L45.2181 149.011L45.0931 149.368ZM46.8729 142.353L45.2181 149.011L47.3514 142.953H53.8001L52.2062 149.368L52.0569 149.969L44.8066 179.135H37.7301L37.5808 179.735H45.2851L52.6847 149.969L52.834 149.368L54.5772 142.353H46.8729Z" fill="#3F3D56"/>
<path d="M111.119 220.875H98.0327L85.595 201.367L86.1551 201.13L98.4345 220.275H109.585L94.3302 183.91L94.8903 183.674L111.119 220.875Z" fill="#3F3D56"/>
<path d="M116.063 184.092H14.98V179.136H116.063V184.092ZM15.5895 183.492H115.454V179.736H15.5895V183.492Z" fill="#3F3D56"/>
<path d="M91.9269 211.416C73.4016 203.923 54.6154 203.923 36.0894 211.416L35.7219 210.885C53.4104 200.349 69.949 198.544 92.2943 210.885L91.9269 211.416Z" fill="#3F3D56"/>
<path d="M90.3999 203.388C72.9643 195.884 55.2829 195.884 37.8474 203.388L37.5801 202.842C55.1932 195.262 73.0541 195.262 90.6672 202.842L90.3999 203.388Z" fill="#3F3D56"/>
<path d="M84.0443 149.969H44.8796L45.093 149.368H83.895L84.0443 149.969Z" fill="#3F3D56"/>
<path d="M84.9799 153.447H43.8374L44.4469 152.207H84.6752L84.9799 153.447Z" fill="#3F3D56"/>
<path d="M71.4564 27.0697H59.9468V16.9892H71.4564V27.0697ZM60.5563 26.4695H70.8468V18.1895L61.1658 17.5893L60.5563 26.4695Z" fill="#3F3D56"/>
<path d="M67.278 17.5894H63.7649V0.174927H67.278V17.5894ZM64.3744 16.9892H66.6684L65.7801 0.671992L64.3744 0.775066V16.9892Z" fill="#3F3D56"/>
<path d="M99.1473 121.455C98.5936 120.05 96.9882 119.353 95.5615 119.898C94.1483 120.438 93.4413 121.994 93.9661 123.389L93.9247 123.404L95.9297 128.491L100.684 126.675C100.841 126.644 100.998 126.601 101.152 126.542C102.579 125.996 103.287 124.416 102.733 123.011C102.179 121.606 100.574 120.909 99.1473 121.455Z" fill="#F24E1E"/>
<path d="M55.2618 170.966C54.7081 169.561 53.1027 168.864 51.676 169.41C50.2628 169.95 49.5558 171.505 50.0806 172.9L50.0392 172.916L52.0443 178.003L56.7984 176.186C56.9556 176.156 57.1122 176.112 57.2668 176.053C58.6935 175.508 59.4012 173.927 58.8475 172.522C58.2939 171.118 56.6885 170.421 55.2618 170.966Z" fill="#F24E1E"/>
<path d="M215 220.575H0V221.175H215V220.575Z" fill="#3F3D56"/>
<path d="M195.088 138.589C195.038 138.167 194.664 137.803 194.235 137.758C193.921 137.724 193.539 137.823 193.404 137.427C193.354 137.281 193.369 137.122 193.42 136.977C193.664 136.286 193.11 135.495 192.395 135.411C191.752 135.335 191.098 135.844 191.025 136.478C190.837 136.397 190.641 136.341 190.441 136.304C189.845 136.146 189.223 136.085 188.602 136.113L187.49 136.164C187.422 136.151 187.354 136.14 187.287 136.13C184.742 135.77 182.709 138.176 183.37 140.622C185.161 147.245 181.202 147.732 182.918 150.774L191.086 149.397C192.449 149.456 192.867 153.996 192.874 152.653L193.166 142.454C193.346 141.824 193.458 141.241 193.507 140.699C193.545 140.643 193.579 140.584 193.607 140.522C193.765 140.179 193.743 139.75 193.54 139.442C193.796 139.633 194.15 139.7 194.455 139.593C194.862 139.451 195.139 139.012 195.088 138.589Z" fill="#2F2E41"/>
<path d="M173.278 175.64L175.202 164.188L178.092 163.909L175.283 175.912C175.482 176.128 175.622 176.4 175.673 176.709C175.81 177.555 175.225 178.351 174.365 178.486C173.506 178.622 172.698 178.046 172.56 177.199C172.457 176.566 172.759 175.961 173.278 175.64Z" fill="#FFB6B6"/>
<path d="M182.745 152.774C182.745 152.774 180.081 149.793 178.378 152.415C176.674 155.037 176.432 157.19 175.11 161.752C174.063 165.363 174.591 167.149 174.591 167.149L177.542 167.769L179.57 162.723L182.745 152.774Z" fill="#E6E6E6"/>
<path d="M188.459 215.698L186.551 216.155L183.811 208.968L186.626 208.292L188.459 215.698Z" fill="#FFB6B6"/>
<path d="M183.127 220.194C183.242 220.658 183.716 220.942 184.187 220.83L187.98 219.919L188.303 218.432L188.887 219.701L190.319 219.358L188.742 214.708L188.237 214.799L186.175 215.166L185.51 215.285L185.843 216.629L183.324 219.416C183.132 219.628 183.059 219.919 183.127 220.194Z" fill="#2F2E41"/>
<path d="M191.41 216.683L189.447 216.723L188.353 209.122L191.25 209.063L191.41 216.683Z" fill="#FFB6B6"/>
<path d="M185.216 219.936C185.226 220.413 185.627 220.792 186.111 220.783L190.014 220.703L190.656 219.32L190.948 220.683L192.42 220.654L191.904 215.778L191.391 215.759L189.298 215.677L188.622 215.652L188.651 217.035L185.579 219.218C185.345 219.384 185.21 219.653 185.216 219.936Z" fill="#2F2E41"/>
<path d="M193.349 186.147L171.386 186.611L175.538 172.844H193.349V186.147Z" fill="#D6D5DA"/>
<path d="M189.429 145.751H185.223V148.883L181.325 151.408L179.683 155.398L180.504 157.62L178.819 168.103L189.429 162.772L192.866 149.539L190.661 148.226L189.429 145.751Z" fill="#F24E1E"/>
<path d="M192.179 162.772L179.683 162.065L174.1 176.945L173.333 189.138L184.3 212.488H188.304L180.295 189.736L181.794 177.795L187.904 212.42L192.179 212.364L190.844 191.655L192.179 162.772Z" fill="#2F2E41"/>
<path d="M190.661 148.226C190.661 148.226 188.885 157.784 188.885 162.065C188.885 166.346 185.682 186.147 185.682 186.147H193.349L194.747 148.94L190.661 148.226Z" fill="#E6E6E6"/>
<path d="M181.876 150.543C181.876 150.543 177.771 151.5 177.433 155.768C177.096 160.036 171.386 186.611 171.386 186.611H175.335L185.223 148.883L181.876 150.543Z" fill="#E6E6E6"/>
<path d="M187.995 145.462C190.544 145.462 192.611 143.427 192.611 140.917C192.611 138.407 190.544 136.372 187.995 136.372C185.445 136.372 183.378 138.407 183.378 140.917C183.378 143.427 185.445 145.462 187.995 145.462Z" fill="#FFB6B6"/>
<path d="M193.637 174.666L193.669 163.058L196.477 162.326L195.661 174.618C195.892 174.799 196.075 175.046 196.175 175.343C196.449 176.157 196.001 177.034 195.175 177.304C194.348 177.573 193.457 177.132 193.183 176.319C192.978 175.71 193.178 175.065 193.637 174.666Z" fill="#FFB6B6"/>
<path d="M191.95 149.806C191.95 149.806 195.187 147.438 196.297 150.352C197.407 153.267 197.189 155.422 197.515 160.155C197.773 163.902 196.589 165.8 196.589 165.8H193.571L192.947 160.189L191.95 149.806Z" fill="#E6E6E6"/>
<path d="M193.375 144.351L194.389 147.106C194.354 148.112 194.146 148.306 193.17 148.606L189.822 151.132C191.432 149.32 189.043 147.085 190.006 145.491C191.021 143.811 191.095 140.342 189.137 140.022C188.168 139.863 186.21 140.841 185.591 140.262C185.711 139.82 185.382 139.789 185.09 140.137C183.796 140.326 183.017 141.106 182.503 140.204V139.304C183.317 136.757 183.112 136.003 186.069 135.916C187.121 135.885 188.172 135.817 189.204 136.02L190.042 136.184C191.667 136.633 192.389 137.258 193.006 138.675C193.006 138.675 194.737 139.572 193.375 144.351Z" fill="#2F2E41"/>
</g>
<defs>
<clipPath id="clip0_13_846">
<rect width="215" height="221" fill="white" transform="translate(0 0.174927)"/>
</clipPath>
</defs>
</svg>
