<svg width="24" height="24" viewBox="0 0 24 24" fill="none" xmlns="http://www.w3.org/2000/svg">
<g clip-path="url(#clip0_30_614)">
<path d="M12 2.25C14.5859 2.25 17.0658 3.27723 18.8943 5.10571C20.7228 6.93419 21.75 9.41414 21.75 12C21.75 14.5859 20.7228 17.0658 18.8943 18.8943C17.0658 20.7228 14.5859 21.75 12 21.75C9.41414 21.75 6.93419 20.7228 5.10571 18.8943C3.27723 17.0658 2.25 14.5859 2.25 12C2.25 9.41414 3.27723 6.93419 5.10571 5.10571C6.93419 3.27723 9.41414 2.25 12 2.25ZM12 24C15.1826 24 18.2348 22.7357 20.4853 20.4853C22.7357 18.2348 24 15.1826 24 12C24 8.8174 22.7357 5.76516 20.4853 3.51472C18.2348 1.26428 15.1826 0 12 0C8.8174 0 5.76516 1.26428 3.51472 3.51472C1.26428 5.76516 0 8.8174 0 12C0 15.1826 1.26428 18.2348 3.51472 20.4853C5.76516 22.7357 8.8174 24 12 24ZM8.20312 8.20312C7.7625 8.64375 7.7625 9.35625 8.20312 9.79219L10.4062 11.9953L8.20312 14.1984C7.7625 14.6391 7.7625 15.3516 8.20312 15.7875C8.64375 16.2234 9.35625 16.2281 9.79219 15.7875L11.9953 13.5844L14.1984 15.7875C14.6391 16.2281 15.3516 16.2281 15.7875 15.7875C16.2234 15.3469 16.2281 14.6344 15.7875 14.1984L13.5844 11.9953L15.7875 9.79219C16.2281 9.35156 16.2281 8.63906 15.7875 8.20312C15.3469 7.76719 14.6344 7.7625 14.1984 8.20312L11.9953 10.4062L9.79219 8.20312C9.35156 7.7625 8.63906 7.7625 8.20312 8.20312Z" fill="#3E3737"/>
</g>
<defs>
<clipPath id="clip0_30_614">
<rect width="24" height="24" fill="white"/>
</clipPath>
</defs>
</svg>
